<svg width="740" height="666" viewBox="0 0 740 666" fill="none" xmlns="http://www.w3.org/2000/svg">
<path d="M324.431 579.895C443.428 579.895 539.894 483.428 539.894 364.43C539.894 245.432 443.428 148.965 324.431 148.965C205.434 148.965 108.968 245.432 108.968 364.43C108.968 483.428 205.434 579.895 324.431 579.895Z" fill="#2A324B"/>
<path d="M323 149.371C365.449 149.371 406.944 161.93 442.238 185.458C477.533 208.987 505.042 242.43 521.286 281.556C537.53 320.683 541.781 363.737 533.499 405.274C525.218 446.811 504.777 484.965 474.762 514.912C444.746 544.858 406.504 565.252 364.871 573.514C323.238 581.776 280.085 577.536 240.867 561.329C201.65 545.122 168.13 517.677 144.547 482.463C120.964 447.25 108.377 405.851 108.377 363.5C108.373 335.379 113.922 307.533 124.707 281.552C135.492 255.572 151.301 231.965 171.231 212.081C191.161 192.196 214.822 176.424 240.863 165.664C266.904 154.904 294.814 149.368 323 149.371ZM323 147C280.082 147 238.127 159.698 202.441 183.487C166.756 207.276 138.942 241.089 122.518 280.649C106.094 320.209 101.797 363.74 110.17 405.737C118.543 447.734 139.21 486.31 169.558 516.589C199.906 546.867 238.572 567.486 280.665 575.84C322.759 584.194 366.391 579.906 406.042 563.52C445.694 547.133 479.585 519.384 503.429 483.781C527.273 448.178 540 406.32 540 363.5C539.938 306.099 517.056 251.067 476.374 210.479C435.692 169.891 380.533 147.061 323 147Z" fill="#333C58"/>
<path d="M153.886 233.36C155.264 234.005 156.776 234.119 158.21 233.686L155.697 230.973C159.093 226.498 162.67 222.185 166.36 218.034C166.271 219.708 165.835 221.328 165.092 222.749C164.349 224.17 163.322 225.346 162.104 226.172C166.089 226.443 169.19 223.622 172.677 222.347C176.821 221.169 181.015 220.264 185.242 219.635L179.084 224.762C180.25 225.306 181.445 225.759 182.661 226.118C183.815 223.107 185.332 225.548 186.69 225.467C189.747 225.25 193.12 229.59 195.452 225.114C196.551 225.272 197.635 225.553 198.689 225.955C201.585 227.022 204.343 228.565 206.885 230.539C209.737 233.252 210.62 233.577 212.793 229.563L209.918 228.369V226.986L215.759 225.467C215.992 227.124 216.083 228.806 216.031 230.485C215.77 231.543 215.364 232.542 214.831 233.442C216.55 233.638 218.259 233.955 219.947 234.391C221.565 235.057 223.145 235.846 224.679 236.751L223.253 240.223L231.063 238.731L231.358 239.572L228.369 241.932C232.897 243.532 235.614 240.738 235.636 235.259L239.462 232.791C238.099 232.648 236.726 232.851 235.433 233.387C231.222 234.5 226.943 235.774 222.8 233.225C220.672 231.923 220.785 230.105 222.8 228.857C225.305 227.219 227.935 225.875 230.656 224.843C235.41 223.215 240.3 222.13 245.213 220.747L244.398 219.255C246.624 218.482 248.894 217.902 251.19 217.519C252.586 217.752 253.936 218.285 255.174 219.092L253.974 216C256.238 217.275 258.095 219.282 259.476 218.902C262.487 218.089 264.796 220.883 267.92 220.15C269.686 219.743 272.063 222.863 273.421 223.921C274.853 224.12 276.263 224.493 277.632 225.033C278.912 226.004 280.117 227.112 281.232 228.342L276.455 226.959C278.606 230.159 280.983 233.93 283.541 237.402C285.329 239.789 287.254 242.827 289.586 243.614C292.78 244.742 295.71 246.748 298.143 249.473C298.612 250.078 298.97 250.793 299.196 251.573C299.422 252.352 299.511 253.18 299.456 254.003C299.133 256.395 298.579 258.735 297.804 260.974C297.38 262.193 296.584 263.172 295.579 263.711C294.573 264.25 293.434 264.31 292.393 263.876C290.514 262.764 288.159 260.052 287.005 260.676C285.329 261.625 284.514 264.853 283.337 267.131C283.104 267.596 282.892 268.076 282.703 268.569C281.617 271.282 281.753 277.493 277.61 271.037C274.236 271.905 274.214 268.596 274.01 266.345C273.971 265.204 273.674 264.097 273.152 263.142C272.63 262.186 271.901 261.419 271.044 260.92C270.557 260.722 270.129 260.355 269.816 259.865C269.502 259.376 269.317 258.787 269.283 258.171C269.249 257.556 269.368 256.942 269.625 256.408C269.882 255.873 270.266 255.442 270.727 255.169C273.331 252.945 273.625 250.91 271.384 248.035C270.207 246.516 268.418 245.702 267.105 244.265C265.792 242.827 265.09 240.928 263.8 239.68C262.305 238.167 260.584 237.007 258.728 236.263C257.664 235.91 256.238 237.104 254.699 237.727C257.755 240.63 260.064 242.773 262.351 244.97C263.618 246.191 265.113 253.542 263.958 254.382C261.823 255.919 259.422 256.847 256.94 257.095C254.697 256.784 252.484 256.221 250.329 255.413C249.22 255.47 248.126 255.745 247.092 256.227V257.855L252.91 258.506C254.43 258.602 255.942 258.82 257.438 259.157C259.498 259.699 259.702 261.354 258.321 262.954C256.419 265.043 257.03 266.508 258.593 268.162C262.509 264.337 263.369 264.717 264.298 270.685C264.399 272.056 264.399 273.436 264.298 274.808C265.905 275.622 267.875 277.52 268.826 276.978C272.946 274.618 275.617 278.985 279.307 279.311C280.394 275.893 282.454 277.982 284.356 278.036C285.616 277.92 286.81 277.31 287.752 276.3C288.273 275.784 288.612 273.913 288.295 273.587C287.509 272.596 286.987 271.347 286.798 269.998C286.608 268.65 286.759 267.264 287.231 266.019C292.189 269.274 292.144 269.274 291.012 275.35C290.835 276.586 290.759 277.84 290.786 279.094L298.143 282.62C300.407 285.333 302.173 287.448 303.871 289.428C304.482 290.107 305.388 290.568 305.75 291.409C306.027 292.223 306.44 292.962 306.964 293.579C307.487 294.195 308.111 294.677 308.796 294.995C309.48 295.312 310.212 295.459 310.946 295.425C311.68 295.391 312.4 295.179 313.062 294.799C312.949 296.02 312.836 297.186 312.7 298.488L319.22 298.136C317.353 301.025 315.31 303.745 313.108 306.273C310.504 309.854 312.632 313.651 313.108 317.313C318.586 317.829 324.065 314.791 329.363 318.615C326.352 325.966 331.378 333.562 327.755 340.75L324.156 340.234L322.028 343.625C316.549 342.079 311.251 341.157 309.599 335.487C309.599 333.29 310.006 331.69 309.599 330.876C308.331 328.76 306.633 327.079 305.207 325.126C304.256 323.796 302.671 322.277 302.739 320.948C302.92 316.717 300.815 316.934 298.868 317.883C298.044 318.415 297.095 318.597 296.174 318.4C295.254 318.203 294.415 317.638 293.797 316.798C292.579 315.617 291.285 314.556 289.925 313.624C288.997 315.035 288.091 316.554 287.073 317.964C285.469 320.534 283.64 322.889 281.617 324.99C278.062 328.082 273.829 330.415 275.368 337.278L272.855 333.128C273.285 331.392 273.58 330.144 274.055 328.191L269.957 330.279C270.093 329.493 269.957 328.923 270.229 328.76C272.629 326.889 274.078 323.335 277.202 322.63C278.144 322.147 278.936 321.322 279.466 320.27C280.394 318.805 280.983 317.042 281.956 315.632C284.356 312.16 283.926 310.207 280.621 309.23C280.349 310.128 279.975 310.976 279.511 311.753C279.149 312.241 278.017 312.187 277.926 312.594C277.066 316.554 274.259 317.72 271.746 319.538C270.184 320.677 268.101 322.874 268.101 324.61C268.101 332.558 263.347 337.413 261.038 343.598C260.005 341.839 259.11 339.968 258.366 338.01C258.096 336.757 258.208 335.429 258.683 334.267C259.463 332.476 260.348 330.754 261.332 329.113C259.86 329.113 258.457 329.818 257.936 329.276C255.378 326.563 255.446 326.4 253.227 327.947C253.408 330.849 253.567 333.372 253.703 335.46C252.684 337.251 251.959 339.936 250.51 340.75C249.061 341.564 247.228 345.47 244.149 342.215C243.198 341.184 239.961 343.245 237.765 343.869C237.661 343.905 237.551 343.905 237.448 343.869L231.878 340.831C233.033 346.934 233.938 351.681 234.867 356.645C235.455 359.765 236.451 362.07 239.734 362.206C241.002 362.206 242.224 363.888 242.858 364.349L237.742 370.778L240.255 373.11L239.915 374.277L235.003 372.514C234.323 373.951 233.395 375.714 232.603 377.613C231.29 380.814 230.045 384.042 228.845 387.297C227.894 390.01 226.988 392.586 226.151 395.272C225.693 397.275 225.149 399.249 224.521 401.185C223.554 403.291 222.465 405.312 221.261 407.234C217.91 413.093 218 420.01 217.027 426.602C216.687 428.935 215.827 429.775 214.061 428.717C210.829 426.936 207.685 424.934 204.643 422.723C201.451 420.227 198.735 416.782 195.452 414.45C192.396 412.611 189.702 410.012 187.551 406.827C186.985 405.851 186.555 404.793 186.057 403.789C185.601 402.719 185.063 401.702 184.449 400.751C180.668 395.76 181.438 391.366 186.487 388.382C187.517 387.643 188.283 386.474 188.637 385.1C188.972 383.319 189.139 381.5 189.136 379.675C190.563 381.481 191.837 383.453 192.939 385.561C194.388 389.006 196.72 386.917 198.621 387.351L199.233 383.065C199.391 382.143 199.572 381.221 199.98 379.132C200.727 381.275 201.066 382.225 201.293 382.903L207.088 368.065C203.987 363.915 203.353 364.023 201.157 369.042C200.86 369.775 200.596 370.526 200.365 371.293C199.968 372.692 199.324 373.971 198.477 375.044C197.63 376.117 196.599 376.958 195.455 377.509C194.311 378.06 193.082 378.309 191.85 378.238C190.619 378.167 189.415 377.778 188.321 377.098C186.713 381.872 186.374 382.523 181.8 382.821C177.227 383.12 172.428 382.821 168.217 382.821L160.542 393.292L162.806 394.377L157.735 399.612L154.996 395.652C153.818 403.22 152.732 412.09 151.011 420.661C149.462 429.384 147.186 437.899 144.219 446.078C139.859 439.911 137.675 431.953 138.129 423.889C138.414 421.907 138.201 419.868 137.518 418.03C135.888 415.182 133.239 413.12 131.7 410.218C129.277 405.715 124.546 403.41 123.618 397.523C123.618 396.764 122.146 396.031 121.354 395.76C118.886 395.001 116.396 394.485 113.815 393.861C113.486 396.093 112.875 398.252 112.004 400.263C110.475 402.657 109.205 405.273 108.223 408.048C107.415 399.556 107.007 391.016 107.001 382.469C106.895 327.571 123.574 274.527 153.886 233.36Z" fill="#F5F5F5"/>
<path d="M416.705 548.09C416.131 546.665 415.763 545.133 415.618 543.56C415.695 541.934 415.363 540.317 414.665 538.92C413.967 537.522 412.935 536.408 411.702 535.721C408.6 534.039 405.318 533.008 402.125 531.462C401.377 531.246 400.709 530.741 400.224 530.024C398.588 526.915 397.287 523.57 396.352 520.069C395.632 515.19 395.163 510.262 394.949 505.313C394.967 504.77 394.873 504.23 394.677 503.74C393.047 501.217 391.168 498.884 389.719 496.199C388.27 493.514 385.848 489.987 385.712 486.759C385.615 485.814 385.681 484.855 385.907 483.942C386.133 483.029 386.515 482.182 387.027 481.453C387.539 480.725 388.171 480.131 388.884 479.71C389.596 479.288 390.374 479.047 391.168 479.001C391.716 478.803 392.189 478.381 392.504 477.808C396.171 471.867 401.56 473.169 406.631 473.088C406.178 470.538 407.265 469.697 409.483 469.074C414.645 467.663 418.788 464.761 420.282 457.735C421.776 450.71 424.81 448.295 431.33 447.861C433.264 447.386 435.069 446.342 436.582 444.823C437.817 443.615 438.947 442.261 439.956 440.782C440.447 440.013 441.001 439.304 441.608 438.666C443.397 437.201 444.687 434.028 447.064 434.651C449.509 435.642 452.158 435.642 454.603 434.651C456.867 433.431 459.131 432.102 461.87 430.555L464.383 438.693C466.104 435.492 464.383 432.319 463.953 428.955C468.956 432.644 474.707 434.76 475.907 442.952L476.224 442.735C465.232 483.968 444.57 520.541 416.705 548.09Z" fill="#F5F5F5"/>
<path d="M454.49 300.923C448.174 302.632 443.465 298.834 438.416 295.905C437.961 295.614 437.569 295.2 437.27 294.696C436.972 294.193 436.775 293.613 436.695 293.002C436.773 292.273 436.973 291.569 437.285 290.935C437.596 290.301 438.012 289.749 438.507 289.313C439.916 288.62 441.404 288.181 442.921 288.011L440.974 286.492C443.536 284.968 445.97 283.151 448.241 281.067C449.328 279.874 448.966 276.971 449.804 275.208C451.23 272.252 453.109 269.566 454.875 266.609C456.573 269.485 457.025 274.611 461.146 273.364C461.78 273.196 462.381 272.879 462.913 272.432C463.446 271.985 463.899 271.417 464.247 270.76C475.85 297.647 482.781 327.074 484.623 357.263C483.956 356.431 483.194 355.719 482.359 355.147C477.197 351.62 476.903 350.508 478.238 343.401C478.423 341.083 478.423 338.749 478.238 336.43L476.948 342.371C475.725 339.658 473.982 337.678 473.801 335.399C473.484 331.358 471.809 330.436 468.956 330.381C467.824 330.226 466.708 329.926 465.628 329.486L466.579 328.971C466.398 326.963 466.828 323.871 465.923 323.166C462.34 320.588 458.628 318.278 454.807 316.249L457.229 322.488L456.392 322.732L444.574 315.191L445.095 314.106L446.566 315.11L445.751 311.8C446.009 311.806 446.261 311.891 446.483 312.048C446.706 312.205 446.89 312.428 447.019 312.696C449.283 316.493 450.302 316.791 453.471 314.052C455.848 312.017 456.709 309.685 454.196 306.809C453.969 306.565 454.558 304.476 454.875 304.449C456.202 304.28 457.545 304.399 458.837 304.802C460.555 305.526 462.24 306.359 463.885 307.298C461.236 304.205 458.542 299.811 454.49 300.923Z" fill="#F5F5F5"/>
<path d="M291.85 454.127C290.971 455.877 290.649 457.948 290.944 459.959C292.438 465.954 292.461 470.945 288.386 475.963C286.672 478.162 285.358 480.763 284.528 483.602C283.698 486.441 283.37 489.456 283.564 492.456C283.624 493.278 283.448 494.101 283.066 494.788C281.413 497.501 282.409 499.4 283.519 502.112C285.964 508.08 288.273 514.21 284.854 521.236C282.403 525.278 280.881 530.02 280.44 534.988C280.532 540.224 278.99 545.312 276.115 549.256C274.077 551.657 272.871 554.894 272.742 558.316C272.957 559.795 272.761 561.317 272.184 562.65C271.608 563.983 270.682 565.052 269.55 565.694C268.509 565.142 267.424 564.715 266.313 564.419C263.212 564.334 260.123 563.944 257.076 563.253C249.424 560.54 245.756 552.755 241.772 545.323C241.047 543.967 241.5 541.715 241.387 539.084C240.934 538.786 239.893 537.999 238.783 537.375C238.114 537.119 237.497 536.697 236.972 536.138C236.447 535.578 236.026 534.892 235.736 534.126C235.446 533.359 235.293 532.528 235.288 531.686C235.282 530.844 235.424 530.01 235.705 529.238C236.044 527.827 236.61 526.525 236.882 525.006C237.063 524.192 237.153 522.917 236.882 522.511C234.324 519.798 231.539 517.085 229.026 514.373C227.396 512.528 225.245 510.467 224.838 508.107C224.438 504.487 224.591 500.811 225.29 497.257C225.607 494.843 226.943 492.618 227.305 490.204C227.668 487.79 226.241 484.508 228.596 482.067C228.89 481.768 228.732 480.331 228.392 479.761C224.589 473.441 221.6 466.008 216.62 461.234C210.122 454.941 206.907 446.695 203.33 438.422C202.599 435.913 202.172 433.291 202.063 430.637C206.998 432.156 211.367 433.621 215.805 434.76C216.279 434.785 216.75 434.672 217.18 434.431C217.61 434.19 217.985 433.828 218.272 433.376C218.997 431.885 218.906 429.687 219.767 428.412C221.397 426.025 223.547 424.208 225.336 421.984C226.333 420.824 227.106 419.417 227.6 417.861C229.071 412.436 232.422 408.231 232.943 402.128C233.26 398.385 236.157 395.021 237.47 391.278C239.266 386.673 240.854 381.955 242.225 377.145C243.221 373.592 244.873 373.89 247.228 374.65C248.954 375.347 250.799 375.515 252.593 375.138C256.113 373.928 259.574 372.489 262.962 370.825C266.018 369.442 268.441 371.042 268.712 374.731C268.916 377.444 269.867 378.827 271.995 376.956C274.123 375.084 278.312 376.088 279.081 371.314C279.081 371.151 279.896 371.313 280.258 371.069C283.473 369.415 287.865 371.531 289.654 367.435C288.793 364.342 288.069 361.738 287.254 358.89C288.744 358.495 290.258 358.25 291.782 358.158C295.676 358.32 299.592 358.483 303.464 359.107C306.222 359.547 308.922 360.403 311.501 361.657C315.621 363.691 319.583 365.482 323.273 361.928C324.767 364.393 326.552 366.586 328.571 368.438C329.74 369.133 330.721 370.21 331.402 371.544C332.083 372.878 332.436 374.415 332.419 375.979C332.419 380.943 334.683 382.679 337.921 383.9C338.754 384.176 339.487 384.778 340.003 385.609C341.928 389.379 343.875 393.204 345.527 397.137C346.705 399.849 348.833 402.318 346.682 406.36C345.596 409.373 345.515 412.771 346.456 415.853C347.428 419.894 347.713 424.129 347.293 428.304C347.293 429.199 346.501 430.067 345.957 430.854C345.414 431.64 344.735 431.993 344.305 432.725C342.519 436.281 340.545 439.697 338.396 442.952C335.928 445.769 333.319 448.405 330.585 450.845C329.873 451.59 328.995 452.07 328.059 452.229C327.122 452.388 326.168 452.218 325.31 451.74C322.497 451.097 319.64 450.77 316.776 450.764C315.674 450.701 314.582 450.501 313.515 450.167C311.344 449.066 309.122 448.115 306.86 447.319C304.596 446.722 301.494 445.013 300.453 449.109C299.502 452.798 297.759 452.663 295.291 452.391C294.645 452.352 294.001 452.488 293.405 452.789C292.809 453.089 292.278 453.547 291.85 454.127Z" fill="#EDF2F4"/>
<path d="M434.16 219.927C433.499 219.68 432.868 219.334 432.281 218.896L426.757 223.507L433.82 222.286L433.979 223.561L427.187 226.572V230.587L435.269 235.524L431.556 239.05C431.742 240.215 431.742 241.411 431.556 242.576C428.998 248.869 426.395 255.135 423.61 261.266C422.837 262.843 421.728 264.144 420.395 265.036C418.488 266.253 416.513 267.313 414.486 268.21C412.992 269.024 411.566 269.919 411.113 266.772C410.66 263.626 410.004 260.805 409.393 257.821C409.279 257.278 409.121 256.519 408.781 256.329C405.997 254.593 405.499 251.799 405.521 248.191C405.521 247.052 403.891 244.855 403.144 244.936C397.665 245.56 394.224 242.224 391.258 237.314C390.443 235.958 388.995 234.276 387.885 234.195C380.709 233.652 374.664 229.8 368.28 225.406L376.86 224.348L374.596 220.984L367.804 224.402C367.607 223.647 367.538 222.853 367.602 222.065C367.665 221.278 367.86 220.514 368.175 219.818C368.489 219.123 368.917 218.51 369.433 218.016C369.949 217.522 370.542 217.157 371.178 216.943C374.121 215.587 374.415 213.688 372.898 211.246H365.02L367.284 208.181L362.235 207.313L364.499 204.601C360.56 201.4 365.721 199.8 365.405 197.385L360.514 197.006C361.42 195.378 361.918 193.425 362.914 192.91C364.511 192.429 366.164 192.273 367.804 192.449C363.276 184.311 355.556 181.598 348.493 177.665C350.388 176.438 352.482 175.717 354.632 175.553C356.782 175.389 358.935 175.786 360.945 176.716C364.599 177.933 368.322 178.84 372.083 179.428C371.743 178.804 371.064 177.475 370.363 176.119C371.811 176.309 373.26 176.553 374.709 176.689C375.502 176.689 376.317 176.689 377.132 176.689L377.245 175.034L368.393 173.244C371.404 172.267 374.279 170.884 377.177 170.206C398.612 182.338 417.944 199.207 434.16 219.927Z" fill="#F5F5F5"/>
<path d="M458.089 257.631L459.153 259.828C458.452 260.099 457.727 260.398 456.89 260.75L458.089 257.631Z" fill="#D1D3D4"/>
<path d="M447.811 239.647H447.924C448.498 240.551 449.041 241.455 449.554 242.359L447.811 239.647Z" fill="#D1D3D4"/>
<path d="M454.807 256.437C454.542 254.896 454.613 253.299 455.011 251.799C455.803 253.237 456.55 254.674 457.275 256.139L454.807 256.437Z" fill="#D1D3D4"/>
<path d="M218.182 526.498C219.382 529.59 219.042 535.504 216.982 537.619C216.515 538.122 215.952 538.478 215.343 538.656C214.733 538.834 214.097 538.829 213.489 538.641C212.882 538.453 212.323 538.088 211.862 537.579C211.401 537.069 211.052 536.431 210.847 535.721C208.877 527.963 207.157 520.151 205.345 512.339C205.21 511.742 205.345 510.982 205.006 510.521C204.23 509.083 203.919 507.355 204.132 505.662C204.344 503.968 205.066 502.426 206.16 501.326C209.941 504.716 210.349 512.176 217.14 511.796C217.14 514.509 217.005 516.896 217.14 519.337C217.146 521.777 217.498 524.199 218.182 526.498Z" fill="#D1D3D4"/>
<path d="M308.988 278.111C308.671 277.107 307.879 275.669 308.173 275.235C308.665 274.686 309.293 274.343 309.961 274.259C312.587 269.892 314.897 266.121 317.342 262.079C315.349 257.848 315.417 256.275 318.089 254.186C319.719 252.911 323.454 254.701 325.152 257.604C325.945 258.933 324.813 261.428 321.87 264.765L322.277 267.288C321.711 267.288 321.281 267.288 321.055 267.505C320.013 268.454 318.451 269.268 318.134 270.543C317.817 271.817 318.791 273.255 320.398 272.469C320.819 272.833 321.123 273.36 321.258 273.96C321.328 275.578 321.328 277.198 321.258 278.816L318.428 279.819L323.432 284.404L309.848 281.827C309.509 279.847 309.237 278.897 308.988 278.111Z" fill="#F5F5F5"/>
<path d="M199.754 201.1C202.289 204.396 205.012 207.478 207.904 210.322C204.304 214.5 199.708 215.069 194.116 214.825C195.656 213.523 196.924 212.899 197.512 211.787C198.101 210.675 198.554 208.478 198.056 207.718C195.58 204.137 192.492 201.232 189 199.201C190.177 198.116 191.264 197.031 192.6 196C195.377 196.743 197.883 198.53 199.754 201.1Z" fill="#F5F5F5"/>
<path d="M363.91 256.465C362.58 256.858 361.189 256.858 359.858 256.465C357.763 255.808 355.789 254.686 354.04 253.155C352.727 251.853 349.738 250.795 351.165 247.73C352.56 245.577 354.207 243.677 356.055 242.088L356.326 243.417L366.605 246.374L369.117 242.359L368.71 243.688L373.238 246.808L372.762 247.513H367.94L372.31 250.226L367.465 251.907L369.91 254.077C367.85 255.027 365.903 255.949 363.91 256.465Z" fill="#F5F5F5"/>
<path d="M275.685 188.407C273.421 186.291 271.656 184.419 269.709 182.819C269.358 182.607 268.97 182.496 268.577 182.496C268.184 182.496 267.796 182.607 267.445 182.819C266.879 183.28 266.766 184.501 266.358 185.532H259.793L259.657 184.067L278.153 175.224L277.021 178.235L288.024 177.096L288.273 178.479C286.885 180.067 285.276 181.352 283.519 182.277C281.702 182.414 279.88 182.128 278.153 181.436L278.04 182.439L282.228 184.257L282.07 184.935L278.764 185.315L281.028 186.698L275.685 188.407Z" fill="#F5F5F5"/>
<path d="M324.586 270.76C323.001 269.62 322.752 268.047 324.314 267.098C325.876 266.148 327.688 264.385 329.476 267.098C330.45 268.427 331.604 269.539 332.94 271.031V277.405L334.027 278.056C333.438 278.626 332.714 279.819 332.283 279.684C329.824 278.966 327.439 277.92 325.175 276.564C324.609 276.185 325.039 273.689 324.948 272.197C324.926 271.546 324.835 270.76 324.586 270.76Z" fill="#F5F5F5"/>
<path d="M482.63 399.334C483.085 399.063 483.563 398.854 484.057 398.71C484.057 399.669 483.966 400.618 483.785 401.558C482.432 402.11 481.116 402.781 479.846 403.566C478.487 404.379 477.582 406.278 476.291 408.34L470.066 407.472C474.594 404.542 478.533 401.775 482.63 399.334Z" fill="#D1D3D4"/>
<path d="M458.135 413.005C457.863 409.37 463.319 407.065 468.209 408.665L465.606 412.246L470.745 411.703C466.715 415.067 462.346 412.598 458.135 413.005Z" fill="#D1D3D4"/>
<path d="M254.201 175.577H271.565C269.306 177.022 266.868 178.02 264.343 178.533C260.956 178.586 257.569 178.396 254.201 177.964V175.577Z" fill="#F5F5F5"/>
<path d="M138.56 447.753C137.586 447.292 136.296 445.04 136.499 444.227C137.45 441.643 138.602 439.173 139.941 436.849L140.982 437.391C140.982 439.887 140.982 442.382 140.982 444.851C140.982 447.319 140.507 448.621 138.56 447.753Z" fill="#D1D3D4"/>
<path d="M291.329 317.171L293.593 318.256V325.227C289.744 324.983 291.51 321.267 290.74 319.26C290.537 318.799 291.103 317.931 291.329 317.171Z" fill="#D1D3D4"/>
<path d="M278.855 328.51H284.99L285.171 329.351L279.557 333.446C279.308 331.602 279.059 329.947 278.855 328.51Z" fill="#D1D3D4"/>
<path d="M584.901 170.769L590.35 174.119L615.904 111.956L610.455 108.606L584.901 170.769Z" fill="#1DD2B9"/>
<path d="M590.245 175.615C590.077 175.656 589.903 175.656 589.735 175.615L584.301 172.251C584.169 172.173 584.052 172.064 583.955 171.931C583.859 171.797 583.784 171.641 583.737 171.472C583.69 171.303 583.67 171.125 583.679 170.947C583.688 170.768 583.726 170.594 583.79 170.434L609.364 108.127C609.426 107.967 609.513 107.824 609.621 107.707C609.728 107.59 609.855 107.5 609.992 107.445C610.129 107.389 610.273 107.368 610.417 107.382C610.561 107.397 610.701 107.447 610.828 107.53L616.218 110.894C616.35 110.971 616.467 111.081 616.563 111.215C616.659 111.349 616.732 111.506 616.778 111.676C616.823 111.845 616.84 112.024 616.828 112.202C616.816 112.38 616.774 112.553 616.706 112.711L591.221 174.883C591.087 175.202 590.856 175.445 590.578 175.561L590.245 175.615ZM586.275 170.19L589.757 172.333L614.311 112.657L610.828 110.514L586.275 170.19Z" fill="#1DD2B9"/>
<path d="M458.92 136.666C449.605 136.666 438.958 139.188 434.101 148.818C432.514 151.936 431.674 155.535 431.674 159.207C431.674 162.879 432.514 166.478 434.101 169.596C435.772 172.627 438.134 174.99 440.895 176.394C443.655 177.797 446.691 178.178 449.627 177.489C454.063 176.296 457.811 172.634 462.026 170.437C468.036 167.29 474.779 167.236 481.167 165.5C483.214 165.125 485.139 164.075 486.734 162.462C488.274 160.517 489.146 157.926 489.174 155.219C490.084 135.933 469.367 136.666 458.92 136.666Z" fill="#1DD2B9"/>
<path d="M567.768 195.887C568.412 193.473 581.52 173.997 582.008 169.766C582.496 165.534 579.568 148.065 582.496 145.651C585.424 143.237 590.814 159.567 590.814 159.567C590.814 159.567 602.281 134.042 605.541 135.696C608.802 137.351 607.759 151.483 605.941 160.109C604.122 168.735 583.317 211.078 583.317 211.078L567.768 195.887Z" fill="white"/>
<path d="M583.165 211.246C582.917 211.252 582.675 211.157 582.477 210.975L566.951 195.839C566.779 195.66 566.654 195.424 566.59 195.158C566.527 194.893 566.529 194.611 566.596 194.347C568.063 191.164 569.763 188.149 571.675 185.342C575.202 179.51 580.547 170.694 580.814 168.442C580.855 165.958 580.744 163.474 580.481 161.01C579.771 151.923 579.461 145.332 581.745 143.406C582.032 143.158 582.362 142.997 582.709 142.936C583.056 142.874 583.41 142.915 583.741 143.053C586.359 144.002 589.309 151.191 590.839 155.341C596.118 143.84 602.617 131.66 605.855 133.315C610.779 135.811 607.94 154.419 606.92 159.274C605.035 167.927 585.072 208.859 584.119 210.595C584.036 210.761 583.927 210.905 583.797 211.017C583.667 211.129 583.52 211.207 583.364 211.246H583.165ZM569.014 194.401L582.854 207.964C586.381 200.722 603.149 166.11 604.724 158.65C606.942 148.614 606.942 136.95 604.968 135.892C603.216 136.055 596.628 148.044 591.66 159.166C591.559 159.392 591.407 159.579 591.223 159.704C591.038 159.829 590.828 159.887 590.617 159.871C590.409 159.846 590.21 159.752 590.042 159.599C589.874 159.446 589.743 159.24 589.664 159.003C587.157 151.462 584.074 145.711 583.01 145.711C581.59 146.905 582.3 155.965 582.655 160.847C582.967 163.542 583.079 166.266 582.987 168.985C582.677 171.697 578.817 178.208 573.428 187.105C571.764 189.763 569.812 192.91 569.014 194.401Z" fill="#231F20"/>
<path d="M630.086 552.064C630.086 552.064 646.455 587.49 645.324 587.653C644.192 587.816 617.998 597.255 617.998 597.255C617.998 597.255 602.582 568.502 602.804 567.77C603.026 567.038 630.086 552.064 630.086 552.064Z" fill="white"/>
<path d="M617.998 598.611C617.815 598.612 617.635 598.554 617.476 598.445C617.317 598.336 617.183 598.178 617.088 597.988C601.34 568.665 601.562 568.15 601.762 567.309C601.961 566.468 602.139 566.061 629.642 550.844C629.893 550.699 630.181 550.677 630.445 550.783C630.709 550.889 630.93 551.114 631.062 551.413C647.165 586.297 646.588 587.463 646.344 588.222C646.253 588.431 646.123 588.611 645.965 588.747C645.808 588.884 645.626 588.974 645.435 589.009C644.37 589.199 628.622 594.841 618.33 598.557L617.998 598.611ZM604.224 568.312C605.954 572.11 613.428 586.242 618.485 595.655C624.541 593.485 639.557 588.087 643.993 586.649C642.44 582.092 634.81 565.084 629.62 553.827C620.681 558.764 607.484 566.197 604.224 568.312Z" fill="#231F20"/>
<path d="M645.324 587.653C645.324 587.653 689.684 584.696 691.902 594.353C694.12 604.009 628.622 628.639 628.622 628.639L617.975 597.255L645.324 587.653Z" fill="#231F20"/>
<path d="M628.644 629.968C628.428 629.969 628.216 629.893 628.034 629.748C627.853 629.604 627.71 629.397 627.624 629.155L616.977 597.798C616.911 597.623 616.877 597.434 616.877 597.242C616.877 597.05 616.911 596.86 616.977 596.686C617.043 596.514 617.138 596.362 617.257 596.24C617.376 596.118 617.515 596.03 617.665 595.98L644.969 586.378H645.213C652.776 585.89 690.594 583.882 692.922 594.054C695.251 604.226 644.525 624.136 628.932 629.996C628.836 630.006 628.738 629.997 628.644 629.968ZM619.506 598.123L629.287 626.985C659.985 615.348 692.035 599.859 690.86 594.705C689.485 588.792 663.556 587.788 645.501 588.982L619.506 598.123Z" fill="#231F20"/>
<path d="M537.128 558.602L525.838 573.9L505.344 547.534L521.802 526.431L537.128 558.602Z" fill="white"/>
<path d="M525.838 575.257C525.685 575.255 525.533 575.215 525.392 575.141C525.251 575.066 525.124 574.958 525.018 574.822L504.545 548.457C504.343 548.208 504.23 547.871 504.23 547.521C504.23 547.17 504.343 546.834 504.545 546.585L521.003 525.508C521.12 525.354 521.266 525.236 521.428 525.165C521.59 525.094 521.764 525.072 521.935 525.102C522.106 525.126 522.271 525.197 522.417 525.31C522.562 525.423 522.686 525.574 522.777 525.753L538.082 557.896C538.202 558.145 538.254 558.435 538.23 558.723C538.206 559.011 538.108 559.282 537.949 559.497L526.659 574.795C526.44 575.065 526.149 575.229 525.838 575.257ZM506.874 547.534L525.816 571.947L535.753 558.384L521.602 528.547L506.874 547.534Z" fill="#231F20"/>
<path d="M525.838 573.9C525.838 573.9 540.633 628.504 532.869 627.771C525.106 627.039 488.287 570.157 488.287 570.157L505.344 547.534L525.838 573.9Z" fill="#231F20"/>
<path d="M533.025 629.128H532.892C524.907 628.368 491.326 576.884 487.533 571.025C487.365 570.777 487.274 570.465 487.274 570.143C487.274 569.822 487.365 569.51 487.533 569.262L504.59 546.639C504.696 546.504 504.823 546.396 504.964 546.321C505.105 546.247 505.257 546.207 505.41 546.205C505.71 546.206 505.997 546.353 506.209 546.612L526.703 572.978C526.806 573.134 526.888 573.307 526.947 573.493C529.165 581.387 539.546 621.099 535.198 627.88C534.944 628.285 534.614 628.61 534.236 628.827C533.857 629.044 533.442 629.147 533.025 629.128ZM489.729 570.211C503.946 592.074 527.746 625.927 532.958 626.415C533.044 626.436 533.132 626.423 533.212 626.379C533.291 626.336 533.358 626.263 533.402 626.171C536.174 621.858 529.653 592.373 524.862 574.633L505.366 549.542L489.729 570.211Z" fill="#231F20"/>
<path d="M549.926 298.821C549.926 298.821 639.446 417.332 640.865 429.023C643.594 451.646 538.836 567.797 538.836 567.797L514.837 527.733L577.252 438.789L495.185 301.751L549.926 298.821Z" fill="#231F20"/>
<path d="M538.792 569.126H538.659C538.506 569.105 538.358 569.046 538.225 568.953C538.091 568.859 537.975 568.734 537.882 568.584L513.905 528.492C513.751 528.253 513.667 527.957 513.667 527.651C513.667 527.346 513.751 527.05 513.905 526.811L575.7 438.734L494.276 302.538C494.155 302.342 494.08 302.109 494.061 301.865C494.041 301.621 494.077 301.375 494.165 301.154C494.251 300.932 494.386 300.744 494.554 300.61C494.722 300.475 494.918 300.401 495.119 300.395L549.838 297.465C549.996 297.448 550.156 297.478 550.303 297.554C550.45 297.63 550.58 297.748 550.68 297.899C559.885 310.078 640.488 417.061 641.908 428.779C643.083 438.626 626.16 465.209 591.581 507.823C566.162 539.342 539.79 568.502 539.546 568.774C539.446 568.892 539.328 568.984 539.199 569.045C539.069 569.106 538.93 569.133 538.792 569.126ZM516.212 527.76L538.947 565.736C568.602 532.805 641.908 446.953 639.756 429.159C638.78 421.021 585.348 347.783 549.46 300.178L497.315 302.89L578.051 437.921C578.213 438.156 578.303 438.454 578.303 438.761C578.303 439.069 578.213 439.367 578.051 439.602L516.212 527.76Z" fill="#231F20"/>
<path d="M476.154 325.106L607.173 586.731L643.948 560.853L535.509 300.693L476.154 325.106Z" fill="#231F20"/>
<path d="M607.173 588.087C606.982 588.088 606.794 588.029 606.627 587.915C606.459 587.801 606.319 587.636 606.22 587.436L475.223 325.811C475.158 325.627 475.124 325.429 475.124 325.228C475.124 325.027 475.158 324.829 475.223 324.645C475.282 324.456 475.374 324.285 475.493 324.145C475.612 324.004 475.754 323.897 475.911 323.831L535.11 299.418C535.358 299.311 535.631 299.318 535.875 299.437C536.12 299.557 536.321 299.782 536.441 300.069L644.902 560.229C645.03 560.54 645.056 560.899 644.973 561.233C644.891 561.566 644.706 561.848 644.459 562.019L607.684 587.924C607.525 588.022 607.351 588.077 607.173 588.087ZM477.818 325.838L607.551 584.913L642.485 560.31L534.954 302.348L477.818 325.838Z" fill="#231F20"/>
<path d="M609.702 476.412C609.499 476.417 609.298 476.354 609.122 476.23C608.946 476.106 608.801 475.924 608.704 475.706L547.154 331.942C547.066 331.741 547.021 331.518 547.021 331.291C547.021 331.063 547.066 330.84 547.154 330.64L553.652 316.399C553.72 316.243 553.812 316.105 553.924 315.992C554.035 315.88 554.164 315.797 554.302 315.746C554.441 315.696 554.586 315.679 554.73 315.698C554.873 315.717 555.012 315.771 555.139 315.856C555.267 315.941 555.38 316.057 555.472 316.196C555.564 316.335 555.633 316.494 555.674 316.666C555.715 316.837 555.728 317.017 555.712 317.194C555.697 317.372 555.652 317.544 555.582 317.701L549.372 331.263L610.656 474.404C610.79 474.725 610.817 475.098 610.729 475.442C610.642 475.787 610.449 476.076 610.19 476.249C610.038 476.341 609.872 476.397 609.702 476.412Z" fill="white"/>
<path d="M484.095 135.635C478.373 134.36 472.694 132.787 467.105 130.888C463.024 129.505 458.654 127.66 456.436 123.266C460.096 121.204 461.671 116.05 462.913 111.385L471.231 79.8379C473.165 71.0128 476.155 62.5854 480.103 54.8283C483.075 49.566 495.828 34.0502 500.553 43.7069C505.921 38.6344 517.255 34.9453 523.62 38.77C527.246 41.1033 530.411 44.3748 532.897 48.3567C535.383 52.3386 537.13 56.9352 538.015 61.8266C539.089 69.9568 538.764 78.2715 537.062 86.2395C536.854 87.8744 536.435 89.4585 535.82 90.9322C534.688 92.8672 533.247 94.5007 531.583 95.7334C519.947 106.065 510.57 119.741 504.279 135.554C504.004 136.677 503.405 137.641 502.593 138.266C501.954 138.546 501.265 138.611 500.597 138.456C495.185 137.751 489.596 136.828 484.095 135.635Z" fill="#2B4C8D"/>
<path d="M501.418 139.785C501.085 139.785 500.775 139.785 500.486 139.785C494.963 139.161 489.396 138.239 483.962 137.073C478.217 135.825 472.45 134.197 466.839 132.298C462.403 130.779 457.967 128.745 455.549 124.161C455.462 123.999 455.405 123.815 455.382 123.623C455.359 123.431 455.37 123.235 455.416 123.049C455.464 122.866 455.542 122.697 455.644 122.553C455.747 122.408 455.873 122.291 456.015 122.208C459.209 120.418 460.673 115.752 461.893 111.141L470.232 79.6209C472.203 70.6513 475.261 62.0933 479.304 54.2315C481.788 49.8372 490.217 39.4482 496.383 39.4482H496.627C497.448 39.4742 498.255 39.7153 498.993 40.1551C499.732 40.595 500.385 41.2234 500.908 41.9979C506.564 37.3595 517.454 33.6976 524.219 37.7393C527.994 40.1688 531.291 43.5748 533.88 47.7206C536.47 51.8663 538.289 56.6522 539.213 61.7453C540.333 70.0713 540.008 78.5925 538.259 86.7549C538.035 88.5361 537.57 90.2594 536.884 91.8545C535.769 93.8671 534.317 95.5681 532.626 96.8455L532.337 97.0897C520.813 107.25 511.518 120.732 505.277 136.34C504.882 137.709 504.094 138.856 503.059 139.568C502.533 139.795 501.971 139.87 501.418 139.785ZM458.1 123.7C460.68 126.728 463.924 128.773 467.438 129.586C472.983 131.458 478.683 133.058 484.339 134.306C489.729 135.499 495.229 136.394 500.686 137.018C501.16 137.158 501.654 137.158 502.128 137.018C502.616 136.747 502.97 135.852 503.281 135.065C509.683 119.053 519.223 105.225 531.051 94.8111L531.317 94.567C532.757 93.4946 534.003 92.073 534.977 90.3897C535.527 89.05 535.901 87.6129 536.086 86.131C537.765 78.3341 538.09 70.1934 537.039 62.2335C536.198 57.5374 534.527 53.1231 532.144 49.2997C529.761 45.4762 526.723 42.3361 523.243 40.0992C517.521 36.6814 506.586 39.9093 501.329 44.8732C501.21 44.994 501.071 45.081 500.922 45.1279C500.772 45.1748 500.616 45.1805 500.464 45.1445C500.287 45.1204 500.118 45.0435 499.971 44.9205C499.824 44.7975 499.704 44.6322 499.621 44.4392C499.322 43.7205 498.869 43.1142 498.31 42.6844C497.752 42.2547 497.109 42.0175 496.449 41.9979H496.294C491.082 41.9979 483.186 51.8173 481.034 55.5606C477.099 63.2096 474.109 71.5274 472.162 80.2448L463.822 111.765C462.824 116.24 461.316 121.123 458.1 123.7Z" fill="#231F20"/>
<path d="M537.328 97.9848C537.328 97.9848 544.248 116.62 541.897 119.685C539.546 122.75 533.602 119.278 533.602 119.278" fill="white"/>
<path d="M539.014 122.398C536.973 122.271 534.974 121.644 533.136 120.553C532.875 120.39 532.676 120.109 532.581 119.77C532.485 119.431 532.502 119.061 532.626 118.736C532.689 118.575 532.779 118.432 532.888 118.313C532.997 118.195 533.125 118.104 533.263 118.046C533.401 117.989 533.547 117.964 533.693 117.976C533.838 117.987 533.981 118.033 534.112 118.112C535.465 118.926 539.657 120.824 541.098 118.817C542.097 117.515 539.856 107.967 536.33 98.5545C536.21 98.227 536.201 97.8548 536.305 97.5193C536.408 97.1837 536.617 96.9122 536.884 96.7642C537.016 96.6877 537.16 96.6447 537.306 96.6375C537.452 96.6304 537.597 96.6594 537.734 96.7227C537.871 96.786 537.996 96.8823 538.101 97.006C538.207 97.1296 538.291 97.278 538.348 97.4423C540.566 103.274 545.313 117.244 542.784 120.662C542.295 121.266 541.704 121.733 541.054 122.033C540.403 122.332 539.707 122.457 539.014 122.398Z" fill="#231F20"/>
<path d="M538.304 75.3622C543.339 82.2792 540.078 94.1601 538.991 102.108C537.513 113.284 535.775 124.414 533.779 135.499C532.559 142.525 517.521 139.758 515.147 137.127L513.484 160.862C513.484 160.862 508.272 173.122 497.048 163.9C485.825 154.677 484.228 144.803 484.228 144.803L489.418 112.524C489.418 112.524 499.333 114.531 507.163 101.213C514.992 87.8942 517.565 65.6513 517.565 65.6513C517.565 65.6513 533.38 68.608 538.304 75.3622Z" fill="white"/>
<path d="M504.9 168.701C501.841 168.54 498.89 167.264 496.427 165.039C484.96 155.626 483.119 145.373 483.119 144.939C483.075 144.762 483.075 144.573 483.119 144.396L488.332 112.253C488.395 111.913 488.56 111.614 488.793 111.413C489.027 111.213 489.313 111.125 489.596 111.168C489.973 111.168 498.956 112.822 506.187 100.318C513.684 87.433 516.345 65.5699 516.367 65.3529C516.387 65.1743 516.436 65.0025 516.512 64.8485C516.589 64.6944 516.69 64.5614 516.811 64.4578C516.927 64.3488 517.058 64.2687 517.199 64.2222C517.34 64.1757 517.487 64.1635 517.632 64.1866C518.297 64.1866 534.001 67.306 539.124 74.3315C543.694 80.5974 542.052 90.227 540.766 97.9577C540.5 99.4767 540.256 100.914 540.078 102.216C538.57 113.365 536.818 124.595 534.866 135.662C534.615 136.825 534.105 137.88 533.392 138.709C532.679 139.538 531.792 140.108 530.829 140.355C525.933 141.732 520.816 141.336 516.101 139.215L514.593 160.916C514.569 161.094 514.524 161.268 514.46 161.431C512.934 164.743 510.411 167.195 507.429 168.267C506.603 168.535 505.754 168.68 504.9 168.701ZM485.359 144.641C485.692 146.16 487.954 154.813 497.669 162.787C498.947 164.043 500.429 164.952 502.016 165.452C503.603 165.953 505.259 166.034 506.874 165.69C509.187 164.839 511.157 162.962 512.397 160.428L514.039 137.018C514.057 136.768 514.131 136.529 514.254 136.327C514.377 136.126 514.543 135.97 514.734 135.877C514.924 135.784 515.133 135.758 515.335 135.802C515.537 135.845 515.726 135.956 515.879 136.123C517.188 137.561 525.439 139.731 530.141 137.886C531.628 137.29 532.493 136.394 532.692 135.174C534.622 124.134 536.374 112.931 537.882 101.837C538.082 100.48 538.326 99.1241 538.592 97.4694C539.79 90.3355 541.298 81.4383 537.461 76.2031C533.579 70.778 521.935 68.0655 518.386 67.1704C517.676 72.2699 514.77 90.2812 507.983 101.945C501.196 113.609 493.233 114.07 490.239 113.907L485.359 144.641Z" fill="#231F20"/>
<path d="M534.644 127.118C534.644 127.118 526.859 131.078 524.241 121.367L534.644 127.118Z" fill="white"/>
<path d="M531.117 129.26C529.296 129.325 527.513 128.617 526.07 127.258C524.627 125.898 523.613 123.971 523.199 121.801C523.147 121.63 523.125 121.448 523.132 121.266C523.139 121.083 523.177 120.905 523.242 120.741C523.307 120.577 523.398 120.43 523.51 120.31C523.623 120.19 523.754 120.099 523.896 120.043C524.037 119.986 524.187 119.965 524.336 119.981C524.484 119.997 524.629 120.049 524.76 120.135C524.892 120.22 525.008 120.338 525.102 120.479C525.196 120.621 525.265 120.785 525.306 120.96C525.536 121.987 525.934 122.947 526.475 123.782C527.016 124.616 527.69 125.308 528.456 125.816C530.294 126.656 532.318 126.656 534.156 125.816C534.42 125.717 534.704 125.743 534.953 125.887C535.202 126.031 535.399 126.284 535.504 126.595C535.609 126.907 535.616 127.255 535.523 127.572C535.429 127.89 535.242 128.153 534.999 128.311C533.762 128.91 532.447 129.231 531.117 129.26Z" fill="#231F20"/>
<path d="M518.874 101.755C518.986 98.9154 518.441 96.0944 517.299 93.6176C516.672 91.5347 515.781 89.5851 514.659 87.8399C514.084 86.9963 513.366 86.3165 512.554 85.8479C511.741 85.3794 510.855 85.1335 509.957 85.1274C509.166 85.2079 508.398 85.491 507.703 85.9583C507.007 86.4257 506.4 87.0668 505.92 87.8399C504.967 89.4493 504.329 91.3057 504.057 93.265C503.366 97.4439 503.582 101.771 504.683 105.816C505.785 109.861 507.733 113.483 510.334 116.322L509.935 115.562" fill="white"/>
<path d="M510.334 117.678C510.073 117.677 509.821 117.562 509.625 117.352C506.865 114.351 504.798 110.517 503.631 106.233C502.463 101.949 502.235 97.365 502.97 92.9395C503.288 90.8166 504.002 88.8117 505.055 87.0804C505.624 86.138 506.353 85.3569 507.191 84.7905C508.029 84.224 508.958 83.8856 509.913 83.7982C510.981 83.7933 512.037 84.0835 513.001 84.6471C513.965 85.2107 514.812 86.0332 515.48 87.0533C516.675 88.8792 517.633 90.9195 518.319 93.1023C519.546 95.8272 520.115 98.9218 519.961 102.027C519.917 102.377 519.762 102.693 519.53 102.906C519.297 103.119 519.006 103.212 518.718 103.166C518.573 103.146 518.433 103.09 518.305 103.002C518.178 102.915 518.066 102.796 517.977 102.654C517.888 102.513 517.824 102.35 517.787 102.177C517.75 102.004 517.743 101.824 517.765 101.647C517.855 99.0506 517.348 96.4756 516.301 94.2144C515.692 92.2683 514.855 90.4408 513.817 88.7893C513.353 88.0981 512.776 87.5334 512.122 87.1316C511.469 86.7298 510.754 86.4998 510.024 86.4565C509.386 86.5375 508.769 86.7794 508.212 87.1669C507.654 87.5545 507.169 88.0792 506.785 88.7079C505.96 90.1438 505.4 91.7821 505.144 93.5091C504.532 97.1909 504.668 101 505.537 104.603C506.407 108.206 507.986 111.494 510.135 114.179C510.279 114.206 510.418 114.271 510.54 114.369C510.663 114.467 510.766 114.597 510.844 114.748L511.266 115.508C511.379 115.713 511.445 115.952 511.455 116.199C511.465 116.447 511.42 116.692 511.324 116.91C511.228 117.128 511.085 117.31 510.91 117.436C510.736 117.562 510.537 117.626 510.334 117.624V117.678Z" fill="#231F20"/>
<path d="M515.147 137.127C515.147 137.127 507.739 132.651 504.967 125.436C504.967 125.436 503.259 142.552 514.549 149.849L515.147 137.127Z" fill="#231F20"/>
<path d="M514.549 151.178C514.37 151.176 514.195 151.12 514.039 151.015C502.216 143.42 503.836 125.436 503.858 125.273C503.891 124.98 503.999 124.706 504.166 124.492C504.333 124.278 504.551 124.134 504.789 124.079C505.026 124.038 505.267 124.089 505.478 124.226C505.689 124.362 505.86 124.577 505.965 124.839C508.538 131.566 515.569 135.879 515.635 135.906C515.831 136.026 515.994 136.214 516.104 136.445C516.214 136.676 516.267 136.941 516.257 137.208L515.658 149.903C515.647 150.126 515.591 150.343 515.494 150.532C515.397 150.722 515.263 150.879 515.103 150.988C514.938 151.116 514.745 151.182 514.549 151.178ZM506.054 130.047C506.142 133.463 506.862 136.809 508.161 139.835C509.459 142.861 511.302 145.487 513.551 147.516L513.994 137.913C510.982 135.897 508.292 133.232 506.054 130.047Z" fill="#231F20"/>
<path d="M477.663 138.347C477.663 138.347 508.338 142.823 519.517 164.144C530.696 185.464 536.108 263.694 541.764 269.58C547.42 275.466 563.013 305.386 562.769 306.796C562.525 308.207 472.606 334.681 472.606 334.681C472.606 334.681 468.902 309.4 461.094 276.389C453.287 243.377 451.889 138.375 477.663 138.347Z" fill="#1DD2B9"/>
<path d="M512.619 368.425C512.414 368.419 512.214 368.344 512.042 368.208C511.917 368.119 511.808 368 511.721 367.858C511.634 367.716 511.571 367.555 511.536 367.383C511.501 367.211 511.494 367.032 511.516 366.857C511.539 366.682 511.589 366.514 511.665 366.364C521.957 345.369 514.593 336.282 514.282 335.902C514.178 335.776 514.096 335.626 514.04 335.46C513.983 335.295 513.954 335.118 513.954 334.939C513.954 334.76 513.983 334.583 514.04 334.417C514.096 334.252 514.178 334.102 514.282 333.976C514.384 333.85 514.504 333.749 514.638 333.681C514.771 333.612 514.914 333.577 515.059 333.577C515.203 333.577 515.346 333.612 515.48 333.681C515.613 333.749 515.734 333.85 515.835 333.976C516.212 334.41 524.885 344.826 513.617 367.801C513.509 368.002 513.361 368.166 513.186 368.275C513.01 368.384 512.815 368.436 512.619 368.425Z" fill="white"/>
<path d="M490.102 171.958C490.745 173.097 521.532 244.058 521.532 244.058L562.188 187.094L583.526 208.794C583.526 208.794 547.15 283.172 523.949 290.361C500.749 297.549 454.148 193.794 455.523 182.944C456.898 172.094 480.986 155.954 490.102 171.958Z" fill="#1DD2B9"/>
<path d="M534.32 89.7203C534.903 87.6051 534.82 85.6614 534.136 85.3791C533.451 85.0967 532.423 86.5826 531.84 88.6978C531.257 90.813 531.339 92.7566 532.024 93.0389C532.709 93.3213 533.737 91.8355 534.32 89.7203Z" fill="#231F20"/>
<path d="M531.988 231.77H531.877C531.696 231.75 531.523 231.675 531.371 231.552C531.22 231.429 531.097 231.261 531.012 231.065L503.132 166.994C503.062 166.836 503.019 166.663 503.005 166.484C502.991 166.305 503.006 166.125 503.049 165.953C503.093 165.782 503.163 165.622 503.258 165.484C503.352 165.346 503.467 165.233 503.598 165.15C503.857 164.987 504.158 164.955 504.436 165.062C504.714 165.169 504.947 165.405 505.084 165.72C505.416 166.452 527.796 217.855 532.21 228.108L549.089 204.509C549.192 204.382 549.315 204.281 549.45 204.212C549.585 204.143 549.73 204.108 549.877 204.108C550.023 204.108 550.168 204.143 550.303 204.212C550.438 204.281 550.561 204.382 550.664 204.509C550.77 204.631 550.855 204.778 550.913 204.941C550.97 205.104 551 205.28 551 205.458C551 205.636 550.97 205.812 550.913 205.976C550.855 206.139 550.77 206.286 550.664 206.408L532.831 231.363C532.721 231.498 532.59 231.604 532.444 231.674C532.299 231.744 532.144 231.777 531.988 231.77Z" fill="#231F20"/>
<path d="M456.049 178.16C455.832 178.212 455.601 178.179 455.389 178.067C455.176 177.954 454.993 177.767 454.865 177.532C454.777 177.38 454.714 177.211 454.678 177.035C454.643 176.859 454.637 176.679 454.66 176.506C454.683 176.333 454.735 176.17 454.813 176.027C454.891 175.884 454.993 175.763 455.114 175.672C455.742 175.227 470.616 164.195 482.266 162.847C482.412 162.829 482.561 162.846 482.706 162.897C482.85 162.948 482.988 163.033 483.11 163.145C483.231 163.258 483.336 163.396 483.416 163.553C483.496 163.709 483.552 163.881 483.578 164.058C483.606 164.234 483.604 164.413 483.574 164.582C483.543 164.752 483.484 164.91 483.401 165.048C483.317 165.185 483.21 165.299 483.086 165.382C482.962 165.466 482.823 165.517 482.677 165.534C471.596 166.785 456.555 177.881 456.421 177.994C456.307 178.074 456.181 178.13 456.049 178.16Z" fill="#231F20"/>
<path d="M525.759 286.062C510.632 286.062 495.173 269.597 479.757 236.993C479.644 236.687 479.628 236.34 479.712 236.02C479.795 235.701 479.973 235.43 480.211 235.261C480.448 235.093 480.728 235.038 480.997 235.107C481.265 235.176 481.503 235.365 481.665 235.636C497.79 269.706 513.671 285.656 528.953 283.079C544.235 280.502 561.137 245.103 561.314 244.642C561.387 244.485 561.485 244.348 561.602 244.239C561.718 244.129 561.852 244.048 561.994 244.002C562.136 243.956 562.285 243.945 562.431 243.97C562.577 243.995 562.717 244.055 562.844 244.147C562.97 244.239 563.081 244.36 563.168 244.505C563.256 244.65 563.32 244.814 563.355 244.989C563.39 245.164 563.396 245.346 563.373 245.524C563.351 245.701 563.299 245.872 563.222 246.025C562.512 247.517 545.478 283.024 529.264 285.764C528.103 285.971 526.932 286.071 525.759 286.062Z" fill="#231F20"/>
<path d="M161.244 381.974C159.37 382.639 157.465 383.174 155.539 383.574C130.432 388.999 102.337 387.779 82.256 368.899L85.1991 355.689L76.6415 364.695L65.0955 352.38C84.7916 333.636 87.3499 304.042 100.277 280.172C110.804 260.723 134.553 259.286 151.011 267.613C162.489 273.494 171.679 284.369 176.729 298.048C182.299 313.401 182.118 330.815 180.986 347.497C179.695 366.241 174.918 376.928 161.244 381.974Z" fill="#2B4C8D"/>
<path d="M130.613 387.67C113.928 387.67 95.9981 383.439 81.5769 369.849C81.4013 369.687 81.2691 369.467 81.1967 369.217C81.1242 368.966 81.1148 368.695 81.1694 368.438L83.1617 359.541L77.3887 365.699C77.1844 365.922 76.918 366.045 76.6416 366.045C76.3652 366.045 76.0988 365.922 75.8945 365.699L64.3485 353.411C64.2221 353.28 64.1219 353.118 64.0552 352.934C63.9886 352.751 63.9573 352.553 63.9636 352.353C63.9627 352.153 64.0012 351.955 64.0759 351.776C64.1507 351.597 64.2595 351.441 64.3938 351.322C76.551 339.74 81.9618 324.197 87.7121 307.759C90.8706 297.923 94.7574 288.445 99.326 279.44C107.454 264.412 128.485 254.701 151.396 266.365C163.161 272.398 172.567 283.571 177.703 297.614C183.431 313.401 183.182 331.032 182.05 347.714C180.646 368.465 174.896 378.447 161.539 383.276C159.618 383.947 157.668 384.49 155.698 384.903C147.422 386.722 139.027 387.648 130.613 387.67ZM83.5465 368.411C105.031 388.077 134.394 386.829 155.335 382.272C157.221 381.868 159.088 381.342 160.927 380.699C173.22 376.25 178.518 366.946 179.831 347.525C180.94 331.249 181.212 313.97 175.688 298.699C170.777 285.291 161.793 274.624 150.559 268.861C134.055 260.506 111.076 262.703 101.228 280.905C96.7401 289.76 92.9142 299.073 89.795 308.735C84.3615 324.332 78.7244 340.445 66.8388 352.38L76.6416 362.823L84.4521 354.686C84.634 354.482 84.8669 354.356 85.1147 354.327C85.3625 354.298 85.6114 354.367 85.8228 354.525C86.0342 354.682 86.1964 354.919 86.2842 355.198C86.372 355.477 86.3806 355.783 86.3085 356.069L83.5465 368.411Z" fill="#231F20"/>
<path d="M59.1414 577.575C55.9493 577.575 32.1781 580.667 21.0396 587.313C9.90116 593.959 7.45613 594.447 9.72005 603.399C11.984 612.35 31.5669 614.547 46.4861 611.156C56.1018 608.805 65.3772 604.775 74.0154 599.194L59.1414 577.575Z" fill="white"/>
<path d="M32.6762 613.896C21.5378 613.896 10.603 611.048 8.76923 603.751C6.50531 594.529 9.13146 592.901 18.0739 587.693L20.5869 586.201C31.9065 579.447 55.7229 576.219 59.0735 576.355C59.2239 576.354 59.3726 576.393 59.5094 576.468C59.6462 576.542 59.7678 576.652 59.8659 576.789L74.7625 598.489C74.8556 598.628 74.9221 598.79 74.9574 598.964C74.9926 599.137 74.9956 599.318 74.9663 599.493C74.9443 599.67 74.8877 599.838 74.8012 599.984C74.7146 600.13 74.6006 600.25 74.4682 600.333C65.741 605.99 56.3658 610.076 46.6446 612.458C42.0351 613.45 37.3593 613.931 32.6762 613.896ZM58.666 578.823C54.1382 578.986 31.9291 582.214 21.5151 588.425L18.9795 589.917C10.0823 595.152 8.92771 595.831 10.7388 603.046C12.7537 611.021 31.5216 613.299 46.3503 609.963C55.4404 607.714 64.2254 603.962 72.4533 598.814L58.666 578.823Z" fill="#231F20"/>
<path d="M55.9493 577.521C53.8583 578.136 52.0375 579.672 50.85 581.824C49.6625 583.976 49.1956 586.585 49.5424 589.131C50.5838 598.625 67.3368 599.031 68.3103 599.059C69.2838 599.086 55.9493 577.521 55.9493 577.521Z" fill="white"/>
<path d="M68.2878 600.279C65.1636 600.279 49.6105 599.357 48.5011 589.429C48.1416 586.575 48.6822 583.663 50.0174 581.261C51.3526 578.859 53.3867 577.139 55.723 576.436C55.9186 576.385 56.1222 576.401 56.3105 576.483C56.4987 576.565 56.6639 576.708 56.7871 576.897C69.9178 598.191 69.6235 598.896 69.2613 599.737C69.1506 599.918 69.0032 600.064 68.833 600.158C68.6627 600.253 68.4751 600.295 68.2878 600.279ZM55.5646 578.959C53.8587 579.615 52.4104 580.993 51.4898 582.834C50.5692 584.676 50.2391 586.856 50.5613 588.968C51.3084 595.858 62.3337 597.377 66.6351 597.729C64.8693 594.339 60.0924 586.31 55.5646 578.959Z" fill="#231F20"/>
<path d="M180.171 599.248C180.669 599.547 185.219 606.654 205.074 609.502C224.928 612.35 232.241 617.45 236.769 604.945C241.296 592.44 238.15 584.384 228.369 580.803C218.589 577.223 191.603 574.266 186.306 580.234C181.008 586.201 180.171 599.248 180.171 599.248Z" fill="white"/>
<path d="M227.011 614.222C223.362 614.026 219.73 613.51 216.144 612.676C212.907 612.052 209.217 611.319 204.961 610.722C196.652 609.529 185.559 606.789 179.763 600.469L179.582 600.279C179.419 600.174 179.287 600.01 179.206 599.811C179.124 599.611 179.098 599.386 179.129 599.167C179.129 598.597 180.057 585.604 185.581 579.338C191.445 572.72 219.155 576.138 228.596 579.61C230.707 580.166 232.694 581.258 234.424 582.811C236.154 584.365 237.587 586.344 238.625 588.615C240.368 593.064 240.029 598.733 237.652 605.433C235.274 612.133 232.06 614.222 227.011 614.222ZM181.257 598.733C186.668 604.538 197.263 607.115 205.21 608.254C209.511 608.878 213.201 609.61 216.529 610.234C228.302 612.513 232.716 613.381 235.863 604.457C237.991 598.435 238.331 593.444 236.859 589.673C235.941 587.723 234.687 586.03 233.18 584.707C231.673 583.383 229.949 582.459 228.12 581.997C218.182 578.362 191.898 575.812 187.076 581.156C182.684 586.011 181.484 596.265 181.257 598.733Z" fill="#231F20"/>
<path d="M173.831 594.149C173.831 594.149 182.887 603.154 188.841 602.097C194.795 601.039 203.172 597.133 199.821 589.32C196.471 581.508 174.918 576.897 174.918 576.897L173.831 594.149Z" fill="white"/>
<path d="M187.845 603.426C181.574 603.426 173.515 595.451 173.152 595.098C173.027 594.968 172.93 594.804 172.867 594.621C172.804 594.437 172.778 594.238 172.79 594.04L173.922 576.789C173.931 576.62 173.97 576.455 174.037 576.305C174.103 576.155 174.195 576.024 174.307 575.921C174.423 575.817 174.554 575.742 174.694 575.7C174.834 575.658 174.979 575.65 175.122 575.676C177.386 576.165 197.263 580.64 200.727 588.751C201.263 589.82 201.567 591.034 201.61 592.28C201.654 593.526 201.436 594.766 200.976 595.885C198.712 601.31 191.241 602.938 189 603.317C188.618 603.394 188.232 603.43 187.845 603.426ZM174.896 593.552C176.684 595.234 183.951 601.69 188.706 600.849C192.599 600.144 197.761 598.136 199.142 594.719C199.446 593.95 199.582 593.101 199.538 592.252C199.495 591.404 199.273 590.582 198.893 589.863C196.493 584.275 182.412 579.881 175.892 578.335L174.896 593.552Z" fill="#231F20"/>
<path d="M65.571 518.415C65.571 518.415 75.0568 562.846 109.74 571.336C144.423 579.827 162.354 577.548 174.647 549.5C186.94 521.453 178.79 504.309 178.79 504.309L69.3517 501.597L65.571 518.415Z" fill="#231F20"/>
<path d="M138.379 577.033C128.66 576.703 118.992 575.231 109.514 572.638C74.5362 564.094 64.5523 519.201 64.4617 518.767C64.4164 518.535 64.4164 518.294 64.4617 518.062L68.2651 501.353C68.3269 501.059 68.4706 500.799 68.6723 500.617C68.874 500.434 69.1218 500.34 69.3744 500.349L178.812 503.062C179.01 503.063 179.204 503.126 179.374 503.245C179.545 503.364 179.687 503.535 179.786 503.74C180.125 504.472 188.072 521.887 175.643 550.26C166.949 569.98 155.313 577.033 138.379 577.033ZM66.7257 518.415C67.6992 522.483 78.0453 562.168 109.967 569.953C143.269 578.091 161.29 577.033 173.651 548.849C184.133 524.898 179.333 509.002 178.178 505.611L70.3253 503.089L66.7257 518.415Z" fill="#231F20"/>
<path d="M187.053 518.822C187.053 518.822 204.983 449.408 202.629 405.871C200.274 362.335 176.571 359.161 168.353 358.348C160.135 357.534 116.623 349.532 100.3 372.534C83.9768 395.537 55.2703 503.252 55.2703 503.252L187.053 518.822Z" fill="#1DD2B9"/>
<path d="M122.395 358.456L125.225 381.703C127.152 385.193 130.075 387.722 133.447 388.816C136.818 389.91 140.407 389.493 143.54 387.643C155.766 381.54 155.992 370.337 155.992 370.337L150.196 327.425C141.05 316.266 134.67 302.283 131.768 287.035C131.768 287.035 120.969 309.603 105.325 314.676C105.892 324.905 107.18 335.059 109.174 345.029C111.891 356.34 122.078 358.32 122.395 358.456Z" fill="white"/>
<path d="M136.794 390.708C134.284 390.639 131.825 389.849 129.623 388.404C127.421 386.96 125.54 384.904 124.139 382.408C124.053 382.253 123.999 382.077 123.98 381.892L121.264 359.568C118.224 358.819 115.404 357.119 113.09 354.642C110.776 352.164 109.05 348.998 108.087 345.463C106.061 335.398 104.758 325.143 104.194 314.811C104.18 314.501 104.255 314.194 104.408 313.942C104.56 313.69 104.78 313.508 105.031 313.428C120.041 308.572 130.681 286.655 130.795 286.302C130.907 286.067 131.076 285.877 131.279 285.757C131.483 285.638 131.711 285.594 131.936 285.632C132.16 285.67 132.37 285.788 132.538 285.97C132.706 286.153 132.824 286.391 132.877 286.655C135.727 301.583 141.936 315.289 150.83 326.285C151.02 326.504 151.147 326.789 151.193 327.099L156.988 370.012C156.988 370.771 156.626 382.435 143.857 388.782C141.634 389.983 139.232 390.638 136.794 390.708ZM126.176 381.214C127.982 384.37 130.684 386.632 133.778 387.58C136.872 388.528 140.148 388.098 142.997 386.368C154.317 380.699 154.747 370.418 154.747 370.31L149.019 328.076C140.562 317.562 134.512 304.613 131.451 290.48C128.101 296.583 118.977 311.177 106.548 315.734C107.111 325.508 108.361 335.208 110.283 344.731C112.298 353.058 118.705 356.042 122.328 357.073C122.516 357.117 122.698 357.19 122.871 357.29C123.017 357.393 123.141 357.535 123.235 357.704C123.329 357.873 123.39 358.065 123.414 358.266L126.176 381.214Z" fill="#231F20"/>
<path d="M142.522 328.076C142.678 325.896 143.425 323.839 144.65 322.217C145.843 320.776 147.228 319.585 148.748 318.69C149.539 318.107 150.428 317.736 151.351 317.605C152.004 317.609 152.65 317.765 153.253 318.066C154.731 318.605 156 319.76 156.83 321.321C157.355 322.679 157.603 324.166 157.554 325.661C157.626 327.274 157.504 328.891 157.192 330.463C156.862 332.03 156.276 333.504 155.468 334.798C154.659 336.092 153.644 337.18 152.482 338C151.319 338.821 150.032 339.356 148.695 339.575C147.359 339.795 145.999 339.694 144.695 339.278" fill="white"/>
<path d="M147.299 341.042C146.32 341.037 145.346 340.882 144.401 340.58C144.113 340.485 143.869 340.258 143.721 339.948C143.572 339.638 143.532 339.271 143.608 338.926C143.642 338.751 143.705 338.587 143.795 338.443C143.884 338.3 143.997 338.18 144.126 338.09C144.256 338.001 144.399 337.945 144.548 337.926C144.696 337.906 144.847 337.923 144.989 337.976C147.335 338.682 149.817 338.273 151.917 336.837C153.99 335.345 155.493 332.94 156.105 330.137C156.376 328.678 156.49 327.183 156.445 325.689C156.492 324.418 156.282 323.152 155.834 322C155.145 320.703 154.094 319.741 152.868 319.287C152.402 319.048 151.903 318.919 151.396 318.907C150.647 319.028 149.928 319.343 149.291 319.829C147.881 320.654 146.596 321.754 145.487 323.085C144.437 324.485 143.794 326.255 143.654 328.13C143.62 328.485 143.474 328.811 143.248 329.042C143.021 329.274 142.729 329.394 142.431 329.378C142.133 329.343 141.857 329.171 141.663 328.898C141.469 328.624 141.371 328.271 141.39 327.913C141.571 325.441 142.422 323.107 143.812 321.267C145.082 319.699 146.567 318.405 148.204 317.442C149.144 316.747 150.206 316.32 151.306 316.195C152.083 316.198 152.851 316.382 153.57 316.737C155.311 317.381 156.799 318.759 157.758 320.616C158.371 322.166 158.673 323.866 158.641 325.58C158.687 327.312 158.55 329.043 158.233 330.734C157.617 333.669 156.199 336.272 154.205 338.13C152.212 339.988 149.756 340.994 147.231 340.987L147.299 341.042Z" fill="#231F20"/>
<path d="M125.022 321.43C125.022 321.43 119.543 334.396 121.331 336.24C123.12 338.085 127.444 336.051 127.444 336.051" fill="white"/>
<path d="M123.595 338.356C122.523 338.43 121.464 338.046 120.607 337.271C118.547 335.155 121.331 327.18 124.003 320.833C124.138 320.514 124.374 320.272 124.658 320.16C124.943 320.048 125.252 320.075 125.519 320.236C125.654 320.314 125.773 320.423 125.871 320.558C125.97 320.692 126.044 320.849 126.091 321.018C126.137 321.188 126.155 321.367 126.142 321.545C126.129 321.723 126.087 321.896 126.018 322.054C123.527 327.967 121.716 334.152 122.146 335.318C122.961 336.105 125.497 335.508 127.036 334.803C127.316 334.67 127.627 334.675 127.903 334.817C128.179 334.96 128.397 335.228 128.508 335.562C128.619 335.897 128.615 336.27 128.496 336.601C128.377 336.932 128.153 337.192 127.874 337.325C126.503 337.941 125.058 338.289 123.595 338.356Z" fill="#231F20"/>
<path d="M133.652 321.179C134.574 321.088 135.236 319.757 135.13 318.204C135.025 316.651 134.191 315.465 133.269 315.555C132.347 315.645 131.685 316.977 131.791 318.53C131.896 320.083 132.73 321.269 133.652 321.179Z" fill="#231F20"/>
<path d="M116.37 324.079C117.293 323.997 117.962 322.67 117.866 321.117C117.769 319.563 116.943 318.37 116.02 318.452C115.097 318.535 114.428 319.861 114.524 321.415C114.621 322.969 115.447 324.161 116.37 324.079Z" fill="#231F20"/>
<path d="M126.448 348.718C123.198 348.623 119.994 347.785 117.007 346.25C116.871 346.174 116.749 346.067 116.648 345.934C116.547 345.801 116.469 345.646 116.419 345.477C116.368 345.308 116.346 345.129 116.354 344.949C116.362 344.77 116.399 344.594 116.464 344.432C116.525 344.27 116.612 344.125 116.721 344.004C116.829 343.883 116.957 343.789 117.096 343.729C117.236 343.668 117.384 343.642 117.532 343.65C117.68 343.659 117.825 343.704 117.958 343.781C117.958 343.781 126.086 348.148 131.745 344.595C133.255 343.512 134.528 342.016 135.461 340.229C136.394 338.441 136.959 336.414 137.111 334.314C137.165 333.955 137.336 333.636 137.586 333.427C137.837 333.218 138.146 333.138 138.447 333.202C138.747 333.267 139.013 333.472 139.187 333.772C139.361 334.072 139.429 334.443 139.375 334.803C139.165 337.315 138.46 339.731 137.319 341.853C136.177 343.975 134.632 345.742 132.809 347.009C130.836 348.189 128.653 348.776 126.448 348.718Z" fill="#231F20"/>
<path d="M122.395 358.456C122.395 358.456 134.87 359.704 141.39 353.601C141.39 353.601 135.888 374.46 124.32 374.406L122.395 358.456Z" fill="#231F20"/>
<path d="M124.252 375.762C123.976 375.761 123.709 375.643 123.498 375.43C123.287 375.217 123.145 374.922 123.097 374.596L121.15 358.673C121.121 358.469 121.132 358.26 121.182 358.062C121.232 357.864 121.319 357.683 121.438 357.533C121.557 357.383 121.703 357.268 121.865 357.197C122.028 357.127 122.201 357.103 122.373 357.127C122.486 357.127 134.485 358.239 140.484 352.516C140.677 352.342 140.911 352.248 141.152 352.248C141.393 352.248 141.627 352.342 141.82 352.516C142.018 352.68 142.169 352.915 142.25 353.188C142.331 353.46 142.339 353.757 142.273 354.035C142.114 354.848 136.477 375.762 124.252 375.762ZM123.595 359.921L125.18 372.995C132.357 372.209 136.975 362.335 139.013 356.72C134.122 359.089 128.866 360.18 123.595 359.921Z" fill="#231F20"/>
<path d="M191.4 369.523C201.338 371.883 231.969 489.255 217.933 501.705C196.041 521.127 129.187 494.599 129.187 494.599L135.979 460.068C135.979 460.068 184.223 462.78 185.106 450.954C185.989 439.127 158.143 383.466 162.037 375.355C165.931 367.245 191.4 369.523 191.4 369.523Z" fill="#1DD2B9"/>
<path d="M140.869 471.813C132.842 472.209 124.802 471.554 116.894 469.86C111.054 468.02 105.047 467.046 99.009 466.958C91.0426 467.228 83.179 469.184 75.7812 472.735C75.4756 472.842 75.201 473.048 74.9888 473.332C74.2643 474.526 75.917 475.692 77.2527 475.774C80.4389 475.935 83.6275 475.533 86.7159 474.58C79.0256 477.789 71.7307 482.223 65.0275 487.763C64.2804 488.387 63.4201 489.39 63.7824 490.475C64.1446 491.561 65.6614 491.371 66.6575 490.855L84.0671 481.795C79.5623 483.842 75.3705 486.765 71.6608 490.448C71.1401 490.964 70.5515 491.696 70.6873 492.51C70.9137 493.893 72.6569 493.676 73.721 493.052C79.0375 490.065 84.1212 486.515 88.9119 482.446L78.0677 491.967C77.9319 493.025 78.8374 493.92 79.7204 493.975C80.6024 493.929 81.4566 493.591 82.188 492.998L94.2095 485.05L86.6932 491.099C85.516 492.049 84.1576 493.595 84.701 495.168C85.2443 496.741 87.6214 496.524 89.2288 495.738C95.3962 492.693 101.828 490.482 108.404 489.146C110.718 488.313 113.102 487.794 115.513 487.6C119.153 488.18 122.744 489.142 126.244 490.475L142.272 495.277" fill="white"/>
<path d="M86.6255 497.501C86.1384 497.512 85.6541 497.411 85.1992 497.203C84.8742 497.042 84.5789 496.806 84.3303 496.508C84.0816 496.21 83.8845 495.856 83.7503 495.467C83.5263 494.749 83.5263 493.959 83.7503 493.242L82.7541 493.893C81.8529 494.608 80.8012 495.003 79.7205 495.033C79.3137 495.001 78.9168 494.868 78.5546 494.644C78.1923 494.42 77.8725 494.109 77.6151 493.73C77.3439 493.314 77.1718 492.817 77.117 492.293C76.1661 492.89 75.1927 493.432 74.2418 493.975C73.7221 494.313 73.1475 494.512 72.5574 494.559C71.9673 494.606 71.3757 494.499 70.8233 494.246C70.5465 494.081 70.3059 493.84 70.121 493.544C69.9362 493.247 69.8122 492.902 69.7593 492.537C69.6903 492.105 69.7099 491.66 69.8164 491.24C69.9229 490.819 70.113 490.436 70.3705 490.123L67.1331 491.805C66.1704 492.342 65.0806 492.458 64.0542 492.13C63.7926 492.015 63.5544 491.834 63.3554 491.6C63.1563 491.367 63.001 491.085 62.8996 490.774C62.4015 489.39 62.8996 487.871 64.507 486.624C68.993 482.935 73.7432 479.731 78.7017 477.048H77.117C76.4895 477.026 75.8762 476.818 75.3314 476.445C74.7866 476.071 74.3268 475.542 73.9928 474.905C73.8428 474.543 73.7802 474.138 73.8122 473.735C73.8442 473.333 73.9695 472.949 74.1739 472.627C74.5029 472.16 74.9341 471.812 75.4191 471.623C82.9253 467.987 90.9152 465.993 99.0091 465.737C104.352 465.753 109.673 466.545 114.857 468.097L117.12 468.667C124.964 470.328 132.932 470.983 140.892 470.62C141.158 470.62 141.414 470.744 141.604 470.968C141.795 471.191 141.904 471.494 141.91 471.813C141.913 471.977 141.889 472.14 141.84 472.293C141.79 472.446 141.716 472.585 141.621 472.704C141.527 472.822 141.414 472.917 141.288 472.983C141.163 473.049 141.028 473.085 140.892 473.088C132.788 473.471 124.673 472.798 116.69 471.081L114.426 470.538C109.378 469.012 104.193 468.229 98.9865 468.205C91.1432 468.467 83.401 470.395 76.1209 473.902H75.9171C76.2777 474.227 76.7113 474.416 77.1623 474.444C80.2126 474.603 83.2654 474.209 86.2179 473.278C86.4759 473.201 86.7484 473.246 86.9799 473.402C87.2114 473.558 87.3843 473.815 87.4631 474.119C87.5424 474.428 87.5183 474.762 87.3958 475.051C87.2733 475.339 87.062 475.56 86.8066 475.665C79.2433 478.805 72.0695 483.158 65.4804 488.604C64.7786 489.173 64.5975 489.635 64.5975 489.716C64.5975 489.797 65.322 489.852 66.1143 489.445L79.562 482.446C80.8751 481.687 82.2108 480.982 83.5692 480.358C83.8249 480.249 84.1056 480.262 84.3539 480.393C84.6021 480.524 84.7993 480.763 84.9049 481.063C85.0027 481.366 84.9984 481.702 84.8927 482.001C84.7871 482.299 84.5884 482.537 84.3389 482.663L80.445 484.698C77.4927 486.451 74.7198 488.609 72.1816 491.126C71.593 491.723 71.5704 491.994 71.5704 491.994C72.114 492.085 72.6678 491.972 73.1551 491.669C78.4041 488.7 83.4265 485.188 88.1649 481.171C88.3875 480.979 88.6646 480.899 88.936 480.95C89.2074 481 89.451 481.178 89.6138 481.443C89.7691 481.712 89.8322 482.042 89.7901 482.365C89.748 482.688 89.6038 482.979 89.3874 483.179L79.3809 492.266C79.5175 492.424 79.6914 492.528 79.879 492.564C80.5728 492.501 81.2387 492.21 81.8033 491.723L93.8247 483.775C94.0577 483.623 94.3304 483.584 94.5871 483.664C94.8437 483.745 95.065 483.94 95.2057 484.209C95.3495 484.483 95.3968 484.814 95.3374 485.129C95.278 485.444 95.1167 485.718 94.8888 485.891L87.3725 491.94C86.4443 492.7 85.5161 493.785 85.7652 494.653C85.7934 494.743 85.8387 494.825 85.8977 494.891C85.9566 494.956 86.0275 495.005 86.1048 495.033C87.0524 495.248 88.0331 495.077 88.8894 494.544C95.1246 491.446 101.634 489.207 108.291 487.871C109.061 487.709 109.831 487.465 110.555 487.22C112.188 486.605 113.892 486.303 115.604 486.325C118.228 486.616 120.813 487.29 123.301 488.333C124.433 488.712 125.565 489.119 126.584 489.418L142.612 494.246C142.744 494.284 142.867 494.353 142.976 494.449C143.085 494.545 143.177 494.666 143.247 494.804C143.316 494.943 143.362 495.097 143.381 495.258C143.401 495.418 143.393 495.581 143.359 495.738C143.33 495.897 143.275 496.048 143.195 496.18C143.116 496.313 143.015 496.424 142.898 496.508C142.782 496.592 142.652 496.646 142.517 496.668C142.382 496.689 142.245 496.677 142.114 496.633L126.086 491.832C124.999 491.506 123.822 491.099 122.712 490.692C120.374 489.729 117.951 489.092 115.49 488.794C113.954 488.787 112.426 489.071 110.963 489.635C110.148 489.879 109.355 490.123 108.518 490.313C102.017 491.623 95.6608 493.807 89.5686 496.823C88.6285 497.255 87.6321 497.484 86.6255 497.501Z" fill="#231F20"/>
<path d="M105.325 382.462C102.609 385.636 95.0472 436.333 92.2173 460.285L105.325 382.462Z" fill="white"/>
<path d="M92.2173 461.533H92.0588C91.9245 461.513 91.7949 461.461 91.6776 461.38C91.5602 461.299 91.4574 461.192 91.3752 461.063C91.293 460.934 91.2331 460.787 91.1988 460.63C91.1646 460.473 91.1568 460.31 91.1759 460.149C93.2813 442.545 101.273 385.473 104.601 381.486C104.692 381.346 104.807 381.231 104.938 381.148C105.07 381.066 105.214 381.018 105.362 381.008C105.51 380.997 105.658 381.025 105.796 381.089C105.935 381.153 106.06 381.251 106.164 381.378C106.268 381.504 106.348 381.656 106.399 381.823C106.45 381.989 106.471 382.167 106.46 382.344C106.45 382.521 106.407 382.694 106.337 382.85C106.266 383.006 106.168 383.142 106.05 383.249C103.786 386.205 96.4282 433.404 93.2361 460.366C93.2191 460.678 93.105 460.971 92.9163 461.187C92.7277 461.403 92.4782 461.527 92.2173 461.533Z" fill="#231F20"/>
<path d="M165.546 507.239H165.41L142.046 501.814C141.788 501.763 141.554 501.604 141.384 501.366C141.214 501.128 141.12 500.825 141.118 500.512L140.914 466.849C140.913 466.508 141.02 466.178 141.213 465.927C141.406 465.675 141.671 465.52 141.956 465.493L184.155 461.289L166.904 384.307C166.828 383.954 166.871 383.58 167.023 383.265C167.176 382.95 167.426 382.72 167.719 382.625C167.863 382.58 168.013 382.57 168.161 382.595C168.308 382.619 168.45 382.679 168.579 382.77C168.707 382.86 168.819 382.98 168.909 383.123C168.998 383.266 169.063 383.428 169.1 383.601L186.713 462.265C186.749 462.458 186.751 462.659 186.718 462.853C186.685 463.047 186.618 463.231 186.522 463.392C186.426 463.553 186.303 463.688 186.16 463.789C186.018 463.889 185.859 463.952 185.695 463.974L143.201 468.206L143.382 499.481L165.84 504.662C166.14 504.698 166.416 504.875 166.607 505.155C166.798 505.435 166.889 505.794 166.859 506.154C166.829 506.514 166.681 506.844 166.447 507.073C166.214 507.302 165.914 507.411 165.614 507.375L165.546 507.239Z" fill="#231F20"/>
<path d="M35.574 515.973L15.244 450.791L98.2393 452.744L116.871 527.095L35.574 515.973Z" fill="white"/>
<path d="M116.871 528.451H116.736L35.4382 517.33C35.2302 517.307 35.0321 517.213 34.8674 517.059C34.7028 516.905 34.5787 516.698 34.51 516.462L14.1347 451.361C14.0653 451.156 14.0413 450.934 14.0652 450.715C14.089 450.497 14.1597 450.289 14.2705 450.113C14.3612 449.913 14.5011 449.751 14.6711 449.649C14.8412 449.547 15.0333 449.51 15.2214 449.543L98.2167 451.496C98.4577 451.502 98.6909 451.6 98.8823 451.776C99.0737 451.951 99.2133 452.195 99.2807 452.473L117.89 526.796C117.948 527.012 117.959 527.242 117.924 527.465C117.888 527.688 117.807 527.896 117.686 528.071C117.464 528.316 117.173 528.452 116.871 528.451ZM36.3664 514.698L115.264 525.549L97.4922 454.073L16.9646 452.174L36.3664 514.698Z" fill="#231F20"/>
<path d="M39.9885 516.57C39.9885 516.57 17.4625 538.487 25.4315 558.587C33.4005 578.687 177.114 601.635 177.114 601.635L183.612 575.378C183.612 575.378 70.8005 506.317 39.9885 516.57Z" fill="#231F20"/>
<path d="M177.182 602.992H177.046C171.138 602.042 32.5631 579.691 24.413 559.157C16.2628 538.623 38.3361 516.435 39.2869 515.512C39.4079 515.399 39.5464 515.316 39.6944 515.268C70.5743 504.961 179.559 571.336 184.178 574.157C184.418 574.298 184.608 574.536 184.716 574.829C184.824 575.122 184.842 575.451 184.766 575.758L178.269 602.015C178.204 602.299 178.062 602.549 177.865 602.726C177.668 602.903 177.428 602.996 177.182 602.992ZM40.5321 517.791C38.4493 519.907 19.3191 540.034 26.4505 557.991C32.7442 573.805 135.979 593.552 176.367 600.144L182.321 576.083C171.953 569.817 69.5102 508.677 40.5321 517.791Z" fill="#231F20"/>
<path d="M191.151 506.479C191.151 506.479 79.381 560.73 51.6706 574.917L67.7897 604.755C67.7897 604.755 171.002 602.341 200.591 571.255C230.181 540.169 228.211 488.495 191.151 506.479Z" fill="#231F20"/>
<path d="M67.7895 606.138C67.6001 606.138 67.4139 606.081 67.2477 605.972C67.0816 605.863 66.941 605.705 66.8387 605.514L50.7196 575.676C50.6259 575.517 50.5648 575.333 50.5413 575.14C50.5177 574.947 50.5322 574.75 50.5838 574.564C50.625 574.37 50.704 574.19 50.8141 574.039C50.9242 573.889 51.0625 573.771 51.2177 573.696C78.6111 559.591 189.543 505.883 190.72 505.259C203.896 498.857 214.288 500.702 219.223 510.277C227.871 527.095 216.959 555.929 201.338 572.34C188.887 585.414 162.603 595.071 123.233 601.066C94.0058 605.514 68.0612 606.165 67.8122 606.165L67.7895 606.138ZM53.3457 575.541L68.3782 603.399C77.0716 603.127 172.088 599.411 199.844 570.279C218.318 550.857 223.796 524.301 217.299 511.688C212.929 503.197 203.715 501.814 191.581 507.754C190.471 508.27 82.6635 560.513 53.3457 575.541Z" fill="#231F20"/>
<path d="M35.1665 489.933C35.0498 490.705 34.7778 491.431 34.3741 492.049L32.1102 495.928C32.1759 495.519 32.3192 495.134 32.5292 494.802C32.7391 494.47 33.01 494.2 33.3209 494.014C33.6317 493.828 33.9742 493.73 34.3217 493.728C34.6693 493.726 35.0126 493.819 35.325 494.002C35.9456 494.397 36.4613 494.993 36.8135 495.722C37.1657 496.451 37.3402 497.283 37.3172 498.125C37.2716 499.806 36.9404 501.458 36.3437 502.98C34.8043 507.782 31.3178 514.807 26.2467 511.118C22.8281 508.65 21.8773 499.915 21.3792 495.602C20.4284 487.031 22.6017 476.072 31.7706 477.754C31.5036 481.959 30.195 485.973 28.0125 489.282C29.5746 487.573 35.5967 484.888 35.1665 489.933Z" fill="white"/>
<path d="M29.0992 513.424C27.9344 513.393 26.7988 512.981 25.8165 512.23C21.9905 509.517 20.9943 500.702 20.4736 495.955C19.8397 490.53 20.4736 483.26 23.779 479.273C24.8601 478.043 26.1779 477.152 27.6154 476.678C29.053 476.205 30.5658 476.165 32.0196 476.56C32.2797 476.607 32.5152 476.77 32.679 477.017C32.8428 477.263 32.9227 477.575 32.9026 477.889C32.713 480.723 32.0672 483.487 31.0009 486.027C32.1871 485.522 33.4822 485.522 34.6684 486.027C35.2483 486.376 35.7145 486.948 35.9933 487.65C36.2721 488.352 36.3476 489.146 36.2079 489.906C36.0993 490.891 35.7795 491.825 35.2797 492.618L35.823 492.835C36.6287 493.322 37.3029 494.072 37.7677 494.998C38.2324 495.925 38.4687 496.99 38.4492 498.071C38.4099 499.944 38.0557 501.79 37.4078 503.496C36.4343 506.507 34.3062 511.633 30.865 513.152C30.2932 513.36 29.6963 513.452 29.0992 513.424ZM30.0727 478.866C29.1817 478.826 28.2931 479.002 27.4605 479.385C26.6279 479.767 25.8685 480.347 25.2279 481.09C22.398 484.426 21.9678 490.72 22.5112 495.494C22.9639 499.644 23.9148 507.971 26.8805 510.114C27.3564 510.511 27.902 510.771 28.4752 510.874C29.0483 510.978 29.6336 510.922 30.1858 510.711C32.1102 509.924 34.0798 506.859 35.4834 502.573C36.014 501.201 36.314 499.717 36.3664 498.206C36.3905 497.604 36.2767 497.005 36.0373 496.474C35.7979 495.943 35.442 495.501 35.008 495.195C34.8255 495.102 34.6291 495.054 34.4307 495.054C34.2323 495.054 34.0359 495.102 33.8534 495.195L33.061 496.633C32.9268 496.859 32.7348 497.026 32.5142 497.109C32.2936 497.192 32.0564 497.187 31.8385 497.094C31.6204 496.999 31.4351 496.819 31.312 496.583C31.1889 496.347 31.1352 496.069 31.1593 495.792C31.2088 495.302 31.3456 494.83 31.5604 494.409C31.7752 493.988 32.0631 493.627 32.4045 493.351L33.5138 491.371C33.8103 490.912 34.0259 490.386 34.1477 489.824C34.1477 488.685 33.8987 488.495 33.7855 488.441C32.9022 488.308 32.0055 488.395 31.152 488.699C30.2986 489.002 29.507 489.515 28.8275 490.204C28.6381 490.42 28.3869 490.54 28.1257 490.54C27.8645 490.54 27.6132 490.42 27.4239 490.204C27.2277 489.991 27.1051 489.697 27.0799 489.381C27.0548 489.065 27.129 488.749 27.288 488.495C29.1404 485.707 30.3294 482.37 30.7292 478.839L30.0727 478.866Z" fill="#231F20"/>
<path d="M66.5218 569.302C66.2868 569.3 66.0577 569.213 65.8641 569.054C65.6704 568.894 65.521 568.669 65.4351 568.407C65.3234 568.061 65.3296 567.677 65.4525 567.337C65.5753 566.997 65.8049 566.728 66.0917 566.589C66.7029 566.318 125.995 538.813 138.831 529.373C138.962 529.249 139.113 529.16 139.274 529.111C139.436 529.062 139.604 529.055 139.768 529.089C139.932 529.124 140.088 529.2 140.226 529.312C140.363 529.425 140.479 529.571 140.567 529.741C140.654 529.911 140.71 530.101 140.731 530.299C140.752 530.497 140.738 530.698 140.689 530.889C140.641 531.08 140.559 531.256 140.45 531.406C140.34 531.557 140.205 531.677 140.054 531.76C127.036 541.336 69.397 568.081 66.952 569.221C66.8129 569.274 66.6678 569.301 66.5218 569.302Z" fill="white"/>
</svg>
