<svg width="703" height="616" viewBox="0 0 703 616" fill="none" xmlns="http://www.w3.org/2000/svg">
<path d="M324.431 552.895C443.428 552.895 539.894 456.428 539.894 337.43C539.894 218.432 443.428 121.965 324.431 121.965C205.434 121.965 108.968 218.432 108.968 337.43C108.968 456.428 205.434 552.895 324.431 552.895Z" fill="#2A324B"/>
<path d="M323 122.371C365.449 122.371 406.944 134.93 442.238 158.458C477.533 181.987 505.042 215.43 521.286 254.556C537.53 293.683 541.781 336.737 533.499 378.274C525.218 419.811 504.777 457.965 474.762 487.912C444.746 517.858 406.504 538.252 364.871 546.514C323.238 554.776 280.085 550.536 240.867 534.329C201.65 518.122 168.13 490.677 144.547 455.463C120.964 420.25 108.377 378.851 108.377 336.5C108.373 308.379 113.922 280.533 124.707 254.552C135.492 228.572 151.301 204.965 171.231 185.081C191.161 165.196 214.822 149.424 240.863 138.664C266.904 127.904 294.814 122.368 323 122.371ZM323 120C280.082 120 238.127 132.698 202.441 156.487C166.756 180.276 138.942 214.089 122.518 253.649C106.094 293.209 101.797 336.74 110.17 378.737C118.543 420.734 139.21 459.31 169.558 489.589C199.906 519.867 238.572 540.486 280.665 548.84C322.759 557.194 366.391 552.906 406.042 536.52C445.694 520.133 479.585 492.384 503.429 456.781C527.273 421.178 540 379.32 540 336.5C539.938 279.099 517.056 224.067 476.374 183.479C435.692 142.891 380.533 120.061 323 120Z" fill="#333C58"/>
<path d="M153.886 206.36C155.264 207.005 156.776 207.119 158.21 206.686L155.697 203.973C159.093 199.498 162.67 195.185 166.36 191.034C166.271 192.708 165.835 194.328 165.092 195.749C164.349 197.17 163.322 198.346 162.104 199.172C166.089 199.443 169.19 196.622 172.677 195.347C176.821 194.169 181.015 193.264 185.242 192.635L179.084 197.762C180.25 198.306 181.445 198.759 182.661 199.118C183.815 196.107 185.332 198.548 186.69 198.467C189.747 198.25 193.12 202.59 195.452 198.114C196.551 198.272 197.635 198.553 198.689 198.955C201.585 200.022 204.343 201.565 206.885 203.539C209.737 206.252 210.62 206.577 212.793 202.563L209.918 201.369V199.986L215.759 198.467C215.992 200.124 216.083 201.806 216.031 203.485C215.77 204.543 215.364 205.542 214.831 206.442C216.55 206.638 218.259 206.955 219.947 207.391C221.565 208.057 223.145 208.846 224.679 209.751L223.253 213.223L231.063 211.731L231.358 212.572L228.369 214.932C232.897 216.532 235.614 213.738 235.636 208.259L239.462 205.791C238.099 205.648 236.726 205.851 235.433 206.387C231.222 207.5 226.943 208.774 222.8 206.225C220.672 204.923 220.785 203.105 222.8 201.857C225.305 200.219 227.935 198.875 230.656 197.843C235.41 196.215 240.3 195.13 245.213 193.747L244.398 192.255C246.624 191.482 248.894 190.902 251.19 190.519C252.586 190.752 253.936 191.285 255.174 192.092L253.974 189C256.238 190.275 258.095 192.282 259.476 191.902C262.487 191.089 264.796 193.883 267.92 193.15C269.686 192.743 272.063 195.863 273.421 196.921C274.853 197.12 276.263 197.493 277.632 198.033C278.912 199.004 280.117 200.112 281.232 201.342L276.455 199.959C278.606 203.159 280.983 206.93 283.541 210.402C285.329 212.789 287.254 215.827 289.586 216.614C292.78 217.742 295.71 219.748 298.143 222.473C298.612 223.078 298.97 223.793 299.196 224.573C299.422 225.352 299.511 226.18 299.456 227.003C299.133 229.395 298.579 231.735 297.804 233.974C297.38 235.193 296.584 236.172 295.579 236.711C294.573 237.25 293.434 237.31 292.393 236.876C290.514 235.764 288.159 233.052 287.005 233.676C285.329 234.625 284.514 237.853 283.337 240.131C283.104 240.596 282.892 241.076 282.703 241.569C281.617 244.282 281.753 250.493 277.61 244.037C274.236 244.905 274.214 241.596 274.01 239.345C273.971 238.204 273.674 237.097 273.152 236.142C272.63 235.186 271.901 234.419 271.044 233.92C270.557 233.722 270.129 233.355 269.816 232.865C269.502 232.376 269.317 231.787 269.283 231.171C269.249 230.556 269.368 229.942 269.625 229.408C269.882 228.873 270.266 228.442 270.727 228.169C273.331 225.945 273.625 223.91 271.384 221.035C270.207 219.516 268.418 218.702 267.105 217.265C265.792 215.827 265.09 213.928 263.8 212.68C262.305 211.167 260.584 210.007 258.728 209.263C257.664 208.91 256.238 210.104 254.699 210.727C257.755 213.63 260.064 215.773 262.351 217.97C263.618 219.191 265.113 226.542 263.958 227.382C261.823 228.919 259.422 229.847 256.94 230.095C254.697 229.784 252.484 229.221 250.329 228.413C249.22 228.47 248.126 228.745 247.092 229.227V230.855L252.91 231.506C254.43 231.602 255.942 231.82 257.438 232.157C259.498 232.699 259.702 234.354 258.321 235.954C256.419 238.043 257.03 239.508 258.593 241.162C262.509 237.337 263.369 237.717 264.298 243.685C264.399 245.056 264.399 246.436 264.298 247.808C265.905 248.622 267.875 250.52 268.826 249.978C272.946 247.618 275.617 251.985 279.307 252.311C280.394 248.893 282.454 250.982 284.356 251.036C285.616 250.92 286.81 250.31 287.752 249.3C288.273 248.784 288.612 246.913 288.295 246.587C287.509 245.596 286.987 244.347 286.798 242.998C286.608 241.65 286.759 240.264 287.231 239.019C292.189 242.274 292.144 242.274 291.012 248.35C290.835 249.586 290.759 250.84 290.786 252.094L298.143 255.62C300.407 258.333 302.173 260.448 303.871 262.428C304.482 263.107 305.388 263.568 305.75 264.409C306.027 265.223 306.44 265.962 306.964 266.579C307.487 267.195 308.111 267.677 308.796 267.995C309.48 268.312 310.212 268.459 310.946 268.425C311.68 268.391 312.4 268.179 313.062 267.799C312.949 269.02 312.836 270.186 312.7 271.488L319.22 271.136C317.353 274.025 315.31 276.745 313.108 279.273C310.504 282.854 312.632 286.651 313.108 290.313C318.586 290.829 324.065 287.791 329.363 291.615C326.352 298.966 331.378 306.562 327.755 313.75L324.156 313.234L322.028 316.625C316.549 315.079 311.251 314.157 309.599 308.487C309.599 306.29 310.006 304.69 309.599 303.876C308.331 301.76 306.633 300.079 305.207 298.126C304.256 296.796 302.671 295.277 302.739 293.948C302.92 289.717 300.815 289.934 298.868 290.883C298.044 291.415 297.095 291.597 296.174 291.4C295.254 291.203 294.415 290.638 293.797 289.798C292.579 288.617 291.285 287.556 289.925 286.624C288.997 288.035 288.091 289.554 287.073 290.964C285.469 293.534 283.64 295.889 281.617 297.99C278.062 301.082 273.829 303.415 275.368 310.278L272.855 306.128C273.285 304.392 273.58 303.144 274.055 301.191L269.957 303.279C270.093 302.493 269.957 301.923 270.229 301.76C272.629 299.889 274.078 296.335 277.202 295.63C278.144 295.147 278.936 294.322 279.466 293.27C280.394 291.805 280.983 290.042 281.956 288.632C284.356 285.16 283.926 283.207 280.621 282.23C280.349 283.128 279.975 283.976 279.511 284.753C279.149 285.241 278.017 285.187 277.926 285.594C277.066 289.554 274.259 290.72 271.746 292.538C270.184 293.677 268.101 295.874 268.101 297.61C268.101 305.558 263.347 310.413 261.038 316.598C260.005 314.839 259.11 312.968 258.366 311.01C258.096 309.757 258.208 308.429 258.683 307.267C259.463 305.476 260.348 303.754 261.332 302.113C259.86 302.113 258.457 302.818 257.936 302.276C255.378 299.563 255.446 299.4 253.227 300.947C253.408 303.849 253.567 306.372 253.703 308.46C252.684 310.251 251.959 312.936 250.51 313.75C249.061 314.564 247.228 318.47 244.149 315.215C243.198 314.184 239.961 316.245 237.765 316.869C237.661 316.905 237.551 316.905 237.448 316.869L231.878 313.831C233.033 319.934 233.938 324.681 234.867 329.645C235.455 332.765 236.451 335.07 239.734 335.206C241.002 335.206 242.224 336.888 242.858 337.349L237.742 343.778L240.255 346.11L239.915 347.277L235.003 345.514C234.323 346.951 233.395 348.714 232.603 350.613C231.29 353.814 230.045 357.042 228.845 360.297C227.894 363.01 226.988 365.586 226.151 368.272C225.693 370.275 225.149 372.249 224.521 374.185C223.554 376.291 222.465 378.312 221.261 380.234C217.91 386.093 218 393.01 217.027 399.602C216.687 401.935 215.827 402.775 214.061 401.717C210.829 399.936 207.685 397.934 204.643 395.723C201.451 393.227 198.735 389.782 195.452 387.45C192.396 385.611 189.702 383.012 187.551 379.827C186.985 378.851 186.555 377.793 186.057 376.789C185.601 375.719 185.063 374.702 184.449 373.751C180.668 368.76 181.438 364.366 186.487 361.382C187.517 360.643 188.283 359.474 188.637 358.1C188.972 356.319 189.139 354.5 189.136 352.675C190.563 354.481 191.837 356.453 192.939 358.561C194.388 362.006 196.72 359.917 198.621 360.351L199.233 356.065C199.391 355.143 199.572 354.221 199.98 352.132C200.727 354.275 201.066 355.225 201.293 355.903L207.088 341.065C203.987 336.915 203.353 337.023 201.157 342.042C200.86 342.775 200.596 343.526 200.365 344.293C199.968 345.692 199.324 346.971 198.477 348.044C197.63 349.117 196.599 349.958 195.455 350.509C194.311 351.06 193.082 351.309 191.85 351.238C190.619 351.167 189.415 350.778 188.321 350.098C186.713 354.872 186.374 355.523 181.8 355.821C177.227 356.12 172.428 355.821 168.217 355.821L160.542 366.292L162.806 367.377L157.735 372.612L154.996 368.652C153.818 376.22 152.732 385.09 151.011 393.661C149.462 402.384 147.186 410.899 144.219 419.078C139.859 412.911 137.675 404.953 138.129 396.889C138.414 394.907 138.201 392.868 137.518 391.03C135.888 388.182 133.239 386.12 131.7 383.218C129.277 378.715 124.546 376.41 123.618 370.523C123.618 369.764 122.146 369.031 121.354 368.76C118.886 368.001 116.396 367.485 113.815 366.861C113.486 369.093 112.875 371.252 112.004 373.263C110.475 375.657 109.205 378.273 108.223 381.048C107.415 372.556 107.007 364.016 107.001 355.469C106.895 300.571 123.574 247.527 153.886 206.36Z" fill="#F5F5F5"/>
<path d="M416.705 521.09C416.131 519.665 415.763 518.133 415.618 516.56C415.695 514.934 415.363 513.317 414.665 511.92C413.967 510.522 412.935 509.408 411.702 508.721C408.6 507.039 405.318 506.008 402.125 504.462C401.377 504.246 400.709 503.741 400.224 503.024C398.588 499.915 397.287 496.57 396.352 493.069C395.632 488.19 395.163 483.262 394.949 478.313C394.967 477.77 394.873 477.23 394.677 476.74C393.047 474.217 391.168 471.884 389.719 469.199C388.27 466.514 385.848 462.987 385.712 459.759C385.615 458.814 385.681 457.855 385.907 456.942C386.133 456.029 386.515 455.182 387.027 454.453C387.539 453.725 388.171 453.131 388.884 452.71C389.596 452.288 390.374 452.047 391.168 452.001C391.716 451.803 392.189 451.381 392.504 450.808C396.171 444.867 401.56 446.169 406.631 446.088C406.178 443.538 407.265 442.697 409.483 442.074C414.645 440.663 418.788 437.761 420.282 430.735C421.776 423.71 424.81 421.295 431.33 420.861C433.264 420.386 435.069 419.342 436.582 417.823C437.817 416.615 438.947 415.261 439.956 413.782C440.447 413.013 441.001 412.304 441.608 411.666C443.397 410.201 444.687 407.028 447.064 407.651C449.509 408.642 452.158 408.642 454.603 407.651C456.867 406.431 459.131 405.102 461.87 403.555L464.383 411.693C466.104 408.492 464.383 405.319 463.953 401.955C468.956 405.644 474.707 407.76 475.907 415.952L476.224 415.735C465.232 456.968 444.57 493.541 416.705 521.09Z" fill="#F5F5F5"/>
<path d="M454.49 273.923C448.174 275.632 443.465 271.834 438.416 268.905C437.961 268.614 437.569 268.2 437.27 267.696C436.972 267.193 436.775 266.613 436.695 266.002C436.773 265.273 436.973 264.569 437.285 263.935C437.596 263.301 438.012 262.749 438.507 262.313C439.916 261.62 441.404 261.181 442.921 261.011L440.974 259.492C443.536 257.968 445.97 256.151 448.241 254.067C449.328 252.874 448.966 249.971 449.804 248.208C451.23 245.252 453.109 242.566 454.875 239.609C456.573 242.485 457.025 247.611 461.146 246.364C461.78 246.196 462.381 245.879 462.913 245.432C463.446 244.985 463.899 244.417 464.247 243.76C475.85 270.647 482.781 300.074 484.623 330.263C483.956 329.431 483.194 328.719 482.359 328.147C477.197 324.62 476.903 323.508 478.238 316.401C478.423 314.083 478.423 311.749 478.238 309.43L476.948 315.371C475.725 312.658 473.982 310.678 473.801 308.399C473.484 304.358 471.809 303.436 468.956 303.381C467.824 303.226 466.708 302.926 465.628 302.486L466.579 301.971C466.398 299.963 466.828 296.871 465.923 296.166C462.34 293.588 458.628 291.278 454.807 289.249L457.229 295.488L456.392 295.732L444.574 288.191L445.095 287.106L446.566 288.11L445.751 284.8C446.009 284.806 446.261 284.891 446.483 285.048C446.706 285.205 446.89 285.428 447.019 285.696C449.283 289.493 450.302 289.791 453.471 287.052C455.848 285.017 456.709 282.685 454.196 279.809C453.969 279.565 454.558 277.476 454.875 277.449C456.202 277.28 457.545 277.399 458.837 277.802C460.555 278.526 462.24 279.359 463.885 280.298C461.236 277.205 458.542 272.811 454.49 273.923Z" fill="#F5F5F5"/>
<path d="M291.85 427.127C290.971 428.877 290.649 430.948 290.944 432.959C292.438 438.954 292.461 443.945 288.386 448.963C286.672 451.162 285.358 453.763 284.528 456.602C283.698 459.441 283.37 462.456 283.564 465.456C283.624 466.278 283.448 467.101 283.066 467.788C281.413 470.501 282.409 472.4 283.519 475.112C285.964 481.08 288.273 487.21 284.854 494.236C282.403 498.278 280.881 503.02 280.44 507.988C280.532 513.224 278.99 518.312 276.115 522.256C274.077 524.657 272.871 527.894 272.742 531.316C272.957 532.795 272.761 534.317 272.184 535.65C271.608 536.983 270.682 538.052 269.55 538.694C268.509 538.142 267.424 537.715 266.313 537.419C263.212 537.334 260.123 536.944 257.076 536.253C249.424 533.54 245.756 525.755 241.772 518.323C241.047 516.967 241.5 514.715 241.387 512.084C240.934 511.786 239.893 510.999 238.783 510.375C238.114 510.119 237.497 509.697 236.972 509.138C236.447 508.578 236.026 507.892 235.736 507.126C235.446 506.359 235.293 505.528 235.288 504.686C235.282 503.844 235.424 503.01 235.705 502.238C236.044 500.827 236.61 499.525 236.882 498.006C237.063 497.192 237.153 495.917 236.882 495.511C234.324 492.798 231.539 490.085 229.026 487.373C227.396 485.528 225.245 483.467 224.838 481.107C224.438 477.487 224.591 473.811 225.29 470.257C225.607 467.843 226.943 465.618 227.305 463.204C227.668 460.79 226.241 457.508 228.596 455.067C228.89 454.768 228.732 453.331 228.392 452.761C224.589 446.441 221.6 439.008 216.62 434.234C210.122 427.941 206.907 419.695 203.33 411.422C202.599 408.913 202.172 406.291 202.063 403.637C206.998 405.156 211.367 406.621 215.805 407.76C216.279 407.785 216.75 407.672 217.18 407.431C217.61 407.19 217.985 406.828 218.272 406.376C218.997 404.885 218.906 402.687 219.767 401.412C221.397 399.025 223.547 397.208 225.336 394.984C226.333 393.824 227.106 392.417 227.6 390.861C229.071 385.436 232.422 381.231 232.943 375.128C233.26 371.385 236.157 368.021 237.47 364.278C239.266 359.673 240.854 354.955 242.225 350.145C243.221 346.592 244.873 346.89 247.228 347.65C248.954 348.347 250.799 348.515 252.593 348.138C256.113 346.928 259.574 345.489 262.962 343.825C266.018 342.442 268.441 344.042 268.712 347.731C268.916 350.444 269.867 351.827 271.995 349.956C274.123 348.084 278.312 349.088 279.081 344.314C279.081 344.151 279.896 344.313 280.258 344.069C283.473 342.415 287.865 344.531 289.654 340.435C288.793 337.342 288.069 334.738 287.254 331.89C288.744 331.495 290.258 331.25 291.782 331.158C295.676 331.32 299.592 331.483 303.464 332.107C306.222 332.547 308.922 333.403 311.501 334.657C315.621 336.691 319.583 338.482 323.273 334.928C324.767 337.393 326.552 339.586 328.571 341.438C329.74 342.133 330.721 343.21 331.402 344.544C332.083 345.878 332.436 347.415 332.419 348.979C332.419 353.943 334.683 355.679 337.921 356.9C338.754 357.176 339.487 357.778 340.003 358.609C341.928 362.379 343.875 366.204 345.527 370.137C346.705 372.849 348.833 375.318 346.682 379.36C345.596 382.373 345.515 385.771 346.456 388.853C347.428 392.894 347.713 397.129 347.293 401.304C347.293 402.199 346.501 403.067 345.957 403.854C345.414 404.64 344.735 404.993 344.305 405.725C342.519 409.281 340.545 412.697 338.396 415.952C335.928 418.769 333.319 421.405 330.585 423.845C329.873 424.59 328.995 425.07 328.059 425.229C327.122 425.388 326.168 425.218 325.31 424.74C322.497 424.097 319.64 423.77 316.776 423.764C315.674 423.701 314.582 423.501 313.515 423.167C311.344 422.066 309.122 421.115 306.86 420.319C304.596 419.722 301.494 418.013 300.453 422.109C299.502 425.798 297.759 425.663 295.291 425.391C294.645 425.352 294.001 425.488 293.405 425.789C292.809 426.089 292.278 426.547 291.85 427.127Z" fill="#EDF2F4"/>
<path d="M434.16 192.927C433.499 192.68 432.868 192.334 432.281 191.896L426.757 196.507L433.82 195.286L433.979 196.561L427.187 199.572V203.587L435.269 208.524L431.556 212.05C431.742 213.215 431.742 214.411 431.556 215.576C428.998 221.869 426.395 228.135 423.61 234.266C422.837 235.843 421.728 237.144 420.395 238.036C418.488 239.253 416.513 240.313 414.486 241.21C412.992 242.024 411.566 242.919 411.113 239.772C410.66 236.626 410.004 233.805 409.393 230.821C409.279 230.278 409.121 229.519 408.781 229.329C405.997 227.593 405.499 224.799 405.521 221.191C405.521 220.052 403.891 217.855 403.144 217.936C397.665 218.56 394.224 215.224 391.258 210.314C390.443 208.958 388.995 207.276 387.885 207.195C380.709 206.652 374.664 202.8 368.28 198.406L376.86 197.348L374.596 193.984L367.804 197.402C367.607 196.647 367.538 195.853 367.602 195.065C367.665 194.278 367.86 193.514 368.175 192.818C368.489 192.123 368.917 191.51 369.433 191.016C369.949 190.522 370.542 190.157 371.178 189.943C374.121 188.587 374.415 186.688 372.898 184.246H365.02L367.284 181.181L362.235 180.313L364.499 177.601C360.56 174.4 365.721 172.8 365.405 170.385L360.514 170.006C361.42 168.378 361.918 166.425 362.914 165.91C364.511 165.429 366.164 165.273 367.804 165.449C363.276 157.311 355.556 154.598 348.493 150.665C350.388 149.438 352.482 148.717 354.632 148.553C356.782 148.389 358.935 148.786 360.945 149.716C364.599 150.933 368.322 151.84 372.083 152.428C371.743 151.804 371.064 150.475 370.363 149.119C371.811 149.309 373.26 149.553 374.709 149.689C375.502 149.689 376.317 149.689 377.132 149.689L377.245 148.034L368.393 146.244C371.404 145.267 374.279 143.884 377.177 143.206C398.612 155.338 417.944 172.207 434.16 192.927Z" fill="#F5F5F5"/>
<path d="M458.089 230.631L459.153 232.828C458.452 233.099 457.727 233.398 456.89 233.75L458.089 230.631Z" fill="#D1D3D4"/>
<path d="M447.811 212.647H447.924C448.498 213.551 449.041 214.455 449.554 215.359L447.811 212.647Z" fill="#D1D3D4"/>
<path d="M454.807 229.437C454.542 227.896 454.613 226.299 455.011 224.799C455.803 226.237 456.55 227.674 457.275 229.139L454.807 229.437Z" fill="#D1D3D4"/>
<path d="M218.182 499.498C219.382 502.59 219.042 508.504 216.982 510.619C216.515 511.122 215.952 511.478 215.343 511.656C214.733 511.834 214.097 511.829 213.489 511.641C212.882 511.453 212.323 511.088 211.862 510.579C211.401 510.069 211.052 509.431 210.847 508.721C208.877 500.963 207.157 493.151 205.345 485.339C205.21 484.742 205.345 483.982 205.006 483.521C204.23 482.083 203.919 480.355 204.132 478.662C204.344 476.968 205.066 475.426 206.16 474.326C209.941 477.716 210.349 485.176 217.14 484.796C217.14 487.509 217.005 489.896 217.14 492.337C217.146 494.777 217.498 497.199 218.182 499.498Z" fill="#D1D3D4"/>
<path d="M308.988 251.111C308.671 250.107 307.879 248.669 308.173 248.235C308.665 247.686 309.293 247.343 309.961 247.259C312.587 242.892 314.897 239.121 317.342 235.079C315.349 230.848 315.417 229.275 318.089 227.186C319.719 225.911 323.454 227.701 325.152 230.604C325.945 231.933 324.813 234.428 321.87 237.765L322.277 240.288C321.711 240.288 321.281 240.288 321.055 240.505C320.013 241.454 318.451 242.268 318.134 243.543C317.817 244.817 318.791 246.255 320.398 245.469C320.819 245.833 321.123 246.36 321.258 246.96C321.328 248.578 321.328 250.198 321.258 251.816L318.428 252.819L323.432 257.404L309.848 254.827C309.509 252.847 309.237 251.897 308.988 251.111Z" fill="#F5F5F5"/>
<path d="M199.754 174.1C202.289 177.396 205.012 180.478 207.904 183.322C204.304 187.5 199.708 188.069 194.116 187.825C195.656 186.523 196.924 185.899 197.512 184.787C198.101 183.675 198.554 181.478 198.056 180.718C195.58 177.137 192.492 174.232 189 172.201C190.177 171.116 191.264 170.031 192.6 169C195.377 169.743 197.883 171.53 199.754 174.1Z" fill="#F5F5F5"/>
<path d="M363.91 229.465C362.58 229.858 361.189 229.858 359.858 229.465C357.763 228.808 355.789 227.686 354.04 226.155C352.727 224.853 349.738 223.795 351.165 220.73C352.56 218.577 354.207 216.677 356.055 215.088L356.326 216.417L366.605 219.374L369.117 215.359L368.71 216.688L373.238 219.808L372.762 220.513H367.94L372.31 223.226L367.465 224.907L369.91 227.077C367.85 228.027 365.903 228.949 363.91 229.465Z" fill="#F5F5F5"/>
<path d="M275.685 161.407C273.421 159.291 271.656 157.419 269.709 155.819C269.358 155.607 268.97 155.496 268.577 155.496C268.184 155.496 267.796 155.607 267.445 155.819C266.879 156.28 266.766 157.501 266.358 158.532H259.793L259.657 157.067L278.153 148.224L277.021 151.235L288.024 150.096L288.273 151.479C286.885 153.067 285.276 154.352 283.519 155.277C281.702 155.414 279.88 155.128 278.153 154.436L278.04 155.439L282.228 157.257L282.07 157.935L278.764 158.315L281.028 159.698L275.685 161.407Z" fill="#F5F5F5"/>
<path d="M324.586 243.76C323.001 242.62 322.752 241.047 324.314 240.098C325.876 239.148 327.688 237.385 329.476 240.098C330.45 241.427 331.604 242.539 332.94 244.031V250.405L334.027 251.056C333.438 251.626 332.714 252.819 332.283 252.684C329.824 251.966 327.439 250.92 325.175 249.564C324.609 249.185 325.039 246.689 324.948 245.197C324.926 244.546 324.835 243.76 324.586 243.76Z" fill="#F5F5F5"/>
<path d="M482.63 372.334C483.085 372.063 483.563 371.854 484.057 371.71C484.057 372.669 483.966 373.618 483.785 374.558C482.432 375.11 481.116 375.781 479.846 376.566C478.487 377.379 477.582 379.278 476.291 381.34L470.066 380.472C474.594 377.542 478.533 374.775 482.63 372.334Z" fill="#D1D3D4"/>
<path d="M458.135 386.005C457.863 382.37 463.319 380.065 468.209 381.665L465.606 385.246L470.745 384.703C466.715 388.067 462.346 385.598 458.135 386.005Z" fill="#D1D3D4"/>
<path d="M254.201 148.577H271.565C269.306 150.022 266.868 151.02 264.343 151.533C260.956 151.586 257.569 151.396 254.201 150.964V148.577Z" fill="#F5F5F5"/>
<path d="M138.56 420.753C137.586 420.292 136.296 418.04 136.499 417.227C137.45 414.643 138.602 412.173 139.941 409.849L140.982 410.391C140.982 412.887 140.982 415.382 140.982 417.851C140.982 420.319 140.507 421.621 138.56 420.753Z" fill="#D1D3D4"/>
<path d="M291.329 290.171L293.593 291.256V298.227C289.744 297.983 291.51 294.267 290.74 292.26C290.537 291.799 291.103 290.931 291.329 290.171Z" fill="#D1D3D4"/>
<path d="M278.855 301.51H284.99L285.171 302.351L279.557 306.446C279.308 304.602 279.059 302.947 278.855 301.51Z" fill="#D1D3D4"/>
<path d="M584.901 143.769L590.35 147.119L615.904 84.956L610.455 81.606L584.901 143.769Z" fill="#CB3FFD"/>
<path d="M590.245 148.615C590.077 148.656 589.903 148.656 589.735 148.615L584.301 145.251C584.169 145.173 584.052 145.064 583.955 144.931C583.859 144.797 583.784 144.641 583.737 144.472C583.69 144.303 583.67 144.125 583.679 143.947C583.688 143.768 583.726 143.594 583.79 143.434L609.364 81.127C609.426 80.967 609.513 80.824 609.621 80.707C609.728 80.59 609.855 80.5 609.992 80.445C610.129 80.389 610.273 80.368 610.417 80.382C610.561 80.397 610.701 80.447 610.828 80.53L616.218 83.894C616.35 83.971 616.467 84.081 616.563 84.215C616.659 84.349 616.732 84.506 616.778 84.676C616.823 84.845 616.84 85.024 616.828 85.202C616.816 85.38 616.774 85.553 616.706 85.711L591.221 147.883C591.087 148.202 590.856 148.445 590.578 148.561L590.245 148.615ZM586.275 143.19L589.757 145.333L614.311 85.657L610.828 83.514L586.275 143.19Z" fill="#CB3FFD"/>
<path d="M458.92 109.666C449.605 109.666 438.958 112.188 434.101 121.818C432.514 124.936 431.674 128.535 431.674 132.207C431.674 135.879 432.514 139.478 434.101 142.596C435.772 145.627 438.134 147.99 440.895 149.394C443.655 150.797 446.691 151.178 449.627 150.489C454.063 149.296 457.811 145.634 462.026 143.437C468.036 140.29 474.779 140.236 481.167 138.5C483.214 138.125 485.139 137.075 486.734 135.462C488.274 133.517 489.146 130.926 489.174 128.219C490.084 108.933 469.367 109.666 458.92 109.666Z" fill="#CB3FFD"/>
<path d="M567.768 168.887C568.412 166.473 581.52 146.997 582.008 142.766C582.496 138.534 579.568 121.065 582.496 118.651C585.424 116.237 590.814 132.567 590.814 132.567C590.814 132.567 602.281 107.042 605.541 108.696C608.802 110.351 607.759 124.483 605.941 133.109C604.122 141.735 583.317 184.078 583.317 184.078L567.768 168.887Z" fill="white"/>
<path d="M583.165 184.246C582.917 184.252 582.675 184.157 582.477 183.975L566.951 168.839C566.779 168.66 566.654 168.424 566.59 168.158C566.527 167.893 566.529 167.611 566.596 167.347C568.063 164.164 569.763 161.149 571.675 158.342C575.202 152.51 580.547 143.694 580.814 141.442C580.855 138.958 580.744 136.474 580.481 134.01C579.771 124.923 579.461 118.332 581.745 116.406C582.032 116.158 582.362 115.997 582.709 115.936C583.056 115.874 583.41 115.915 583.741 116.053C586.359 117.002 589.309 124.191 590.839 128.341C596.118 116.84 602.617 104.66 605.855 106.315C610.779 108.811 607.94 127.419 606.92 132.274C605.035 140.927 585.072 181.859 584.119 183.595C584.036 183.761 583.927 183.905 583.797 184.017C583.667 184.129 583.52 184.207 583.364 184.246H583.165ZM569.014 167.401L582.854 180.964C586.381 173.722 603.149 139.11 604.724 131.65C606.942 121.614 606.942 109.95 604.968 108.892C603.216 109.055 596.628 121.044 591.66 132.166C591.559 132.392 591.407 132.579 591.223 132.704C591.038 132.829 590.828 132.887 590.617 132.871C590.409 132.846 590.21 132.752 590.042 132.599C589.874 132.446 589.743 132.24 589.664 132.003C587.157 124.462 584.074 118.711 583.01 118.711C581.59 119.905 582.3 128.965 582.655 133.847C582.967 136.542 583.079 139.266 582.987 141.985C582.677 144.697 578.817 151.208 573.428 160.105C571.764 162.763 569.812 165.91 569.014 167.401Z" fill="#231F20"/>
<path d="M630.086 525.064C630.086 525.064 646.455 560.49 645.324 560.653C644.192 560.816 617.998 570.255 617.998 570.255C617.998 570.255 602.582 541.502 602.804 540.77C603.026 540.038 630.086 525.064 630.086 525.064Z" fill="white"/>
<path d="M617.998 571.611C617.815 571.612 617.635 571.554 617.476 571.445C617.317 571.336 617.183 571.178 617.088 570.988C601.34 541.665 601.562 541.15 601.762 540.309C601.961 539.468 602.139 539.061 629.642 523.844C629.893 523.699 630.181 523.677 630.445 523.783C630.709 523.889 630.93 524.114 631.062 524.413C647.165 559.297 646.588 560.463 646.344 561.222C646.253 561.431 646.123 561.611 645.965 561.747C645.808 561.884 645.626 561.974 645.435 562.009C644.37 562.199 628.622 567.841 618.33 571.557L617.998 571.611ZM604.224 541.312C605.954 545.11 613.428 559.242 618.485 568.655C624.541 566.485 639.557 561.087 643.993 559.649C642.44 555.092 634.81 538.084 629.62 526.827C620.681 531.764 607.484 539.197 604.224 541.312Z" fill="#231F20"/>
<path d="M645.324 560.653C645.324 560.653 689.684 557.696 691.902 567.353C694.12 577.009 628.622 601.639 628.622 601.639L617.975 570.255L645.324 560.653Z" fill="#231F20"/>
<path d="M628.644 602.968C628.428 602.969 628.216 602.893 628.034 602.748C627.853 602.604 627.71 602.397 627.624 602.155L616.977 570.798C616.911 570.623 616.877 570.434 616.877 570.242C616.877 570.05 616.911 569.86 616.977 569.686C617.043 569.514 617.138 569.362 617.257 569.24C617.376 569.118 617.515 569.03 617.665 568.98L644.969 559.378H645.213C652.776 558.89 690.594 556.882 692.922 567.054C695.251 577.226 644.525 597.136 628.932 602.996C628.836 603.006 628.738 602.997 628.644 602.968ZM619.506 571.123L629.287 599.985C659.985 588.348 692.035 572.859 690.86 567.705C689.485 561.792 663.556 560.788 645.501 561.982L619.506 571.123Z" fill="#231F20"/>
<path d="M537.128 531.602L525.838 546.9L505.344 520.534L521.802 499.431L537.128 531.602Z" fill="white"/>
<path d="M525.838 548.257C525.685 548.255 525.533 548.215 525.392 548.141C525.251 548.066 525.124 547.958 525.018 547.822L504.545 521.457C504.343 521.208 504.23 520.871 504.23 520.521C504.23 520.17 504.343 519.834 504.545 519.585L521.003 498.508C521.12 498.354 521.266 498.236 521.428 498.165C521.59 498.094 521.764 498.072 521.935 498.102C522.106 498.126 522.271 498.197 522.417 498.31C522.562 498.423 522.686 498.574 522.777 498.753L538.082 530.896C538.202 531.145 538.254 531.435 538.23 531.723C538.206 532.011 538.108 532.282 537.949 532.497L526.659 547.795C526.44 548.065 526.149 548.229 525.838 548.257ZM506.874 520.534L525.816 544.947L535.753 531.384L521.602 501.547L506.874 520.534Z" fill="#231F20"/>
<path d="M525.838 546.9C525.838 546.9 540.633 601.504 532.869 600.771C525.106 600.039 488.287 543.157 488.287 543.157L505.344 520.534L525.838 546.9Z" fill="#231F20"/>
<path d="M533.025 602.128H532.892C524.907 601.368 491.326 549.884 487.533 544.025C487.365 543.777 487.274 543.465 487.274 543.143C487.274 542.822 487.365 542.51 487.533 542.262L504.59 519.639C504.696 519.504 504.823 519.396 504.964 519.321C505.105 519.247 505.257 519.207 505.41 519.205C505.71 519.206 505.997 519.353 506.209 519.612L526.703 545.978C526.806 546.134 526.888 546.307 526.947 546.493C529.165 554.387 539.546 594.099 535.198 600.88C534.944 601.285 534.614 601.61 534.236 601.827C533.857 602.044 533.442 602.147 533.025 602.128ZM489.729 543.211C503.946 565.074 527.746 598.927 532.958 599.415C533.044 599.436 533.132 599.423 533.212 599.379C533.291 599.336 533.358 599.263 533.402 599.171C536.174 594.858 529.653 565.373 524.862 547.633L505.366 522.542L489.729 543.211Z" fill="#231F20"/>
<path d="M549.926 271.821C549.926 271.821 639.446 390.332 640.865 402.023C643.594 424.646 538.836 540.797 538.836 540.797L514.837 500.733L577.252 411.789L495.185 274.751L549.926 271.821Z" fill="#231F20"/>
<path d="M538.792 542.126H538.659C538.506 542.105 538.358 542.046 538.225 541.953C538.091 541.859 537.975 541.734 537.882 541.584L513.905 501.492C513.751 501.253 513.667 500.957 513.667 500.651C513.667 500.346 513.751 500.05 513.905 499.811L575.7 411.734L494.276 275.538C494.155 275.342 494.08 275.109 494.061 274.865C494.041 274.621 494.077 274.375 494.165 274.154C494.251 273.932 494.386 273.744 494.554 273.61C494.722 273.475 494.918 273.401 495.119 273.395L549.838 270.465C549.996 270.448 550.156 270.478 550.303 270.554C550.45 270.63 550.58 270.748 550.68 270.899C559.885 283.078 640.488 390.061 641.908 401.779C643.083 411.626 626.16 438.209 591.581 480.823C566.162 512.342 539.79 541.502 539.546 541.774C539.446 541.892 539.328 541.984 539.199 542.045C539.069 542.106 538.93 542.133 538.792 542.126ZM516.212 500.76L538.947 538.736C568.602 505.805 641.908 419.953 639.756 402.159C638.78 394.021 585.348 320.783 549.46 273.178L497.315 275.89L578.051 410.921C578.213 411.156 578.303 411.454 578.303 411.761C578.303 412.069 578.213 412.367 578.051 412.602L516.212 500.76Z" fill="#231F20"/>
<path d="M476.154 298.106L607.173 559.731L643.948 533.853L535.509 273.693L476.154 298.106Z" fill="#231F20"/>
<path d="M607.173 561.087C606.982 561.088 606.794 561.029 606.627 560.915C606.459 560.801 606.319 560.636 606.22 560.436L475.223 298.811C475.158 298.627 475.124 298.429 475.124 298.228C475.124 298.027 475.158 297.829 475.223 297.645C475.282 297.456 475.374 297.285 475.493 297.145C475.612 297.004 475.754 296.897 475.911 296.831L535.11 272.418C535.358 272.311 535.631 272.318 535.875 272.437C536.12 272.557 536.321 272.782 536.441 273.069L644.902 533.229C645.03 533.54 645.056 533.899 644.973 534.233C644.891 534.566 644.706 534.848 644.459 535.019L607.684 560.924C607.525 561.022 607.351 561.077 607.173 561.087ZM477.818 298.838L607.551 557.913L642.485 533.31L534.954 275.348L477.818 298.838Z" fill="#231F20"/>
<path d="M609.702 449.412C609.499 449.417 609.298 449.354 609.122 449.23C608.946 449.106 608.801 448.924 608.704 448.706L547.154 304.942C547.066 304.741 547.021 304.518 547.021 304.291C547.021 304.063 547.066 303.84 547.154 303.64L553.652 289.399C553.72 289.243 553.812 289.105 553.924 288.992C554.035 288.88 554.164 288.797 554.302 288.746C554.441 288.696 554.586 288.679 554.73 288.698C554.873 288.717 555.012 288.771 555.139 288.856C555.267 288.941 555.38 289.057 555.472 289.196C555.564 289.335 555.633 289.494 555.674 289.666C555.715 289.837 555.728 290.017 555.712 290.194C555.697 290.372 555.652 290.544 555.582 290.701L549.372 304.263L610.656 447.404C610.79 447.725 610.817 448.098 610.729 448.442C610.642 448.787 610.449 449.076 610.19 449.249C610.038 449.341 609.872 449.397 609.702 449.412Z" fill="white"/>
<path d="M484.095 108.635C478.373 107.36 472.694 105.787 467.105 103.888C463.024 102.505 458.654 100.66 456.436 96.266C460.096 94.204 461.671 89.05 462.913 84.385L471.231 52.8379C473.165 44.0128 476.155 35.5854 480.103 27.8283C483.075 22.566 495.828 7.05023 500.553 16.7069C505.921 11.6344 517.255 7.94533 523.62 11.77C527.246 14.1033 530.411 17.3748 532.897 21.3567C535.383 25.3386 537.13 29.9352 538.015 34.8266C539.089 42.9568 538.764 51.2715 537.062 59.2395C536.854 60.8744 536.435 62.4585 535.82 63.9322C534.688 65.8672 533.247 67.5007 531.583 68.7334C519.947 79.065 510.57 92.741 504.279 108.554C504.004 109.677 503.405 110.641 502.593 111.266C501.954 111.546 501.265 111.611 500.597 111.456C495.185 110.751 489.596 109.828 484.095 108.635Z" fill="#2B4C8D"/>
<path d="M501.418 112.785C501.085 112.785 500.775 112.785 500.486 112.785C494.963 112.161 489.396 111.239 483.962 110.073C478.217 108.825 472.45 107.197 466.839 105.298C462.403 103.779 457.967 101.745 455.549 97.161C455.462 96.999 455.405 96.815 455.382 96.623C455.359 96.431 455.37 96.235 455.416 96.049C455.464 95.866 455.542 95.697 455.644 95.553C455.747 95.408 455.873 95.291 456.015 95.208C459.209 93.418 460.673 88.752 461.893 84.141L470.232 52.6209C472.203 43.6513 475.261 35.0933 479.304 27.2315C481.788 22.8372 490.217 12.4482 496.383 12.4482H496.627C497.448 12.4742 498.255 12.7153 498.993 13.1551C499.732 13.595 500.385 14.2234 500.908 14.9979C506.564 10.3595 517.454 6.69757 524.219 10.7393C527.994 13.1688 531.291 16.5748 533.88 20.7206C536.47 24.8663 538.289 29.6522 539.213 34.7453C540.333 43.0713 540.008 51.5925 538.259 59.7549C538.035 61.5361 537.57 63.2594 536.884 64.8545C535.769 66.8671 534.317 68.5681 532.626 69.8455L532.337 70.0897C520.813 80.25 511.518 93.732 505.277 109.34C504.882 110.709 504.094 111.856 503.059 112.568C502.533 112.795 501.971 112.87 501.418 112.785ZM458.1 96.7C460.68 99.728 463.924 101.773 467.438 102.586C472.983 104.458 478.683 106.058 484.339 107.306C489.729 108.499 495.229 109.394 500.686 110.018C501.16 110.158 501.654 110.158 502.128 110.018C502.616 109.747 502.97 108.852 503.281 108.065C509.683 92.053 519.223 78.225 531.051 67.8111L531.317 67.567C532.757 66.4946 534.003 65.073 534.977 63.3897C535.527 62.05 535.901 60.6129 536.086 59.131C537.765 51.3341 538.09 43.1934 537.039 35.2335C536.198 30.5374 534.527 26.1231 532.144 22.2997C529.761 18.4762 526.723 15.3361 523.243 13.0992C517.521 9.68137 506.586 12.9093 501.329 17.8732C501.21 17.994 501.071 18.081 500.922 18.1279C500.772 18.1748 500.616 18.1805 500.464 18.1445C500.287 18.1204 500.118 18.0435 499.971 17.9205C499.824 17.7975 499.704 17.6322 499.621 17.4392C499.322 16.7205 498.869 16.1142 498.31 15.6844C497.752 15.2547 497.109 15.0175 496.449 14.9979H496.294C491.082 14.9979 483.186 24.8173 481.034 28.5606C477.099 36.2096 474.109 44.5274 472.162 53.2448L463.822 84.765C462.824 89.24 461.316 94.123 458.1 96.7Z" fill="#231F20"/>
<path d="M537.328 70.9849C537.328 70.9849 544.248 89.6201 541.897 92.6851C539.546 95.7501 533.602 92.2781 533.602 92.2781" fill="white"/>
<path d="M539.014 95.398C536.973 95.271 534.974 94.644 533.136 93.553C532.875 93.39 532.676 93.109 532.581 92.77C532.485 92.431 532.502 92.061 532.626 91.736C532.689 91.575 532.779 91.432 532.888 91.313C532.997 91.195 533.125 91.104 533.263 91.046C533.401 90.989 533.547 90.964 533.693 90.976C533.838 90.987 533.981 91.033 534.112 91.112C535.465 91.926 539.657 93.824 541.098 91.817C542.097 90.515 539.856 80.967 536.33 71.5545C536.21 71.227 536.201 70.8548 536.305 70.5193C536.408 70.1837 536.617 69.9122 536.884 69.7642C537.016 69.6877 537.16 69.6447 537.306 69.6375C537.452 69.6304 537.597 69.6594 537.734 69.7227C537.871 69.786 537.996 69.8823 538.101 70.006C538.207 70.1296 538.291 70.278 538.348 70.4423C540.566 76.274 545.313 90.244 542.784 93.662C542.295 94.266 541.704 94.733 541.054 95.033C540.403 95.332 539.707 95.457 539.014 95.398Z" fill="#231F20"/>
<path d="M538.304 48.3621C543.339 55.2791 540.078 67.16 538.991 75.1079C537.513 86.2839 535.775 97.4139 533.779 108.499C532.559 115.525 517.521 112.758 515.147 110.127L513.484 133.862C513.484 133.862 508.272 146.122 497.048 136.9C485.825 127.677 484.228 117.803 484.228 117.803L489.418 85.5239C489.418 85.5239 499.333 87.5309 507.163 74.2129C514.992 60.8941 517.565 38.6512 517.565 38.6512C517.565 38.6512 533.38 41.6079 538.304 48.3621Z" fill="white"/>
<path d="M504.9 141.701C501.841 141.54 498.89 140.264 496.427 138.039C484.96 128.626 483.119 118.373 483.119 117.939C483.075 117.762 483.075 117.573 483.119 117.396L488.332 85.2529C488.395 84.9129 488.56 84.6139 488.793 84.4129C489.027 84.2129 489.313 84.1249 489.596 84.1679C489.973 84.1679 498.956 85.8219 506.187 73.3179C513.684 60.4329 516.345 38.5698 516.367 38.3528C516.387 38.1742 516.436 38.0024 516.512 37.8484C516.589 37.6943 516.69 37.5613 516.811 37.4577C516.927 37.3487 517.058 37.2686 517.199 37.2221C517.34 37.1756 517.487 37.1634 517.632 37.1865C518.297 37.1865 534.001 40.3059 539.124 47.3314C543.694 53.5973 542.052 63.2269 540.766 70.9576C540.5 72.4766 540.256 73.9139 540.078 75.2159C538.57 86.3649 536.818 97.5949 534.866 108.662C534.615 109.825 534.105 110.88 533.392 111.709C532.679 112.538 531.792 113.108 530.829 113.355C525.933 114.732 520.816 114.336 516.101 112.215L514.593 133.916C514.569 134.094 514.524 134.268 514.46 134.431C512.934 137.743 510.411 140.195 507.429 141.267C506.603 141.535 505.754 141.68 504.9 141.701ZM485.359 117.641C485.692 119.16 487.954 127.813 497.669 135.787C498.947 137.043 500.429 137.952 502.016 138.452C503.603 138.953 505.259 139.034 506.874 138.69C509.187 137.839 511.157 135.962 512.397 133.428L514.039 110.018C514.057 109.768 514.131 109.529 514.254 109.327C514.377 109.126 514.543 108.97 514.734 108.877C514.924 108.784 515.133 108.758 515.335 108.802C515.537 108.845 515.726 108.956 515.879 109.123C517.188 110.561 525.439 112.731 530.141 110.886C531.628 110.29 532.493 109.394 532.692 108.174C534.622 97.1339 536.374 85.9309 537.882 74.8369C538.082 73.4799 538.326 72.124 538.592 70.4693C539.79 63.3354 541.298 54.4382 537.461 49.203C533.579 43.7779 521.935 41.0654 518.386 40.1703C517.676 45.2698 514.77 63.2811 507.983 74.9449C501.196 86.6089 493.233 87.0699 490.239 86.9069L485.359 117.641Z" fill="#231F20"/>
<path d="M534.644 100.118C534.644 100.118 526.859 104.078 524.241 94.3669L534.644 100.118Z" fill="white"/>
<path d="M531.117 102.26C529.296 102.325 527.513 101.617 526.07 100.258C524.627 98.898 523.613 96.971 523.199 94.801C523.147 94.63 523.125 94.448 523.132 94.266C523.139 94.083 523.177 93.905 523.242 93.741C523.307 93.577 523.398 93.43 523.51 93.31C523.623 93.19 523.754 93.099 523.896 93.043C524.037 92.986 524.187 92.965 524.336 92.981C524.484 92.997 524.629 93.049 524.76 93.135C524.892 93.22 525.008 93.338 525.102 93.479C525.196 93.621 525.265 93.785 525.306 93.96C525.536 94.987 525.934 95.947 526.475 96.782C527.016 97.616 527.69 98.308 528.456 98.816C530.294 99.656 532.318 99.656 534.156 98.816C534.42 98.717 534.704 98.743 534.953 98.887C535.202 99.031 535.399 99.284 535.504 99.595C535.609 99.907 535.616 100.255 535.523 100.572C535.429 100.89 535.242 101.153 534.999 101.311C533.762 101.91 532.447 102.231 531.117 102.26Z" fill="#231F20"/>
<path d="M518.874 74.755C518.986 71.9154 518.441 69.0944 517.299 66.6176C516.672 64.5347 515.781 62.5851 514.659 60.8399C514.084 59.9963 513.366 59.3165 512.554 58.8479C511.741 58.3794 510.855 58.1335 509.957 58.1274C509.166 58.2079 508.398 58.491 507.703 58.9583C507.007 59.4257 506.4 60.0668 505.92 60.8399C504.967 62.4493 504.329 64.3057 504.057 66.265C503.366 70.4439 503.582 74.771 504.683 78.816C505.785 82.861 507.733 86.483 510.334 89.322L509.935 88.562" fill="white"/>
<path d="M510.334 90.678C510.073 90.677 509.821 90.562 509.625 90.352C506.865 87.351 504.798 83.517 503.631 79.233C502.463 74.949 502.235 70.365 502.97 65.9395C503.288 63.8166 504.002 61.8117 505.055 60.0804C505.624 59.138 506.353 58.3569 507.191 57.7905C508.029 57.224 508.958 56.8856 509.913 56.7982C510.981 56.7933 512.037 57.0835 513.001 57.6471C513.965 58.2107 514.812 59.0332 515.48 60.0533C516.675 61.8792 517.633 63.9195 518.319 66.1023C519.546 68.8272 520.115 71.9218 519.961 75.027C519.917 75.377 519.762 75.693 519.53 75.906C519.297 76.119 519.006 76.212 518.718 76.166C518.573 76.146 518.433 76.09 518.305 76.002C518.178 75.915 518.066 75.796 517.977 75.654C517.888 75.513 517.824 75.35 517.787 75.177C517.75 75.004 517.743 74.824 517.765 74.647C517.855 72.0506 517.348 69.4756 516.301 67.2144C515.692 65.2683 514.855 63.4408 513.817 61.7893C513.353 61.0981 512.776 60.5334 512.122 60.1316C511.469 59.7298 510.754 59.4998 510.024 59.4565C509.386 59.5375 508.769 59.7794 508.212 60.1669C507.654 60.5545 507.169 61.0792 506.785 61.7079C505.96 63.1438 505.4 64.7821 505.144 66.5091C504.532 70.1909 504.668 74 505.537 77.603C506.407 81.206 507.986 84.494 510.135 87.179C510.279 87.206 510.418 87.271 510.54 87.369C510.663 87.467 510.766 87.597 510.844 87.748L511.266 88.508C511.379 88.713 511.445 88.952 511.455 89.199C511.465 89.447 511.42 89.692 511.324 89.91C511.228 90.128 511.085 90.31 510.91 90.436C510.736 90.562 510.537 90.626 510.334 90.624V90.678Z" fill="#231F20"/>
<path d="M515.147 110.127C515.147 110.127 507.739 105.651 504.967 98.436C504.967 98.436 503.259 115.552 514.549 122.849L515.147 110.127Z" fill="#231F20"/>
<path d="M514.549 124.178C514.37 124.176 514.195 124.12 514.039 124.015C502.216 116.42 503.836 98.436 503.858 98.273C503.891 97.98 503.999 97.706 504.166 97.492C504.333 97.278 504.551 97.134 504.789 97.079C505.026 97.038 505.267 97.089 505.478 97.226C505.689 97.362 505.86 97.577 505.965 97.839C508.538 104.566 515.569 108.879 515.635 108.906C515.831 109.026 515.994 109.214 516.104 109.445C516.214 109.676 516.267 109.941 516.257 110.208L515.658 122.903C515.647 123.126 515.591 123.343 515.494 123.532C515.397 123.722 515.263 123.879 515.103 123.988C514.938 124.116 514.745 124.182 514.549 124.178ZM506.054 103.047C506.142 106.463 506.862 109.809 508.161 112.835C509.459 115.861 511.302 118.487 513.551 120.516L513.994 110.913C510.982 108.897 508.292 106.232 506.054 103.047Z" fill="#231F20"/>
<path d="M477.663 111.347C477.663 111.347 508.338 115.823 519.517 137.144C530.696 158.464 536.108 236.694 541.764 242.58C547.42 248.466 563.013 278.386 562.769 279.796C562.525 281.207 472.606 307.681 472.606 307.681C472.606 307.681 468.902 282.4 461.094 249.389C453.287 216.377 451.889 111.375 477.663 111.347Z" fill="#CB3FFD"/>
<path d="M512.619 341.425C512.414 341.419 512.214 341.344 512.042 341.208C511.917 341.119 511.808 341 511.721 340.858C511.634 340.716 511.571 340.555 511.536 340.383C511.501 340.211 511.494 340.032 511.516 339.857C511.539 339.682 511.589 339.514 511.665 339.364C521.957 318.369 514.593 309.282 514.282 308.902C514.178 308.776 514.096 308.626 514.04 308.46C513.983 308.295 513.954 308.118 513.954 307.939C513.954 307.76 513.983 307.583 514.04 307.417C514.096 307.252 514.178 307.102 514.282 306.976C514.384 306.85 514.504 306.749 514.638 306.681C514.771 306.612 514.914 306.577 515.059 306.577C515.203 306.577 515.346 306.612 515.48 306.681C515.613 306.749 515.734 306.85 515.835 306.976C516.212 307.41 524.885 317.826 513.617 340.801C513.509 341.002 513.361 341.166 513.186 341.275C513.01 341.384 512.815 341.436 512.619 341.425Z" fill="white"/>
<path d="M490.102 144.958C490.745 146.097 521.532 217.058 521.532 217.058L562.188 160.094L583.526 181.794C583.526 181.794 547.15 256.172 523.949 263.361C500.749 270.549 454.148 166.794 455.523 155.944C456.898 145.094 480.986 128.954 490.102 144.958Z" fill="#CB3FFD"/>
<path d="M534.32 62.7204C534.903 60.6052 534.82 58.6615 534.136 58.3792C533.451 58.0968 532.423 59.5827 531.84 61.6979C531.257 63.8131 531.339 65.7567 532.024 66.039C532.709 66.3214 533.737 64.8356 534.32 62.7204Z" fill="#231F20"/>
<path d="M531.988 204.77H531.877C531.696 204.75 531.523 204.675 531.371 204.552C531.22 204.429 531.097 204.261 531.012 204.065L503.132 139.994C503.062 139.836 503.019 139.663 503.005 139.484C502.991 139.305 503.006 139.125 503.049 138.953C503.093 138.782 503.163 138.622 503.258 138.484C503.352 138.346 503.467 138.233 503.598 138.15C503.857 137.987 504.158 137.955 504.436 138.062C504.714 138.169 504.947 138.405 505.084 138.72C505.416 139.452 527.796 190.855 532.21 201.108L549.089 177.509C549.192 177.382 549.315 177.281 549.45 177.212C549.585 177.143 549.73 177.108 549.877 177.108C550.023 177.108 550.168 177.143 550.303 177.212C550.438 177.281 550.561 177.382 550.664 177.509C550.77 177.631 550.855 177.778 550.913 177.941C550.97 178.104 551 178.28 551 178.458C551 178.636 550.97 178.812 550.913 178.976C550.855 179.139 550.77 179.286 550.664 179.408L532.831 204.363C532.721 204.498 532.59 204.604 532.444 204.674C532.299 204.744 532.144 204.777 531.988 204.77Z" fill="#231F20"/>
<path d="M456.049 151.16C455.832 151.212 455.601 151.179 455.389 151.067C455.176 150.954 454.993 150.767 454.865 150.532C454.777 150.38 454.714 150.211 454.678 150.035C454.643 149.859 454.637 149.679 454.66 149.506C454.683 149.333 454.735 149.17 454.813 149.027C454.891 148.884 454.993 148.763 455.114 148.672C455.742 148.227 470.616 137.195 482.266 135.847C482.412 135.829 482.561 135.846 482.706 135.897C482.85 135.948 482.988 136.033 483.11 136.145C483.231 136.258 483.336 136.396 483.416 136.553C483.496 136.709 483.552 136.881 483.578 137.058C483.606 137.234 483.604 137.413 483.574 137.582C483.543 137.752 483.484 137.91 483.401 138.048C483.317 138.185 483.21 138.299 483.086 138.382C482.962 138.466 482.823 138.517 482.677 138.534C471.596 139.785 456.555 150.881 456.421 150.994C456.307 151.074 456.181 151.13 456.049 151.16Z" fill="#231F20"/>
<path d="M525.759 259.062C510.632 259.062 495.173 242.597 479.757 209.993C479.644 209.687 479.628 209.34 479.712 209.02C479.795 208.701 479.973 208.43 480.211 208.261C480.448 208.093 480.728 208.038 480.997 208.107C481.265 208.176 481.503 208.365 481.665 208.636C497.79 242.706 513.671 258.656 528.953 256.079C544.235 253.502 561.137 218.103 561.314 217.642C561.387 217.485 561.485 217.348 561.602 217.239C561.718 217.129 561.852 217.048 561.994 217.002C562.136 216.956 562.285 216.945 562.431 216.97C562.577 216.995 562.717 217.055 562.844 217.147C562.97 217.239 563.081 217.36 563.168 217.505C563.256 217.65 563.32 217.814 563.355 217.989C563.39 218.164 563.396 218.346 563.373 218.524C563.351 218.701 563.299 218.872 563.222 219.025C562.512 220.517 545.478 256.024 529.264 258.764C528.103 258.971 526.932 259.071 525.759 259.062Z" fill="#231F20"/>
<path d="M161.244 354.974C159.37 355.639 157.465 356.174 155.539 356.574C130.432 361.999 102.337 360.779 82.256 341.899L85.1991 328.689L76.6415 337.695L65.0955 325.38C84.7916 306.636 87.3499 277.042 100.277 253.172C110.804 233.723 134.553 232.286 151.011 240.613C162.489 246.494 171.679 257.369 176.729 271.048C182.299 286.401 182.118 303.815 180.986 320.497C179.695 339.241 174.918 349.928 161.244 354.974Z" fill="#2B4C8D"/>
<path d="M130.613 360.67C113.928 360.67 95.9982 356.439 81.577 342.849C81.4014 342.687 81.2692 342.467 81.1968 342.217C81.1243 341.966 81.1149 341.695 81.1695 341.438L83.1618 332.541L77.3888 338.699C77.1845 338.922 76.9181 339.045 76.6417 339.045C76.3653 339.045 76.0989 338.922 75.8946 338.699L64.3486 326.411C64.2222 326.28 64.122 326.118 64.0553 325.934C63.9887 325.751 63.9574 325.553 63.9637 325.353C63.9628 325.153 64.0013 324.955 64.076 324.776C64.1508 324.597 64.2596 324.441 64.3939 324.322C76.5511 312.74 81.9619 297.197 87.7122 280.759C90.8707 270.923 94.7575 261.445 99.3261 252.44C107.454 237.412 128.485 227.701 151.396 239.365C163.161 245.398 172.567 256.571 177.703 270.614C183.431 286.401 183.182 304.032 182.05 320.714C180.646 341.465 174.896 351.447 161.539 356.276C159.618 356.947 157.668 357.49 155.698 357.903C147.422 359.722 139.027 360.648 130.613 360.67ZM83.5466 341.411C105.031 361.077 134.394 359.829 155.335 355.272C157.221 354.868 159.088 354.342 160.927 353.699C173.22 349.25 178.518 339.946 179.831 320.525C180.94 304.249 181.212 286.97 175.688 271.699C170.777 258.291 161.793 247.624 150.559 241.861C134.055 233.506 111.076 235.703 101.228 253.905C96.7402 262.76 92.9143 272.073 89.7951 281.735C84.3616 297.332 78.7245 313.445 66.8389 325.38L76.6417 335.823L84.4522 327.686C84.6341 327.482 84.867 327.356 85.1148 327.327C85.3626 327.298 85.6115 327.367 85.8229 327.525C86.0343 327.682 86.1965 327.919 86.2843 328.198C86.3721 328.477 86.3807 328.783 86.3086 329.069L83.5466 341.411Z" fill="#231F20"/>
<path d="M59.1415 550.575C55.9494 550.575 32.1782 553.667 21.0397 560.313C9.90128 566.959 7.45625 567.447 9.72017 576.399C11.9841 585.35 31.567 587.547 46.4862 584.156C56.1019 581.805 65.3773 577.775 74.0155 572.194L59.1415 550.575Z" fill="white"/>
<path d="M32.6762 586.896C21.5378 586.896 10.603 584.048 8.76923 576.751C6.50531 567.529 9.13146 565.901 18.0739 560.693L20.5869 559.201C31.9065 552.447 55.7229 549.219 59.0735 549.355C59.2239 549.354 59.3726 549.393 59.5094 549.468C59.6462 549.542 59.7678 549.652 59.8659 549.789L74.7625 571.489C74.8556 571.628 74.9221 571.79 74.9574 571.964C74.9926 572.137 74.9956 572.318 74.9663 572.493C74.9443 572.67 74.8877 572.838 74.8012 572.984C74.7146 573.13 74.6006 573.25 74.4682 573.333C65.741 578.99 56.3658 583.076 46.6446 585.458C42.0351 586.45 37.3593 586.931 32.6762 586.896ZM58.666 551.823C54.1382 551.986 31.9291 555.214 21.5151 561.425L18.9795 562.917C10.0823 568.152 8.92771 568.831 10.7388 576.046C12.7537 584.021 31.5216 586.299 46.3503 582.963C55.4404 580.714 64.2254 576.962 72.4533 571.814L58.666 551.823Z" fill="#231F20"/>
<path d="M55.9493 550.521C53.8583 551.136 52.0375 552.672 50.85 554.824C49.6625 556.976 49.1956 559.585 49.5424 562.131C50.5838 571.625 67.3368 572.031 68.3103 572.059C69.2838 572.086 55.9493 550.521 55.9493 550.521Z" fill="white"/>
<path d="M68.2878 573.279C65.1636 573.279 49.6105 572.357 48.5011 562.429C48.1416 559.575 48.6822 556.663 50.0174 554.261C51.3526 551.859 53.3867 550.139 55.723 549.436C55.9186 549.385 56.1222 549.401 56.3105 549.483C56.4987 549.565 56.6639 549.708 56.7871 549.897C69.9178 571.191 69.6235 571.896 69.2613 572.737C69.1506 572.918 69.0032 573.064 68.833 573.158C68.6627 573.253 68.4751 573.295 68.2878 573.279ZM55.5646 551.959C53.8587 552.615 52.4104 553.993 51.4898 555.834C50.5692 557.676 50.2391 559.856 50.5613 561.968C51.3084 568.858 62.3337 570.377 66.6351 570.729C64.8693 567.339 60.0924 559.31 55.5646 551.959Z" fill="#231F20"/>
<path d="M180.171 572.248C180.669 572.547 185.219 579.654 205.074 582.502C224.928 585.35 232.241 590.45 236.769 577.945C241.296 565.44 238.15 557.384 228.369 553.803C218.589 550.223 191.603 547.266 186.306 553.234C181.008 559.201 180.171 572.248 180.171 572.248Z" fill="white"/>
<path d="M227.011 587.222C223.362 587.026 219.73 586.51 216.144 585.676C212.907 585.052 209.217 584.319 204.961 583.722C196.652 582.529 185.559 579.789 179.763 573.469L179.582 573.279C179.419 573.174 179.287 573.01 179.206 572.811C179.124 572.611 179.098 572.386 179.129 572.167C179.129 571.597 180.057 558.604 185.581 552.338C191.445 545.72 219.155 549.138 228.596 552.61C230.707 553.166 232.694 554.258 234.424 555.811C236.154 557.365 237.587 559.344 238.625 561.615C240.368 566.064 240.029 571.733 237.652 578.433C235.274 585.133 232.06 587.222 227.011 587.222ZM181.257 571.733C186.668 577.538 197.263 580.115 205.21 581.254C209.511 581.878 213.201 582.61 216.529 583.234C228.302 585.513 232.716 586.381 235.863 577.457C237.991 571.435 238.331 566.444 236.859 562.673C235.941 560.723 234.687 559.03 233.18 557.707C231.673 556.383 229.949 555.459 228.12 554.997C218.182 551.362 191.898 548.812 187.076 554.156C182.684 559.011 181.484 569.265 181.257 571.733Z" fill="#231F20"/>
<path d="M173.831 567.149C173.831 567.149 182.887 576.154 188.841 575.097C194.795 574.039 203.172 570.133 199.821 562.32C196.471 554.508 174.918 549.897 174.918 549.897L173.831 567.149Z" fill="white"/>
<path d="M187.845 576.426C181.574 576.426 173.515 568.451 173.152 568.098C173.027 567.968 172.93 567.804 172.867 567.621C172.804 567.437 172.778 567.238 172.79 567.04L173.922 549.789C173.931 549.62 173.97 549.455 174.037 549.305C174.103 549.155 174.195 549.024 174.307 548.921C174.423 548.817 174.554 548.742 174.694 548.7C174.834 548.658 174.979 548.65 175.122 548.676C177.386 549.165 197.263 553.64 200.727 561.751C201.263 562.82 201.567 564.034 201.61 565.28C201.654 566.526 201.436 567.766 200.976 568.885C198.712 574.31 191.241 575.938 189 576.317C188.618 576.394 188.232 576.43 187.845 576.426ZM174.896 566.552C176.684 568.234 183.951 574.69 188.706 573.849C192.599 573.144 197.761 571.136 199.142 567.719C199.446 566.95 199.582 566.101 199.538 565.252C199.495 564.404 199.273 563.582 198.893 562.863C196.493 557.275 182.412 552.881 175.892 551.335L174.896 566.552Z" fill="#231F20"/>
<path d="M65.571 491.415C65.571 491.415 75.0568 535.846 109.74 544.336C144.423 552.827 162.354 550.548 174.647 522.5C186.94 494.453 178.79 477.309 178.79 477.309L69.3517 474.597L65.571 491.415Z" fill="#231F20"/>
<path d="M138.379 550.033C128.66 549.703 118.992 548.231 109.514 545.638C74.5362 537.094 64.5523 492.201 64.4617 491.767C64.4164 491.535 64.4164 491.294 64.4617 491.062L68.2651 474.353C68.3269 474.059 68.4706 473.799 68.6723 473.617C68.874 473.434 69.1218 473.34 69.3744 473.349L178.812 476.062C179.01 476.063 179.204 476.126 179.374 476.245C179.545 476.364 179.687 476.535 179.786 476.74C180.125 477.472 188.072 494.887 175.643 523.26C166.949 542.98 155.313 550.033 138.379 550.033ZM66.7257 491.415C67.6992 495.483 78.0453 535.168 109.967 542.953C143.269 551.091 161.29 550.033 173.651 521.849C184.133 497.898 179.333 482.002 178.178 478.611L70.3253 476.089L66.7257 491.415Z" fill="#231F20"/>
<path d="M187.053 491.822C187.053 491.822 204.983 422.408 202.629 378.871C200.274 335.335 176.571 332.161 168.353 331.348C160.135 330.534 116.623 322.532 100.3 345.534C83.9768 368.537 55.2703 476.252 55.2703 476.252L187.053 491.822Z" fill="#CB3FFD"/>
<path d="M122.395 331.456L125.225 354.703C127.152 358.193 130.075 360.722 133.447 361.816C136.818 362.91 140.407 362.493 143.54 360.643C155.766 354.54 155.992 343.337 155.992 343.337L150.196 300.425C141.05 289.266 134.67 275.283 131.768 260.035C131.768 260.035 120.969 282.603 105.325 287.676C105.892 297.905 107.18 308.059 109.174 318.029C111.891 329.34 122.078 331.32 122.395 331.456Z" fill="white"/>
<path d="M136.794 363.708C134.284 363.639 131.825 362.849 129.623 361.404C127.421 359.96 125.54 357.904 124.139 355.408C124.053 355.253 123.999 355.077 123.98 354.892L121.264 332.568C118.224 331.819 115.404 330.119 113.09 327.642C110.776 325.164 109.05 321.998 108.087 318.463C106.061 308.398 104.758 298.143 104.194 287.811C104.18 287.501 104.255 287.194 104.408 286.942C104.56 286.69 104.78 286.508 105.031 286.428C120.041 281.572 130.681 259.655 130.795 259.302C130.907 259.067 131.076 258.877 131.279 258.757C131.483 258.638 131.711 258.594 131.936 258.632C132.16 258.67 132.37 258.788 132.538 258.97C132.706 259.153 132.824 259.391 132.877 259.655C135.727 274.583 141.936 288.289 150.83 299.285C151.02 299.504 151.147 299.789 151.193 300.099L156.988 343.012C156.988 343.771 156.626 355.435 143.857 361.782C141.634 362.983 139.232 363.638 136.794 363.708ZM126.176 354.214C127.982 357.37 130.684 359.632 133.778 360.58C136.872 361.528 140.148 361.098 142.997 359.368C154.317 353.699 154.747 343.418 154.747 343.31L149.019 301.076C140.562 290.562 134.512 277.613 131.451 263.48C128.101 269.583 118.977 284.177 106.548 288.734C107.111 298.508 108.361 308.208 110.283 317.731C112.298 326.058 118.705 329.042 122.328 330.073C122.516 330.117 122.698 330.19 122.871 330.29C123.017 330.393 123.141 330.535 123.235 330.704C123.329 330.873 123.39 331.065 123.414 331.266L126.176 354.214Z" fill="#231F20"/>
<path d="M142.522 301.076C142.678 298.896 143.425 296.839 144.65 295.217C145.843 293.776 147.228 292.585 148.748 291.69C149.539 291.107 150.428 290.736 151.351 290.605C152.004 290.609 152.65 290.765 153.253 291.066C154.731 291.605 156 292.76 156.83 294.321C157.355 295.679 157.603 297.166 157.554 298.661C157.626 300.274 157.504 301.891 157.192 303.463C156.862 305.03 156.276 306.504 155.468 307.798C154.659 309.092 153.644 310.18 152.482 311C151.319 311.821 150.032 312.356 148.695 312.575C147.359 312.795 145.999 312.694 144.695 312.278" fill="white"/>
<path d="M147.299 314.042C146.32 314.037 145.346 313.882 144.401 313.58C144.113 313.485 143.869 313.258 143.721 312.948C143.572 312.638 143.532 312.271 143.608 311.926C143.642 311.751 143.705 311.587 143.795 311.443C143.884 311.3 143.997 311.18 144.126 311.09C144.256 311.001 144.399 310.945 144.548 310.926C144.696 310.906 144.847 310.923 144.989 310.976C147.335 311.682 149.817 311.273 151.917 309.837C153.99 308.345 155.493 305.94 156.105 303.137C156.376 301.678 156.49 300.183 156.445 298.689C156.492 297.418 156.282 296.152 155.834 295C155.145 293.703 154.094 292.741 152.868 292.287C152.402 292.048 151.903 291.919 151.396 291.907C150.647 292.028 149.928 292.343 149.291 292.829C147.881 293.654 146.596 294.754 145.487 296.085C144.437 297.485 143.794 299.255 143.654 301.13C143.62 301.485 143.474 301.811 143.248 302.042C143.021 302.274 142.729 302.394 142.431 302.378C142.133 302.343 141.857 302.171 141.663 301.898C141.469 301.624 141.371 301.271 141.39 300.913C141.571 298.441 142.422 296.107 143.812 294.267C145.082 292.699 146.567 291.405 148.204 290.442C149.144 289.747 150.206 289.32 151.306 289.195C152.083 289.198 152.851 289.382 153.57 289.737C155.311 290.381 156.799 291.759 157.758 293.616C158.371 295.166 158.673 296.866 158.641 298.58C158.687 300.312 158.55 302.043 158.233 303.734C157.617 306.669 156.199 309.272 154.205 311.13C152.212 312.988 149.756 313.994 147.231 313.987L147.299 314.042Z" fill="#231F20"/>
<path d="M125.022 294.43C125.022 294.43 119.543 307.396 121.331 309.24C123.12 311.085 127.444 309.051 127.444 309.051" fill="white"/>
<path d="M123.595 311.356C122.523 311.43 121.464 311.046 120.607 310.271C118.547 308.155 121.331 300.18 124.003 293.833C124.138 293.514 124.374 293.272 124.658 293.16C124.943 293.048 125.252 293.075 125.519 293.236C125.654 293.314 125.773 293.423 125.871 293.558C125.97 293.692 126.044 293.849 126.091 294.018C126.137 294.188 126.155 294.367 126.142 294.545C126.129 294.723 126.087 294.896 126.018 295.054C123.527 300.967 121.716 307.152 122.146 308.318C122.961 309.105 125.497 308.508 127.036 307.803C127.316 307.67 127.627 307.675 127.903 307.817C128.179 307.96 128.397 308.228 128.508 308.562C128.619 308.897 128.615 309.27 128.496 309.601C128.377 309.932 128.153 310.192 127.874 310.325C126.503 310.941 125.058 311.289 123.595 311.356Z" fill="#231F20"/>
<path d="M133.652 294.179C134.574 294.088 135.236 292.757 135.13 291.204C135.025 289.651 134.191 288.465 133.269 288.555C132.347 288.645 131.685 289.977 131.791 291.53C131.896 293.083 132.73 294.269 133.652 294.179Z" fill="#231F20"/>
<path d="M116.37 297.079C117.293 296.997 117.962 295.67 117.866 294.117C117.769 292.563 116.943 291.37 116.02 291.452C115.097 291.535 114.428 292.861 114.524 294.415C114.621 295.969 115.447 297.161 116.37 297.079Z" fill="#231F20"/>
<path d="M126.448 321.718C123.198 321.623 119.994 320.785 117.007 319.25C116.871 319.174 116.749 319.067 116.648 318.934C116.547 318.801 116.469 318.646 116.419 318.477C116.368 318.308 116.346 318.129 116.354 317.949C116.362 317.77 116.399 317.594 116.464 317.432C116.525 317.27 116.612 317.125 116.721 317.004C116.829 316.883 116.957 316.789 117.096 316.729C117.236 316.668 117.384 316.642 117.532 316.65C117.68 316.659 117.825 316.704 117.958 316.781C117.958 316.781 126.086 321.148 131.745 317.595C133.255 316.512 134.528 315.016 135.461 313.229C136.394 311.441 136.959 309.414 137.111 307.314C137.165 306.955 137.336 306.636 137.586 306.427C137.837 306.218 138.146 306.138 138.447 306.202C138.747 306.267 139.013 306.472 139.187 306.772C139.361 307.072 139.429 307.443 139.375 307.803C139.165 310.315 138.46 312.731 137.319 314.853C136.177 316.975 134.632 318.742 132.809 320.009C130.836 321.189 128.653 321.776 126.448 321.718Z" fill="#231F20"/>
<path d="M122.395 331.456C122.395 331.456 134.87 332.704 141.39 326.601C141.39 326.601 135.888 347.46 124.32 347.406L122.395 331.456Z" fill="#231F20"/>
<path d="M124.252 348.762C123.976 348.761 123.709 348.643 123.498 348.43C123.287 348.217 123.145 347.922 123.097 347.596L121.15 331.673C121.121 331.469 121.132 331.26 121.182 331.062C121.232 330.864 121.319 330.683 121.438 330.533C121.557 330.383 121.703 330.268 121.865 330.197C122.028 330.127 122.201 330.103 122.373 330.127C122.486 330.127 134.485 331.239 140.484 325.516C140.677 325.342 140.911 325.248 141.152 325.248C141.393 325.248 141.627 325.342 141.82 325.516C142.018 325.68 142.169 325.915 142.25 326.188C142.331 326.46 142.339 326.757 142.273 327.035C142.114 327.848 136.477 348.762 124.252 348.762ZM123.595 332.921L125.18 345.995C132.357 345.209 136.975 335.335 139.013 329.72C134.122 332.089 128.866 333.18 123.595 332.921Z" fill="#231F20"/>
<path d="M191.4 342.523C201.338 344.883 231.969 462.255 217.933 474.705C196.041 494.127 129.187 467.599 129.187 467.599L135.979 433.068C135.979 433.068 184.223 435.78 185.106 423.954C185.989 412.127 158.143 356.466 162.037 348.355C165.931 340.245 191.4 342.523 191.4 342.523Z" fill="#CB3FFD"/>
<path d="M140.869 444.813C132.842 445.209 124.802 444.554 116.894 442.86C111.054 441.02 105.047 440.046 99.0089 439.958C91.0425 440.228 83.1789 442.184 75.7811 445.735C75.4755 445.842 75.2009 446.048 74.9887 446.332C74.2642 447.526 75.9169 448.692 77.2526 448.774C80.4388 448.935 83.6274 448.533 86.7158 447.58C79.0255 450.789 71.7306 455.223 65.0274 460.763C64.2803 461.387 63.42 462.39 63.7823 463.475C64.1445 464.561 65.6613 464.371 66.6574 463.855L84.067 454.795C79.5622 456.842 75.3704 459.765 71.6607 463.448C71.14 463.964 70.5514 464.696 70.6872 465.51C70.9136 466.893 72.6568 466.676 73.7209 466.052C79.0374 463.065 84.1211 459.515 88.9118 455.446L78.0676 464.967C77.9318 466.025 78.8373 466.92 79.7203 466.975C80.6023 466.929 81.4565 466.591 82.1879 465.998L94.2094 458.05L86.6931 464.099C85.5159 465.049 84.1575 466.595 84.7009 468.168C85.2442 469.741 87.6213 469.524 89.2287 468.738C95.3961 465.693 101.828 463.482 108.404 462.146C110.718 461.313 113.102 460.794 115.513 460.6C119.153 461.18 122.744 462.142 126.244 463.475L142.272 468.277" fill="white"/>
<path d="M86.6256 470.501C86.1385 470.512 85.6542 470.411 85.1993 470.203C84.8743 470.042 84.579 469.806 84.3304 469.508C84.0817 469.21 83.8846 468.856 83.7504 468.467C83.5264 467.749 83.5264 466.959 83.7504 466.242L82.7542 466.893C81.853 467.608 80.8013 468.003 79.7206 468.033C79.3138 468.001 78.9169 467.868 78.5547 467.644C78.1924 467.42 77.8726 467.109 77.6152 466.73C77.344 466.314 77.1719 465.817 77.1171 465.293C76.1662 465.89 75.1928 466.432 74.2419 466.975C73.7222 467.313 73.1476 467.512 72.5575 467.559C71.9674 467.606 71.3758 467.499 70.8234 467.246C70.5466 467.081 70.306 466.84 70.1211 466.544C69.9363 466.247 69.8123 465.902 69.7594 465.537C69.6904 465.105 69.71 464.66 69.8165 464.24C69.923 463.819 70.1131 463.436 70.3706 463.123L67.1332 464.805C66.1705 465.342 65.0807 465.458 64.0543 465.13C63.7927 465.015 63.5545 464.834 63.3555 464.6C63.1564 464.367 63.0011 464.085 62.8997 463.774C62.4016 462.39 62.8997 460.871 64.5071 459.624C68.9931 455.935 73.7433 452.731 78.7018 450.048H77.1171C76.4896 450.026 75.8763 449.818 75.3315 449.445C74.7867 449.071 74.3269 448.542 73.9929 447.905C73.8429 447.543 73.7803 447.138 73.8123 446.735C73.8443 446.333 73.9696 445.949 74.174 445.627C74.503 445.16 74.9342 444.812 75.4192 444.623C82.9254 440.987 90.9153 438.993 99.0092 438.737C104.352 438.753 109.673 439.545 114.857 441.097L117.12 441.667C124.964 443.328 132.932 443.983 140.892 443.62C141.158 443.62 141.414 443.744 141.604 443.968C141.795 444.191 141.904 444.494 141.91 444.813C141.913 444.977 141.889 445.14 141.84 445.293C141.79 445.446 141.716 445.585 141.621 445.704C141.527 445.822 141.414 445.917 141.288 445.983C141.163 446.049 141.028 446.085 140.892 446.088C132.788 446.471 124.673 445.798 116.69 444.081L114.426 443.538C109.378 442.012 104.193 441.229 98.9866 441.205C91.1433 441.467 83.4011 443.395 76.121 446.902H75.9172C76.2778 447.227 76.7114 447.416 77.1624 447.444C80.2127 447.603 83.2655 447.209 86.218 446.278C86.476 446.201 86.7485 446.246 86.98 446.402C87.2115 446.558 87.3844 446.815 87.4632 447.119C87.5425 447.428 87.5184 447.762 87.3959 448.051C87.2734 448.339 87.0621 448.56 86.8067 448.665C79.2434 451.805 72.0696 456.158 65.4805 461.604C64.7787 462.173 64.5976 462.635 64.5976 462.716C64.5976 462.797 65.3221 462.852 66.1144 462.445L79.5621 455.446C80.8752 454.687 82.2109 453.982 83.5693 453.358C83.825 453.249 84.1057 453.262 84.354 453.393C84.6022 453.524 84.7994 453.763 84.905 454.063C85.0028 454.366 84.9985 454.702 84.8928 455.001C84.7872 455.299 84.5885 455.537 84.339 455.663L80.4451 457.698C77.4928 459.451 74.7199 461.609 72.1817 464.126C71.5931 464.723 71.5705 464.994 71.5705 464.994C72.1141 465.085 72.6679 464.972 73.1552 464.669C78.4042 461.7 83.4266 458.188 88.165 454.171C88.3876 453.979 88.6647 453.899 88.9361 453.95C89.2075 454 89.4511 454.178 89.6139 454.443C89.7692 454.712 89.8323 455.042 89.7902 455.365C89.7481 455.688 89.6039 455.979 89.3875 456.179L79.381 465.266C79.5176 465.424 79.6915 465.528 79.8791 465.564C80.5729 465.501 81.2388 465.21 81.8034 464.723L93.8248 456.775C94.0578 456.623 94.3305 456.584 94.5872 456.664C94.8438 456.745 95.0651 456.94 95.2058 457.209C95.3496 457.483 95.3969 457.814 95.3375 458.129C95.2781 458.444 95.1168 458.718 94.8889 458.891L87.3726 464.94C86.4444 465.7 85.5162 466.785 85.7653 467.653C85.7935 467.743 85.8388 467.825 85.8978 467.891C85.9567 467.956 86.0276 468.005 86.1049 468.033C87.0525 468.248 88.0332 468.077 88.8895 467.544C95.1247 464.446 101.634 462.207 108.291 460.871C109.061 460.709 109.831 460.465 110.555 460.22C112.188 459.605 113.892 459.303 115.604 459.325C118.228 459.616 120.813 460.29 123.301 461.333C124.433 461.712 125.565 462.119 126.584 462.418L142.612 467.246C142.744 467.284 142.867 467.353 142.976 467.449C143.085 467.545 143.177 467.666 143.247 467.804C143.316 467.943 143.362 468.097 143.381 468.258C143.401 468.418 143.393 468.581 143.359 468.738C143.33 468.897 143.275 469.048 143.195 469.18C143.116 469.313 143.015 469.424 142.898 469.508C142.782 469.592 142.652 469.646 142.517 469.668C142.382 469.689 142.245 469.677 142.114 469.633L126.086 464.832C124.999 464.506 123.822 464.099 122.712 463.692C120.374 462.729 117.951 462.092 115.49 461.794C113.954 461.787 112.426 462.071 110.963 462.635C110.148 462.879 109.355 463.123 108.518 463.313C102.017 464.623 95.6609 466.807 89.5687 469.823C88.6286 470.255 87.6322 470.484 86.6256 470.501Z" fill="#231F20"/>
<path d="M105.325 355.462C102.609 358.636 95.0472 409.333 92.2173 433.285L105.325 355.462Z" fill="white"/>
<path d="M92.2174 434.533H92.0589C91.9246 434.513 91.795 434.461 91.6777 434.38C91.5603 434.299 91.4575 434.192 91.3753 434.063C91.2931 433.934 91.2332 433.787 91.1989 433.63C91.1647 433.473 91.1569 433.31 91.176 433.149C93.2814 415.545 101.273 358.473 104.601 354.486C104.692 354.346 104.807 354.231 104.938 354.148C105.07 354.066 105.214 354.018 105.362 354.008C105.51 353.997 105.658 354.025 105.796 354.089C105.935 354.153 106.06 354.251 106.164 354.378C106.268 354.504 106.348 354.656 106.399 354.823C106.45 354.989 106.471 355.167 106.46 355.344C106.45 355.521 106.407 355.694 106.337 355.85C106.266 356.006 106.168 356.142 106.05 356.249C103.786 359.205 96.4283 406.404 93.2362 433.366C93.2192 433.678 93.1051 433.971 92.9164 434.187C92.7278 434.403 92.4783 434.527 92.2174 434.533Z" fill="#231F20"/>
<path d="M165.546 480.239H165.41L142.046 474.814C141.788 474.763 141.554 474.604 141.384 474.366C141.214 474.128 141.12 473.825 141.118 473.512L140.914 439.849C140.913 439.508 141.02 439.178 141.213 438.927C141.406 438.675 141.671 438.52 141.956 438.493L184.155 434.289L166.904 357.307C166.828 356.954 166.871 356.58 167.023 356.265C167.176 355.95 167.426 355.72 167.719 355.625C167.863 355.58 168.013 355.57 168.161 355.595C168.308 355.619 168.45 355.679 168.579 355.77C168.707 355.86 168.819 355.98 168.909 356.123C168.998 356.266 169.063 356.428 169.1 356.601L186.713 435.265C186.749 435.458 186.751 435.659 186.718 435.853C186.685 436.047 186.618 436.231 186.522 436.392C186.426 436.553 186.303 436.688 186.16 436.789C186.018 436.889 185.859 436.952 185.695 436.974L143.201 441.206L143.382 472.481L165.84 477.662C166.14 477.698 166.416 477.875 166.607 478.155C166.798 478.435 166.889 478.794 166.859 479.154C166.829 479.514 166.681 479.844 166.447 480.073C166.214 480.302 165.914 480.411 165.614 480.375L165.546 480.239Z" fill="#231F20"/>
<path d="M35.5739 488.973L15.2439 423.791L98.2392 425.744L116.871 500.095L35.5739 488.973Z" fill="white"/>
<path d="M116.871 501.451H116.736L35.4381 490.33C35.2301 490.307 35.032 490.213 34.8673 490.059C34.7027 489.905 34.5786 489.698 34.5099 489.462L14.1346 424.361C14.0652 424.156 14.0412 423.934 14.0651 423.715C14.0889 423.497 14.1596 423.289 14.2704 423.113C14.3611 422.913 14.501 422.751 14.671 422.649C14.8411 422.547 15.0332 422.51 15.2213 422.543L98.2166 424.496C98.4576 424.502 98.6908 424.6 98.8822 424.776C99.0736 424.951 99.2132 425.195 99.2806 425.473L117.89 499.796C117.948 500.012 117.959 500.242 117.924 500.465C117.888 500.688 117.807 500.896 117.686 501.071C117.464 501.316 117.173 501.452 116.871 501.451ZM36.3663 487.698L115.264 498.549L97.4921 427.073L16.9645 425.174L36.3663 487.698Z" fill="#231F20"/>
<path d="M39.9884 489.57C39.9884 489.57 17.4624 511.487 25.4314 531.587C33.4004 551.687 177.114 574.635 177.114 574.635L183.612 548.378C183.612 548.378 70.8004 479.317 39.9884 489.57Z" fill="#231F20"/>
<path d="M177.182 575.992H177.046C171.138 575.042 32.5631 552.691 24.413 532.157C16.2628 511.623 38.3361 489.435 39.2869 488.512C39.4079 488.399 39.5465 488.316 39.6945 488.268C70.5744 477.961 179.559 544.336 184.178 547.157C184.418 547.298 184.608 547.536 184.716 547.829C184.824 548.122 184.842 548.451 184.766 548.758L178.269 575.015C178.204 575.299 178.062 575.549 177.865 575.726C177.668 575.903 177.428 575.996 177.182 575.992ZM40.5322 490.791C38.4494 492.907 19.3191 513.034 26.4505 530.991C32.7442 546.805 135.979 566.552 176.367 573.144L182.321 549.083C171.953 542.817 69.5103 481.677 40.5322 490.791Z" fill="#231F20"/>
<path d="M191.151 479.479C191.151 479.479 79.3811 533.73 51.6707 547.917L67.7898 577.755C67.7898 577.755 171.002 575.341 200.591 544.255C230.181 513.169 228.211 461.495 191.151 479.479Z" fill="#231F20"/>
<path d="M67.7895 579.138C67.6001 579.138 67.4139 579.081 67.2477 578.972C67.0816 578.863 66.941 578.705 66.8387 578.514L50.7196 548.676C50.6259 548.517 50.5648 548.333 50.5413 548.14C50.5177 547.947 50.5322 547.75 50.5838 547.564C50.625 547.37 50.704 547.19 50.8141 547.039C50.9242 546.889 51.0625 546.771 51.2177 546.696C78.6111 532.591 189.543 478.883 190.72 478.259C203.896 471.857 214.288 473.702 219.223 483.277C227.871 500.095 216.959 528.929 201.338 545.34C188.887 558.414 162.603 568.071 123.233 574.066C94.0058 578.514 68.0612 579.165 67.8122 579.165L67.7895 579.138ZM53.3457 548.541L68.3782 576.399C77.0716 576.127 172.088 572.411 199.844 543.279C218.318 523.857 223.796 497.301 217.299 484.688C212.929 476.197 203.715 474.814 191.581 480.754C190.471 481.27 82.6635 533.513 53.3457 548.541Z" fill="#231F20"/>
<path d="M35.1664 462.933C35.0497 463.705 34.7777 464.431 34.374 465.049L32.1101 468.928C32.1758 468.519 32.3191 468.134 32.5291 467.802C32.739 467.47 33.0099 467.2 33.3208 467.014C33.6316 466.828 33.9741 466.73 34.3216 466.728C34.6692 466.726 35.0125 466.819 35.3249 467.002C35.9455 467.397 36.4612 467.993 36.8134 468.722C37.1656 469.451 37.3401 470.283 37.3171 471.125C37.2715 472.806 36.9403 474.458 36.3436 475.98C34.8042 480.782 31.3177 487.807 26.2466 484.118C22.828 481.65 21.8772 472.915 21.3791 468.602C20.4283 460.031 22.6016 449.072 31.7705 450.754C31.5035 454.959 30.1949 458.973 28.0124 462.282C29.5745 460.573 35.5966 457.888 35.1664 462.933Z" fill="white"/>
<path d="M29.0991 486.424C27.9343 486.393 26.7987 485.981 25.8164 485.23C21.9904 482.517 20.9942 473.702 20.4735 468.955C19.8396 463.53 20.4735 456.26 23.7789 452.273C24.86 451.043 26.1778 450.152 27.6153 449.678C29.0529 449.205 30.5657 449.165 32.0195 449.56C32.2796 449.607 32.5151 449.77 32.6789 450.017C32.8427 450.263 32.9226 450.575 32.9025 450.889C32.7129 453.723 32.0671 456.487 31.0008 459.027C32.187 458.522 33.4821 458.522 34.6683 459.027C35.2482 459.376 35.7144 459.948 35.9932 460.65C36.272 461.352 36.3475 462.146 36.2078 462.906C36.0992 463.891 35.7794 464.825 35.2796 465.618L35.8229 465.835C36.6286 466.322 37.3028 467.072 37.7676 467.998C38.2323 468.925 38.4686 469.99 38.4491 471.071C38.4098 472.944 38.0556 474.79 37.4077 476.496C36.4342 479.507 34.3061 484.633 30.8649 486.152C30.2931 486.36 29.6962 486.452 29.0991 486.424ZM30.0726 451.866C29.1816 451.826 28.293 452.002 27.4604 452.385C26.6278 452.767 25.8684 453.347 25.2278 454.09C22.3979 457.426 21.9677 463.72 22.5111 468.494C22.9638 472.644 23.9147 480.971 26.8804 483.114C27.3563 483.511 27.9019 483.771 28.4751 483.874C29.0482 483.978 29.6335 483.922 30.1857 483.711C32.1101 482.924 34.0797 479.859 35.4833 475.573C36.0139 474.201 36.3139 472.717 36.3663 471.206C36.3904 470.604 36.2766 470.005 36.0372 469.474C35.7978 468.943 35.4419 468.501 35.0079 468.195C34.8254 468.102 34.629 468.054 34.4306 468.054C34.2322 468.054 34.0358 468.102 33.8533 468.195L33.0609 469.633C32.9267 469.859 32.7347 470.026 32.5141 470.109C32.2935 470.192 32.0563 470.187 31.8384 470.094C31.6203 469.999 31.435 469.819 31.3119 469.583C31.1888 469.347 31.1351 469.069 31.1592 468.792C31.2087 468.302 31.3455 467.83 31.5603 467.409C31.7751 466.988 32.063 466.627 32.4044 466.351L33.5137 464.371C33.8102 463.912 34.0258 463.386 34.1476 462.824C34.1476 461.685 33.8986 461.495 33.7854 461.441C32.9021 461.308 32.0054 461.395 31.1519 461.699C30.2985 462.002 29.5069 462.515 28.8274 463.204C28.638 463.42 28.3868 463.54 28.1256 463.54C27.8644 463.54 27.6131 463.42 27.4238 463.204C27.2276 462.991 27.105 462.697 27.0798 462.381C27.0547 462.065 27.1289 461.749 27.2879 461.495C29.1403 458.707 30.3293 455.37 30.7291 451.839L30.0726 451.866Z" fill="#231F20"/>
<path d="M66.5219 542.302C66.2869 542.3 66.0578 542.213 65.8642 542.054C65.6705 541.894 65.5211 541.669 65.4352 541.407C65.3235 541.061 65.3297 540.677 65.4526 540.337C65.5754 539.997 65.805 539.728 66.0918 539.589C66.703 539.318 125.995 511.813 138.831 502.373C138.962 502.249 139.113 502.16 139.274 502.111C139.436 502.062 139.604 502.055 139.768 502.089C139.932 502.124 140.088 502.2 140.226 502.312C140.363 502.425 140.479 502.571 140.567 502.741C140.654 502.911 140.71 503.101 140.731 503.299C140.752 503.497 140.738 503.698 140.689 503.889C140.641 504.08 140.559 504.256 140.45 504.406C140.34 504.557 140.205 504.677 140.054 504.76C127.036 514.336 69.3971 541.081 66.9521 542.221C66.813 542.274 66.6679 542.301 66.5219 542.302Z" fill="white"/>
</svg>
