<svg width="740" height="666" viewBox="0 0 740 666" fill="none" xmlns="http://www.w3.org/2000/svg">
<path d="M385.375 579.895C504.372 579.895 600.838 483.428 600.838 364.43C600.838 245.432 504.372 148.965 385.375 148.965C266.378 148.965 169.912 245.432 169.912 364.43C169.912 483.428 266.378 579.895 385.375 579.895Z" fill="#2A324B"/>
<path d="M383.944 149.371C426.393 149.371 467.888 161.93 503.182 185.458C538.477 208.987 565.986 242.43 582.23 281.556C598.474 320.683 602.725 363.737 594.443 405.274C586.162 446.811 565.721 484.965 535.706 514.912C505.69 544.858 467.448 565.252 425.815 573.514C384.182 581.776 341.029 577.536 301.811 561.329C262.594 545.122 229.074 517.677 205.491 482.463C181.908 447.25 169.321 405.851 169.321 363.5C169.317 335.379 174.866 307.533 185.651 281.552C196.436 255.572 212.245 231.965 232.175 212.081C252.105 192.196 275.766 176.424 301.807 165.664C327.848 154.904 355.758 149.368 383.944 149.371ZM383.944 147C341.026 147 299.071 159.698 263.385 183.487C227.7 207.276 199.886 241.089 183.462 280.649C167.038 320.209 162.741 363.74 171.114 405.737C179.487 447.734 200.154 486.31 230.502 516.589C260.85 546.867 299.516 567.486 341.609 575.84C383.703 584.194 427.335 579.906 466.986 563.52C506.638 547.133 540.529 519.384 564.373 483.781C588.217 448.178 600.944 406.32 600.944 363.5C600.882 306.099 578 251.067 537.318 210.479C496.636 169.891 441.477 147.061 383.944 147Z" fill="#333C58"/>
<path d="M214.83 233.36C216.208 234.005 217.72 234.119 219.154 233.686L216.641 230.973C220.037 226.498 223.614 222.185 227.304 218.034C227.215 219.708 226.779 221.328 226.036 222.749C225.293 224.17 224.266 225.346 223.048 226.172C227.033 226.443 230.134 223.622 233.621 222.347C237.765 221.169 241.959 220.264 246.186 219.635L240.028 224.762C241.194 225.306 242.389 225.759 243.605 226.118C244.759 223.107 246.276 225.548 247.634 225.467C250.691 225.25 254.064 229.59 256.396 225.114C257.495 225.272 258.579 225.553 259.633 225.955C262.529 227.022 265.287 228.565 267.829 230.539C270.681 233.252 271.564 233.577 273.737 229.563L270.862 228.369V226.986L276.703 225.467C276.936 227.124 277.027 228.806 276.975 230.485C276.714 231.543 276.308 232.542 275.775 233.442C277.494 233.638 279.203 233.955 280.891 234.391C282.509 235.057 284.089 235.846 285.623 236.751L284.197 240.223L292.007 238.731L292.302 239.572L289.313 241.932C293.841 243.532 296.558 240.738 296.58 235.259L300.406 232.791C299.043 232.648 297.67 232.851 296.377 233.387C292.166 234.5 287.887 235.774 283.744 233.225C281.616 231.923 281.729 230.105 283.744 228.857C286.249 227.219 288.879 225.875 291.6 224.843C296.354 223.215 301.244 222.13 306.157 220.747L305.342 219.255C307.568 218.482 309.838 217.902 312.134 217.519C313.53 217.752 314.88 218.285 316.118 219.092L314.918 216C317.182 217.275 319.039 219.282 320.42 218.902C323.431 218.089 325.74 220.883 328.864 220.15C330.63 219.743 333.007 222.863 334.365 223.921C335.797 224.12 337.207 224.493 338.576 225.033C339.856 226.004 341.061 227.112 342.176 228.342L337.399 226.959C339.55 230.159 341.927 233.93 344.485 237.402C346.273 239.789 348.198 242.827 350.53 243.614C353.724 244.742 356.654 246.748 359.087 249.473C359.556 250.078 359.914 250.793 360.14 251.573C360.366 252.352 360.455 253.18 360.4 254.003C360.077 256.395 359.523 258.735 358.748 260.974C358.324 262.193 357.528 263.172 356.523 263.711C355.517 264.25 354.378 264.31 353.337 263.876C351.458 262.764 349.103 260.052 347.949 260.676C346.273 261.625 345.458 264.853 344.281 267.131C344.048 267.596 343.836 268.076 343.647 268.569C342.561 271.282 342.697 277.493 338.554 271.037C335.18 271.905 335.158 268.596 334.954 266.345C334.915 265.204 334.618 264.097 334.096 263.142C333.574 262.186 332.845 261.419 331.988 260.92C331.501 260.722 331.073 260.355 330.76 259.865C330.446 259.376 330.261 258.787 330.227 258.171C330.193 257.556 330.312 256.942 330.569 256.408C330.826 255.873 331.21 255.442 331.671 255.169C334.275 252.945 334.569 250.91 332.328 248.035C331.151 246.516 329.362 245.702 328.049 244.265C326.736 242.827 326.034 240.928 324.744 239.68C323.249 238.167 321.528 237.007 319.672 236.263C318.608 235.91 317.182 237.104 315.643 237.727C318.699 240.63 321.008 242.773 323.295 244.97C324.562 246.191 326.057 253.542 324.902 254.382C322.767 255.919 320.366 256.847 317.884 257.095C315.641 256.784 313.428 256.221 311.273 255.413C310.164 255.47 309.07 255.745 308.036 256.227V257.855L313.854 258.506C315.374 258.602 316.886 258.82 318.382 259.157C320.442 259.699 320.646 261.354 319.265 262.954C317.363 265.043 317.974 266.508 319.537 268.162C323.453 264.337 324.313 264.717 325.242 270.685C325.343 272.056 325.343 273.436 325.242 274.808C326.849 275.622 328.819 277.52 329.77 276.978C333.89 274.618 336.561 278.985 340.251 279.311C341.338 275.893 343.398 277.982 345.3 278.036C346.56 277.92 347.754 277.31 348.696 276.3C349.217 275.784 349.556 273.913 349.239 273.587C348.453 272.596 347.931 271.347 347.742 269.998C347.552 268.65 347.703 267.264 348.175 266.019C353.133 269.274 353.088 269.274 351.956 275.35C351.779 276.586 351.703 277.84 351.73 279.094L359.087 282.62C361.351 285.333 363.117 287.448 364.815 289.428C365.426 290.107 366.332 290.568 366.694 291.409C366.971 292.223 367.384 292.962 367.908 293.579C368.431 294.195 369.055 294.677 369.74 294.995C370.424 295.312 371.156 295.459 371.89 295.425C372.624 295.391 373.344 295.179 374.006 294.799C373.893 296.02 373.78 297.186 373.644 298.488L380.164 298.136C378.297 301.025 376.254 303.745 374.052 306.273C371.448 309.854 373.576 313.651 374.052 317.313C379.53 317.829 385.009 314.791 390.307 318.615C387.296 325.966 392.322 333.562 388.699 340.75L385.1 340.234L382.972 343.625C377.493 342.079 372.195 341.157 370.543 335.487C370.543 333.29 370.95 331.69 370.543 330.876C369.275 328.76 367.577 327.079 366.151 325.126C365.2 323.796 363.615 322.277 363.683 320.948C363.864 316.717 361.759 316.934 359.812 317.883C358.988 318.415 358.039 318.597 357.118 318.4C356.198 318.203 355.359 317.638 354.741 316.798C353.523 315.617 352.229 314.556 350.869 313.624C349.941 315.035 349.035 316.554 348.017 317.964C346.413 320.534 344.584 322.889 342.561 324.99C339.006 328.082 334.773 330.415 336.312 337.278L333.799 333.128C334.229 331.392 334.524 330.144 334.999 328.191L330.901 330.279C331.037 329.493 330.901 328.923 331.173 328.76C333.573 326.889 335.022 323.335 338.146 322.63C339.088 322.147 339.88 321.322 340.41 320.27C341.338 318.805 341.927 317.042 342.9 315.632C345.3 312.16 344.87 310.207 341.565 309.23C341.293 310.128 340.919 310.976 340.455 311.753C340.093 312.241 338.961 312.187 338.87 312.594C338.01 316.554 335.203 317.72 332.69 319.538C331.128 320.677 329.045 322.874 329.045 324.61C329.045 332.558 324.291 337.413 321.982 343.598C320.949 341.839 320.054 339.968 319.31 338.01C319.04 336.757 319.152 335.429 319.627 334.267C320.407 332.476 321.292 330.754 322.276 329.113C320.804 329.113 319.401 329.818 318.88 329.276C316.322 326.563 316.39 326.4 314.171 327.947C314.352 330.849 314.511 333.372 314.647 335.46C313.628 337.251 312.903 339.936 311.454 340.75C310.005 341.564 308.172 345.47 305.093 342.215C304.142 341.184 300.905 343.245 298.709 343.869C298.605 343.905 298.495 343.905 298.392 343.869L292.822 340.831C293.977 346.934 294.882 351.681 295.811 356.645C296.399 359.765 297.395 362.07 300.678 362.206C301.946 362.206 303.168 363.888 303.802 364.349L298.686 370.778L301.199 373.11L300.859 374.277L295.947 372.514C295.267 373.951 294.339 375.714 293.547 377.613C292.234 380.814 290.989 384.042 289.789 387.297C288.838 390.01 287.932 392.586 287.095 395.272C286.637 397.275 286.093 399.249 285.465 401.185C284.498 403.291 283.409 405.312 282.205 407.234C278.854 413.093 278.944 420.01 277.971 426.602C277.631 428.935 276.771 429.775 275.005 428.717C271.773 426.936 268.629 424.934 265.587 422.723C262.395 420.227 259.679 416.782 256.396 414.45C253.34 412.611 250.646 410.012 248.495 406.827C247.929 405.851 247.499 404.793 247.001 403.789C246.545 402.719 246.007 401.702 245.393 400.751C241.612 395.76 242.382 391.366 247.431 388.382C248.461 387.643 249.227 386.474 249.581 385.1C249.916 383.319 250.083 381.5 250.08 379.675C251.507 381.481 252.781 383.453 253.883 385.561C255.332 389.006 257.664 386.917 259.565 387.351L260.177 383.065C260.335 382.143 260.516 381.221 260.924 379.132C261.671 381.275 262.01 382.225 262.237 382.903L268.032 368.065C264.931 363.915 264.297 364.023 262.101 369.042C261.804 369.775 261.54 370.526 261.309 371.293C260.912 372.692 260.268 373.971 259.421 375.044C258.574 376.117 257.543 376.958 256.399 377.509C255.255 378.06 254.026 378.309 252.794 378.238C251.563 378.167 250.359 377.778 249.265 377.098C247.657 381.872 247.318 382.523 242.744 382.821C238.171 383.12 233.372 382.821 229.161 382.821L221.486 393.292L223.75 394.377L218.679 399.612L215.94 395.652C214.762 403.22 213.676 412.09 211.955 420.661C210.406 429.384 208.13 437.899 205.163 446.078C200.803 439.911 198.619 431.953 199.073 423.889C199.358 421.907 199.145 419.868 198.462 418.03C196.832 415.182 194.183 413.12 192.644 410.218C190.221 405.715 185.49 403.41 184.562 397.523C184.562 396.764 183.09 396.031 182.298 395.76C179.83 395.001 177.34 394.485 174.759 393.861C174.43 396.093 173.819 398.252 172.948 400.263C171.419 402.657 170.149 405.273 169.167 408.048C168.359 399.556 167.951 391.016 167.945 382.469C167.839 327.571 184.518 274.527 214.83 233.36Z" fill="#F5F5F5"/>
<path d="M477.649 548.09C477.075 546.665 476.707 545.133 476.562 543.56C476.639 541.934 476.307 540.317 475.609 538.92C474.911 537.522 473.879 536.408 472.646 535.721C469.544 534.039 466.262 533.008 463.069 531.462C462.321 531.246 461.653 530.741 461.168 530.024C459.532 526.915 458.231 523.57 457.296 520.069C456.576 515.19 456.107 510.262 455.893 505.313C455.911 504.77 455.817 504.23 455.621 503.74C453.991 501.217 452.112 498.884 450.663 496.199C449.214 493.514 446.792 489.987 446.656 486.759C446.559 485.814 446.625 484.855 446.851 483.942C447.077 483.029 447.459 482.182 447.971 481.453C448.483 480.725 449.115 480.131 449.828 479.71C450.54 479.288 451.318 479.047 452.112 479.001C452.66 478.803 453.133 478.381 453.448 477.808C457.115 471.867 462.504 473.169 467.575 473.088C467.122 470.538 468.209 469.697 470.427 469.074C475.589 467.663 479.732 464.761 481.226 457.735C482.72 450.71 485.754 448.295 492.274 447.861C494.208 447.386 496.013 446.342 497.526 444.823C498.761 443.615 499.891 442.261 500.9 440.782C501.391 440.013 501.945 439.304 502.552 438.666C504.341 437.201 505.631 434.028 508.008 434.651C510.453 435.642 513.102 435.642 515.547 434.651C517.811 433.431 520.075 432.102 522.814 430.555L525.327 438.693C527.048 435.492 525.327 432.319 524.897 428.955C529.9 432.644 535.651 434.76 536.851 442.952L537.168 442.735C526.176 483.968 505.514 520.541 477.649 548.09Z" fill="#F5F5F5"/>
<path d="M515.434 300.923C509.118 302.632 504.409 298.834 499.36 295.905C498.905 295.614 498.513 295.2 498.214 294.696C497.916 294.193 497.719 293.613 497.639 293.002C497.717 292.273 497.917 291.569 498.229 290.935C498.54 290.301 498.956 289.749 499.451 289.313C500.86 288.62 502.348 288.181 503.865 288.011L501.918 286.492C504.48 284.968 506.914 283.151 509.185 281.067C510.272 279.874 509.91 276.971 510.748 275.208C512.174 272.252 514.053 269.566 515.819 266.609C517.517 269.485 517.969 274.611 522.09 273.364C522.724 273.196 523.325 272.879 523.857 272.432C524.39 271.985 524.843 271.417 525.191 270.76C536.794 297.647 543.725 327.074 545.567 357.263C544.9 356.431 544.138 355.719 543.303 355.147C538.141 351.62 537.847 350.508 539.182 343.401C539.367 341.083 539.367 338.749 539.182 336.43L537.892 342.371C536.669 339.658 534.926 337.678 534.745 335.399C534.428 331.358 532.753 330.436 529.9 330.381C528.768 330.226 527.652 329.926 526.572 329.486L527.523 328.971C527.342 326.963 527.772 323.871 526.867 323.166C523.284 320.588 519.572 318.278 515.751 316.249L518.173 322.488L517.336 322.732L505.518 315.191L506.039 314.106L507.51 315.11L506.695 311.8C506.953 311.806 507.205 311.891 507.427 312.048C507.65 312.205 507.834 312.428 507.963 312.696C510.227 316.493 511.246 316.791 514.415 314.052C516.792 312.017 517.653 309.685 515.14 306.809C514.913 306.565 515.502 304.476 515.819 304.449C517.146 304.28 518.489 304.399 519.781 304.802C521.499 305.526 523.184 306.359 524.829 307.298C522.18 304.205 519.486 299.811 515.434 300.923Z" fill="#F5F5F5"/>
<path d="M352.794 454.127C351.915 455.877 351.593 457.948 351.888 459.959C353.382 465.954 353.405 470.945 349.33 475.963C347.616 478.162 346.302 480.763 345.472 483.602C344.642 486.441 344.314 489.456 344.508 492.456C344.568 493.278 344.392 494.101 344.01 494.788C342.357 497.501 343.353 499.4 344.463 502.112C346.908 508.08 349.217 514.21 345.798 521.236C343.347 525.278 341.825 530.02 341.384 534.988C341.476 540.224 339.934 545.312 337.059 549.256C335.021 551.657 333.815 554.894 333.686 558.316C333.901 559.795 333.705 561.317 333.128 562.65C332.552 563.983 331.626 565.052 330.494 565.694C329.453 565.142 328.368 564.715 327.257 564.419C324.156 564.334 321.067 563.944 318.02 563.253C310.368 560.54 306.7 552.755 302.716 545.323C301.991 543.967 302.444 541.715 302.331 539.084C301.878 538.786 300.837 537.999 299.727 537.375C299.058 537.119 298.441 536.697 297.916 536.138C297.391 535.578 296.97 534.892 296.68 534.126C296.39 533.359 296.237 532.528 296.232 531.686C296.226 530.844 296.368 530.01 296.649 529.238C296.988 527.827 297.554 526.525 297.826 525.006C298.007 524.192 298.097 522.917 297.826 522.511C295.268 519.798 292.483 517.085 289.97 514.373C288.34 512.528 286.189 510.467 285.782 508.107C285.382 504.487 285.535 500.811 286.234 497.257C286.551 494.843 287.887 492.618 288.249 490.204C288.612 487.79 287.185 484.508 289.54 482.067C289.834 481.768 289.676 480.331 289.336 479.761C285.533 473.441 282.544 466.008 277.564 461.234C271.066 454.941 267.851 446.695 264.274 438.422C263.543 435.913 263.116 433.291 263.007 430.637C267.942 432.156 272.311 433.621 276.749 434.76C277.223 434.785 277.694 434.672 278.124 434.431C278.554 434.19 278.929 433.828 279.216 433.376C279.941 431.885 279.85 429.687 280.711 428.412C282.341 426.025 284.491 424.208 286.28 421.984C287.277 420.824 288.05 419.417 288.544 417.861C290.015 412.436 293.366 408.231 293.887 402.128C294.204 398.385 297.101 395.021 298.414 391.278C300.21 386.673 301.798 381.955 303.169 377.145C304.165 373.592 305.817 373.89 308.172 374.65C309.898 375.347 311.743 375.515 313.537 375.138C317.057 373.928 320.518 372.489 323.906 370.825C326.962 369.442 329.385 371.042 329.656 374.731C329.86 377.444 330.811 378.827 332.939 376.956C335.067 375.084 339.256 376.088 340.025 371.314C340.025 371.151 340.84 371.313 341.202 371.069C344.417 369.415 348.809 371.531 350.598 367.435C349.737 364.342 349.013 361.738 348.198 358.89C349.688 358.495 351.202 358.25 352.726 358.158C356.62 358.32 360.536 358.483 364.408 359.107C367.166 359.547 369.866 360.403 372.445 361.657C376.565 363.691 380.527 365.482 384.217 361.928C385.711 364.393 387.496 366.586 389.515 368.438C390.684 369.133 391.665 370.21 392.346 371.544C393.027 372.878 393.38 374.415 393.363 375.979C393.363 380.943 395.627 382.679 398.865 383.9C399.698 384.176 400.431 384.778 400.947 385.609C402.872 389.379 404.819 393.204 406.471 397.137C407.649 399.849 409.777 402.318 407.626 406.36C406.54 409.373 406.459 412.771 407.4 415.853C408.372 419.894 408.657 424.129 408.237 428.304C408.237 429.199 407.445 430.067 406.901 430.854C406.358 431.64 405.679 431.993 405.249 432.725C403.463 436.281 401.489 439.697 399.34 442.952C396.872 445.769 394.263 448.405 391.529 450.845C390.817 451.59 389.939 452.07 389.003 452.229C388.066 452.388 387.112 452.218 386.254 451.74C383.441 451.097 380.584 450.77 377.72 450.764C376.618 450.701 375.526 450.501 374.459 450.167C372.288 449.066 370.066 448.115 367.804 447.319C365.54 446.722 362.438 445.013 361.397 449.109C360.446 452.798 358.703 452.663 356.235 452.391C355.589 452.352 354.945 452.488 354.349 452.789C353.753 453.089 353.222 453.547 352.794 454.127Z" fill="#EDF2F4"/>
<path d="M495.104 219.927C494.443 219.68 493.812 219.334 493.225 218.896L487.701 223.507L494.764 222.286L494.923 223.561L488.131 226.572V230.587L496.213 235.524L492.5 239.05C492.686 240.215 492.686 241.411 492.5 242.576C489.942 248.869 487.339 255.135 484.554 261.266C483.781 262.843 482.672 264.144 481.339 265.036C479.432 266.253 477.457 267.313 475.43 268.21C473.936 269.024 472.51 269.919 472.057 266.772C471.604 263.626 470.948 260.805 470.337 257.821C470.223 257.278 470.065 256.519 469.725 256.329C466.941 254.593 466.443 251.799 466.465 248.191C466.465 247.052 464.835 244.855 464.088 244.936C458.609 245.56 455.168 242.224 452.202 237.314C451.387 235.958 449.939 234.276 448.829 234.195C441.653 233.652 435.608 229.8 429.224 225.406L437.804 224.348L435.54 220.984L428.748 224.402C428.551 223.647 428.482 222.853 428.546 222.065C428.609 221.278 428.804 220.514 429.119 219.818C429.433 219.123 429.861 218.51 430.377 218.016C430.893 217.522 431.486 217.157 432.122 216.943C435.065 215.587 435.359 213.688 433.842 211.246H425.964L428.228 208.181L423.179 207.313L425.443 204.601C421.504 201.4 426.665 199.8 426.349 197.385L421.458 197.006C422.364 195.378 422.862 193.425 423.858 192.91C425.455 192.429 427.108 192.273 428.748 192.449C424.22 184.311 416.5 181.598 409.437 177.665C411.332 176.438 413.426 175.717 415.576 175.553C417.726 175.389 419.879 175.786 421.889 176.716C425.543 177.933 429.266 178.84 433.027 179.428C432.687 178.804 432.008 177.475 431.307 176.119C432.755 176.309 434.204 176.553 435.653 176.689C436.446 176.689 437.261 176.689 438.076 176.689L438.189 175.034L429.337 173.244C432.348 172.267 435.223 170.884 438.121 170.206C459.556 182.338 478.888 199.207 495.104 219.927Z" fill="#F5F5F5"/>
<path d="M519.033 257.631L520.097 259.828C519.396 260.099 518.671 260.398 517.834 260.75L519.033 257.631Z" fill="#D1D3D4"/>
<path d="M508.755 239.647H508.868C509.442 240.551 509.985 241.455 510.498 242.359L508.755 239.647Z" fill="#D1D3D4"/>
<path d="M515.751 256.437C515.486 254.896 515.557 253.299 515.955 251.799C516.747 253.237 517.494 254.674 518.219 256.139L515.751 256.437Z" fill="#D1D3D4"/>
<path d="M279.126 526.498C280.326 529.59 279.986 535.504 277.926 537.619C277.459 538.122 276.896 538.478 276.287 538.656C275.677 538.834 275.041 538.829 274.433 538.641C273.826 538.453 273.267 538.088 272.806 537.579C272.345 537.069 271.996 536.431 271.791 535.721C269.821 527.963 268.101 520.151 266.289 512.339C266.154 511.742 266.289 510.982 265.95 510.521C265.174 509.083 264.863 507.355 265.076 505.662C265.288 503.968 266.01 502.426 267.104 501.326C270.885 504.716 271.293 512.176 278.084 511.796C278.084 514.509 277.949 516.896 278.084 519.337C278.09 521.777 278.442 524.199 279.126 526.498Z" fill="#D1D3D4"/>
<path d="M369.932 278.111C369.615 277.107 368.823 275.669 369.117 275.235C369.609 274.686 370.237 274.343 370.905 274.259C373.531 269.892 375.841 266.121 378.286 262.079C376.293 257.848 376.361 256.275 379.033 254.186C380.663 252.911 384.398 254.701 386.096 257.604C386.889 258.933 385.757 261.428 382.814 264.765L383.221 267.288C382.655 267.288 382.225 267.288 381.999 267.505C380.957 268.454 379.395 269.268 379.078 270.543C378.761 271.817 379.735 273.255 381.342 272.469C381.763 272.833 382.067 273.36 382.202 273.96C382.272 275.578 382.272 277.198 382.202 278.816L379.372 279.819L384.376 284.404L370.792 281.827C370.453 279.847 370.181 278.897 369.932 278.111Z" fill="#F5F5F5"/>
<path d="M260.698 201.1C263.233 204.396 265.956 207.478 268.848 210.322C265.248 214.5 260.652 215.069 255.06 214.825C256.6 213.523 257.868 212.899 258.456 211.787C259.045 210.675 259.498 208.478 259 207.718C256.524 204.137 253.436 201.232 249.944 199.201C251.121 198.116 252.208 197.031 253.544 196C256.321 196.743 258.827 198.53 260.698 201.1Z" fill="#F5F5F5"/>
<path d="M424.854 256.465C423.524 256.858 422.133 256.858 420.802 256.465C418.707 255.808 416.733 254.686 414.984 253.155C413.671 251.853 410.682 250.795 412.109 247.73C413.504 245.577 415.151 243.677 416.999 242.088L417.27 243.417L427.549 246.374L430.061 242.359L429.654 243.688L434.182 246.808L433.706 247.513H428.884L433.254 250.226L428.409 251.907L430.854 254.077C428.794 255.027 426.847 255.949 424.854 256.465Z" fill="#F5F5F5"/>
<path d="M336.629 188.407C334.365 186.291 332.6 184.419 330.653 182.819C330.302 182.607 329.914 182.496 329.521 182.496C329.128 182.496 328.74 182.607 328.389 182.819C327.823 183.28 327.71 184.501 327.302 185.532H320.737L320.601 184.067L339.097 175.224L337.965 178.235L348.968 177.096L349.217 178.479C347.829 180.067 346.22 181.352 344.463 182.277C342.646 182.414 340.824 182.128 339.097 181.436L338.984 182.439L343.172 184.257L343.014 184.935L339.708 185.315L341.972 186.698L336.629 188.407Z" fill="#F5F5F5"/>
<path d="M385.53 270.76C383.945 269.62 383.696 268.047 385.258 267.098C386.82 266.148 388.632 264.385 390.42 267.098C391.394 268.427 392.548 269.539 393.884 271.031V277.405L394.971 278.056C394.382 278.626 393.658 279.819 393.227 279.684C390.768 278.966 388.383 277.92 386.119 276.564C385.553 276.185 385.983 273.689 385.892 272.197C385.87 271.546 385.779 270.76 385.53 270.76Z" fill="#F5F5F5"/>
<path d="M543.574 399.334C544.029 399.063 544.507 398.854 545.001 398.71C545.001 399.669 544.91 400.618 544.729 401.558C543.376 402.11 542.06 402.781 540.79 403.566C539.431 404.379 538.526 406.278 537.235 408.34L531.01 407.472C535.538 404.542 539.477 401.775 543.574 399.334Z" fill="#D1D3D4"/>
<path d="M519.079 413.005C518.807 409.37 524.263 407.065 529.153 408.665L526.55 412.246L531.689 411.703C527.659 415.067 523.29 412.598 519.079 413.005Z" fill="#D1D3D4"/>
<path d="M315.145 175.577H332.509C330.25 177.022 327.812 178.02 325.287 178.533C321.9 178.586 318.513 178.396 315.145 177.964V175.577Z" fill="#F5F5F5"/>
<path d="M199.504 447.753C198.53 447.292 197.24 445.04 197.443 444.227C198.394 441.643 199.546 439.173 200.885 436.849L201.926 437.391C201.926 439.887 201.926 442.382 201.926 444.851C201.926 447.319 201.451 448.621 199.504 447.753Z" fill="#D1D3D4"/>
<path d="M352.273 317.171L354.537 318.256V325.227C350.688 324.983 352.454 321.267 351.684 319.26C351.481 318.799 352.047 317.931 352.273 317.171Z" fill="#D1D3D4"/>
<path d="M339.799 328.51H345.934L346.115 329.351L340.501 333.446C340.252 331.602 340.003 329.947 339.799 328.51Z" fill="#D1D3D4"/>
<path d="M604.901 170.769L610.35 174.119L635.904 111.956L630.455 108.606L604.901 170.769Z" fill="#E18DFF"/>
<path d="M610.245 175.615C610.077 175.656 609.903 175.656 609.735 175.615L604.301 172.251C604.169 172.173 604.052 172.064 603.955 171.931C603.859 171.797 603.784 171.641 603.737 171.472C603.69 171.303 603.67 171.125 603.679 170.947C603.688 170.768 603.726 170.594 603.79 170.434L629.364 108.127C629.426 107.967 629.513 107.824 629.621 107.707C629.728 107.59 629.855 107.5 629.992 107.445C630.129 107.389 630.273 107.368 630.417 107.382C630.561 107.397 630.701 107.447 630.828 107.53L636.218 110.894C636.35 110.971 636.467 111.081 636.563 111.215C636.659 111.349 636.732 111.506 636.778 111.676C636.823 111.845 636.84 112.024 636.828 112.202C636.816 112.38 636.774 112.553 636.706 112.711L611.221 174.883C611.087 175.202 610.856 175.445 610.578 175.561L610.245 175.615ZM606.275 170.19L609.757 172.333L634.311 112.657L630.828 110.514L606.275 170.19Z" fill="#E18DFF"/>
<path d="M519.864 136.666C510.549 136.666 499.902 139.188 495.045 148.818C493.458 151.936 492.618 155.535 492.618 159.207C492.618 162.879 493.458 166.478 495.045 169.596C496.716 172.627 499.078 174.99 501.839 176.394C504.599 177.797 507.635 178.178 510.571 177.489C515.007 176.296 518.755 172.634 522.97 170.437C528.98 167.29 535.723 167.236 542.111 165.5C544.158 165.125 546.083 164.075 547.678 162.462C549.218 160.517 550.09 157.926 550.118 155.219C551.028 135.933 530.311 136.666 519.864 136.666Z" fill="#E18DFF"/>
<path d="M628.712 195.887C629.356 193.473 642.464 173.997 642.952 169.766C643.44 165.534 640.512 148.065 643.44 145.651C646.368 143.237 651.758 159.567 651.758 159.567C651.758 159.567 663.225 134.042 666.485 135.696C669.746 137.351 668.703 151.483 666.885 160.109C665.066 168.735 644.261 211.078 644.261 211.078L628.712 195.887Z" fill="white"/>
<path d="M644.109 211.246C643.861 211.252 643.619 211.157 643.421 210.975L627.895 195.839C627.723 195.66 627.598 195.424 627.534 195.158C627.471 194.893 627.473 194.611 627.54 194.347C629.007 191.164 630.707 188.149 632.619 185.342C636.146 179.51 641.491 170.694 641.758 168.442C641.799 165.958 641.688 163.474 641.425 161.01C640.715 151.923 640.405 145.332 642.689 143.406C642.976 143.158 643.306 142.997 643.653 142.936C644 142.874 644.354 142.915 644.685 143.053C647.303 144.002 650.253 151.191 651.783 155.341C657.062 143.84 663.561 131.66 666.799 133.315C671.723 135.811 668.884 154.419 667.864 159.274C665.979 167.927 646.016 208.859 645.063 210.595C644.98 210.761 644.871 210.905 644.741 211.017C644.611 211.129 644.464 211.207 644.308 211.246H644.109ZM629.958 194.401L643.798 207.964C647.325 200.722 664.093 166.11 665.668 158.65C667.886 148.614 667.886 136.95 665.912 135.892C664.16 136.055 657.572 148.044 652.604 159.166C652.503 159.392 652.351 159.579 652.167 159.704C651.982 159.829 651.772 159.887 651.561 159.871C651.353 159.846 651.154 159.752 650.986 159.599C650.818 159.446 650.687 159.24 650.608 159.003C648.101 151.462 645.018 145.711 643.954 145.711C642.534 146.905 643.244 155.965 643.599 160.847C643.911 163.542 644.023 166.266 643.931 168.985C643.621 171.697 639.761 178.208 634.372 187.105C632.708 189.763 630.756 192.91 629.958 194.401Z" fill="#231F20"/>
<path d="M650.086 552.064C650.086 552.064 666.455 587.49 665.324 587.653C664.192 587.816 637.998 597.255 637.998 597.255C637.998 597.255 622.582 568.502 622.804 567.77C623.026 567.038 650.086 552.064 650.086 552.064Z" fill="white"/>
<path d="M637.998 598.611C637.815 598.612 637.635 598.554 637.476 598.445C637.317 598.336 637.183 598.178 637.088 597.988C621.34 568.665 621.562 568.15 621.762 567.309C621.961 566.468 622.139 566.061 649.642 550.844C649.893 550.699 650.181 550.677 650.445 550.783C650.709 550.889 650.93 551.114 651.062 551.413C667.165 586.297 666.588 587.463 666.344 588.222C666.253 588.431 666.123 588.611 665.965 588.747C665.808 588.884 665.626 588.974 665.435 589.009C664.37 589.199 648.622 594.841 638.33 598.557L637.998 598.611ZM624.224 568.312C625.954 572.11 633.428 586.242 638.485 595.655C644.541 593.485 659.557 588.087 663.993 586.649C662.44 582.092 654.81 565.084 649.62 553.827C640.681 558.764 627.484 566.197 624.224 568.312Z" fill="#231F20"/>
<path d="M665.324 587.653C665.324 587.653 709.684 584.696 711.902 594.353C714.12 604.009 648.622 628.639 648.622 628.639L637.975 597.255L665.324 587.653Z" fill="#231F20"/>
<path d="M648.644 629.968C648.428 629.969 648.216 629.893 648.034 629.748C647.853 629.604 647.71 629.397 647.624 629.155L636.977 597.798C636.911 597.623 636.877 597.434 636.877 597.242C636.877 597.05 636.911 596.86 636.977 596.686C637.043 596.514 637.138 596.362 637.257 596.24C637.376 596.118 637.515 596.03 637.665 595.98L664.969 586.378H665.213C672.776 585.89 710.594 583.882 712.922 594.054C715.251 604.226 664.525 624.136 648.932 629.996C648.836 630.006 648.738 629.997 648.644 629.968ZM639.506 598.123L649.287 626.985C679.985 615.348 712.035 599.859 710.86 594.705C709.485 588.792 683.556 587.788 665.501 588.982L639.506 598.123Z" fill="#231F20"/>
<path d="M598.072 558.602L586.782 573.9L566.288 547.534L582.746 526.431L598.072 558.602Z" fill="white"/>
<path d="M586.782 575.257C586.629 575.255 586.477 575.215 586.336 575.141C586.195 575.066 586.068 574.958 585.962 574.822L565.489 548.457C565.287 548.208 565.174 547.871 565.174 547.521C565.174 547.17 565.287 546.834 565.489 546.585L581.947 525.508C582.064 525.354 582.21 525.236 582.372 525.165C582.534 525.094 582.708 525.072 582.879 525.102C583.05 525.126 583.215 525.197 583.361 525.31C583.506 525.423 583.63 525.574 583.721 525.753L599.026 557.896C599.146 558.145 599.198 558.435 599.174 558.723C599.15 559.011 599.052 559.282 598.893 559.497L587.603 574.795C587.384 575.065 587.093 575.229 586.782 575.257ZM567.818 547.534L586.76 571.947L596.697 558.384L582.546 528.547L567.818 547.534Z" fill="#231F20"/>
<path d="M586.782 573.9C586.782 573.9 601.577 628.504 593.813 627.771C586.05 627.039 549.231 570.157 549.231 570.157L566.288 547.534L586.782 573.9Z" fill="#231F20"/>
<path d="M593.969 629.128H593.836C585.851 628.368 552.27 576.884 548.477 571.025C548.309 570.777 548.218 570.465 548.218 570.143C548.218 569.822 548.309 569.51 548.477 569.262L565.534 546.639C565.64 546.504 565.767 546.396 565.908 546.321C566.049 546.247 566.201 546.207 566.354 546.205C566.654 546.206 566.941 546.353 567.153 546.612L587.647 572.978C587.75 573.134 587.832 573.307 587.891 573.493C590.109 581.387 600.49 621.099 596.142 627.88C595.888 628.285 595.558 628.61 595.18 628.827C594.801 629.044 594.386 629.147 593.969 629.128ZM550.673 570.211C564.89 592.074 588.69 625.927 593.902 626.415C593.988 626.436 594.076 626.423 594.156 626.379C594.235 626.336 594.302 626.263 594.346 626.171C597.118 621.858 590.597 592.373 585.806 574.633L566.31 549.542L550.673 570.211Z" fill="#231F20"/>
<path d="M610.87 298.821C610.87 298.821 700.39 417.332 701.809 429.023C704.538 451.646 599.78 567.797 599.78 567.797L575.781 527.733L638.196 438.789L556.129 301.751L610.87 298.821Z" fill="#231F20"/>
<path d="M599.736 569.126H599.603C599.45 569.105 599.302 569.046 599.169 568.953C599.035 568.859 598.919 568.734 598.826 568.584L574.849 528.492C574.695 528.253 574.611 527.957 574.611 527.651C574.611 527.346 574.695 527.05 574.849 526.811L636.644 438.734L555.22 302.538C555.099 302.342 555.024 302.109 555.005 301.865C554.985 301.621 555.021 301.375 555.109 301.154C555.195 300.932 555.33 300.744 555.498 300.61C555.666 300.475 555.862 300.401 556.063 300.395L610.782 297.465C610.94 297.448 611.1 297.478 611.247 297.554C611.394 297.63 611.524 297.748 611.624 297.899C620.829 310.078 701.432 417.061 702.852 428.779C704.027 438.626 687.104 465.209 652.525 507.823C627.106 539.342 600.734 568.502 600.49 568.774C600.39 568.892 600.272 568.984 600.143 569.045C600.013 569.106 599.874 569.133 599.736 569.126ZM577.156 527.76L599.891 565.736C629.546 532.805 702.852 446.953 700.7 429.159C699.724 421.021 646.292 347.783 610.404 300.178L558.259 302.89L638.995 437.921C639.157 438.156 639.247 438.454 639.247 438.761C639.247 439.069 639.157 439.367 638.995 439.602L577.156 527.76Z" fill="#231F20"/>
<path d="M537.098 325.106L668.117 586.731L704.892 560.853L596.453 300.693L537.098 325.106Z" fill="#231F20"/>
<path d="M668.117 588.087C667.926 588.088 667.738 588.029 667.571 587.915C667.403 587.801 667.263 587.636 667.164 587.436L536.167 325.811C536.102 325.627 536.068 325.429 536.068 325.228C536.068 325.027 536.102 324.829 536.167 324.645C536.226 324.456 536.318 324.285 536.437 324.145C536.556 324.004 536.698 323.897 536.855 323.831L596.054 299.418C596.302 299.311 596.575 299.318 596.819 299.437C597.064 299.557 597.265 299.782 597.385 300.069L705.846 560.229C705.974 560.54 706 560.899 705.917 561.233C705.835 561.566 705.65 561.848 705.403 562.019L668.628 587.924C668.469 588.022 668.295 588.077 668.117 588.087ZM538.762 325.838L668.495 584.913L703.429 560.31L595.898 302.348L538.762 325.838Z" fill="#231F20"/>
<path d="M670.646 476.412C670.443 476.417 670.242 476.354 670.066 476.23C669.89 476.106 669.745 475.924 669.648 475.706L608.098 331.942C608.01 331.741 607.965 331.518 607.965 331.291C607.965 331.063 608.01 330.84 608.098 330.64L614.596 316.399C614.664 316.243 614.756 316.105 614.868 315.992C614.979 315.88 615.108 315.797 615.246 315.746C615.385 315.696 615.53 315.679 615.674 315.698C615.817 315.717 615.956 315.771 616.083 315.856C616.211 315.941 616.324 316.057 616.416 316.196C616.508 316.335 616.577 316.494 616.618 316.666C616.659 316.837 616.672 317.017 616.656 317.194C616.641 317.372 616.596 317.544 616.526 317.701L610.316 331.263L671.6 474.404C671.734 474.725 671.761 475.098 671.673 475.442C671.586 475.787 671.393 476.076 671.134 476.249C670.982 476.341 670.816 476.397 670.646 476.412Z" fill="white"/>
<path d="M545.039 135.635C539.317 134.36 533.638 132.787 528.049 130.888C523.968 129.505 519.598 127.66 517.38 123.266C521.04 121.204 522.615 116.05 523.857 111.385L532.175 79.8379C534.109 71.0128 537.099 62.5854 541.047 54.8283C544.019 49.566 556.772 34.0502 561.497 43.7069C566.865 38.6344 578.199 34.9453 584.564 38.77C588.19 41.1033 591.355 44.3748 593.841 48.3567C596.327 52.3386 598.074 56.9352 598.959 61.8266C600.033 69.9568 599.708 78.2715 598.006 86.2395C597.798 87.8744 597.379 89.4585 596.764 90.9322C595.632 92.8672 594.191 94.5007 592.527 95.7334C580.891 106.065 571.514 119.741 565.223 135.554C564.948 136.677 564.349 137.641 563.537 138.266C562.898 138.546 562.209 138.611 561.541 138.456C556.129 137.751 550.54 136.828 545.039 135.635Z" fill="#2B4C8D"/>
<path d="M562.362 139.785C562.029 139.785 561.719 139.785 561.43 139.785C555.907 139.161 550.34 138.239 544.906 137.073C539.161 135.825 533.394 134.197 527.783 132.298C523.347 130.779 518.911 128.745 516.493 124.161C516.406 123.999 516.349 123.815 516.326 123.623C516.303 123.431 516.314 123.235 516.36 123.049C516.408 122.866 516.486 122.697 516.588 122.553C516.691 122.408 516.817 122.291 516.959 122.208C520.153 120.418 521.617 115.752 522.837 111.141L531.176 79.6209C533.147 70.6513 536.205 62.0933 540.248 54.2315C542.732 49.8372 551.161 39.4482 557.327 39.4482H557.571C558.392 39.4742 559.199 39.7153 559.937 40.1551C560.676 40.595 561.329 41.2234 561.852 41.9979C567.508 37.3595 578.398 33.6976 585.163 37.7393C588.938 40.1688 592.235 43.5748 594.824 47.7206C597.414 51.8663 599.233 56.6522 600.157 61.7453C601.277 70.0713 600.952 78.5925 599.203 86.7549C598.979 88.5361 598.514 90.2594 597.828 91.8545C596.713 93.8671 595.261 95.5681 593.57 96.8455L593.281 97.0897C581.757 107.25 572.462 120.732 566.221 136.34C565.826 137.709 565.038 138.856 564.003 139.568C563.477 139.795 562.915 139.87 562.362 139.785ZM519.044 123.7C521.624 126.728 524.868 128.773 528.382 129.586C533.927 131.458 539.627 133.058 545.283 134.306C550.673 135.499 556.173 136.394 561.63 137.018C562.104 137.158 562.598 137.158 563.072 137.018C563.56 136.747 563.914 135.852 564.225 135.065C570.627 119.053 580.167 105.225 591.995 94.8111L592.261 94.567C593.701 93.4946 594.947 92.073 595.921 90.3897C596.471 89.05 596.845 87.6129 597.03 86.131C598.709 78.3341 599.034 70.1934 597.983 62.2335C597.142 57.5374 595.471 53.1231 593.088 49.2997C590.705 45.4762 587.667 42.3361 584.187 40.0992C578.465 36.6814 567.53 39.9093 562.273 44.8732C562.154 44.994 562.015 45.081 561.866 45.1279C561.716 45.1748 561.56 45.1805 561.408 45.1445C561.231 45.1204 561.062 45.0435 560.915 44.9205C560.768 44.7975 560.648 44.6322 560.565 44.4392C560.266 43.7205 559.813 43.1142 559.254 42.6844C558.696 42.2547 558.053 42.0175 557.393 41.9979H557.238C552.026 41.9979 544.13 51.8173 541.978 55.5606C538.043 63.2096 535.053 71.5274 533.106 80.2448L524.766 111.765C523.768 116.24 522.26 121.123 519.044 123.7Z" fill="#231F20"/>
<path d="M598.272 97.9849C598.272 97.9849 605.192 116.62 602.841 119.685C600.49 122.75 594.546 119.278 594.546 119.278" fill="white"/>
<path d="M599.958 122.398C597.917 122.271 595.918 121.644 594.08 120.553C593.819 120.39 593.62 120.109 593.525 119.77C593.429 119.431 593.446 119.061 593.57 118.736C593.633 118.575 593.723 118.432 593.832 118.313C593.941 118.195 594.069 118.104 594.207 118.046C594.345 117.989 594.491 117.964 594.637 117.976C594.782 117.987 594.925 118.033 595.056 118.112C596.409 118.926 600.601 120.824 602.042 118.817C603.041 117.515 600.8 107.967 597.274 98.5545C597.154 98.227 597.145 97.8548 597.249 97.5193C597.352 97.1837 597.561 96.9122 597.828 96.7642C597.96 96.6877 598.104 96.6447 598.25 96.6375C598.396 96.6304 598.541 96.6594 598.678 96.7227C598.815 96.786 598.94 96.8823 599.045 97.006C599.151 97.1296 599.235 97.278 599.292 97.4423C601.51 103.274 606.257 117.244 603.728 120.662C603.239 121.266 602.648 121.733 601.998 122.033C601.347 122.332 600.651 122.457 599.958 122.398Z" fill="#231F20"/>
<path d="M599.248 75.3621C604.283 82.2791 601.022 94.16 599.935 102.108C598.457 113.284 596.719 124.414 594.723 135.499C593.503 142.525 578.465 139.758 576.091 137.127L574.428 160.862C574.428 160.862 569.216 173.122 557.992 163.9C546.769 154.677 545.172 144.803 545.172 144.803L550.362 112.524C550.362 112.524 560.277 114.531 568.107 101.213C575.936 87.8941 578.509 65.6512 578.509 65.6512C578.509 65.6512 594.324 68.6079 599.248 75.3621Z" fill="white"/>
<path d="M565.844 168.701C562.785 168.54 559.834 167.264 557.371 165.039C545.904 155.626 544.063 145.373 544.063 144.939C544.019 144.762 544.019 144.573 544.063 144.396L549.276 112.253C549.339 111.913 549.504 111.614 549.737 111.413C549.971 111.213 550.257 111.125 550.54 111.168C550.917 111.168 559.9 112.822 567.131 100.318C574.628 87.4329 577.289 65.5698 577.311 65.3528C577.331 65.1742 577.38 65.0024 577.456 64.8484C577.533 64.6943 577.634 64.5613 577.755 64.4577C577.871 64.3487 578.002 64.2686 578.143 64.2221C578.284 64.1756 578.431 64.1634 578.576 64.1865C579.241 64.1865 594.945 67.3059 600.068 74.3314C604.638 80.5973 602.996 90.2269 601.71 97.9576C601.444 99.4766 601.2 100.914 601.022 102.216C599.514 113.365 597.762 124.595 595.81 135.662C595.559 136.825 595.049 137.88 594.336 138.709C593.623 139.538 592.736 140.108 591.773 140.355C586.877 141.732 581.76 141.336 577.045 139.215L575.537 160.916C575.513 161.094 575.468 161.268 575.404 161.431C573.878 164.743 571.355 167.195 568.373 168.267C567.547 168.535 566.698 168.68 565.844 168.701ZM546.303 144.641C546.636 146.16 548.898 154.813 558.613 162.787C559.891 164.043 561.373 164.952 562.96 165.452C564.547 165.953 566.203 166.034 567.818 165.69C570.131 164.839 572.101 162.962 573.341 160.428L574.983 137.018C575.001 136.768 575.075 136.529 575.198 136.327C575.321 136.126 575.487 135.97 575.678 135.877C575.868 135.784 576.077 135.758 576.279 135.802C576.481 135.845 576.67 135.956 576.823 136.123C578.132 137.561 586.383 139.731 591.085 137.886C592.572 137.29 593.437 136.394 593.636 135.174C595.566 124.134 597.318 112.931 598.826 101.837C599.026 100.48 599.27 99.124 599.536 97.4693C600.734 90.3354 602.242 81.4382 598.405 76.203C594.523 70.7779 582.879 68.0654 579.33 67.1703C578.62 72.2698 575.714 90.2811 568.927 101.945C562.14 113.609 554.177 114.07 551.183 113.907L546.303 144.641Z" fill="#231F20"/>
<path d="M595.588 127.118C595.588 127.118 587.803 131.078 585.185 121.367L595.588 127.118Z" fill="white"/>
<path d="M592.061 129.26C590.24 129.325 588.457 128.617 587.014 127.258C585.571 125.898 584.557 123.971 584.143 121.801C584.091 121.63 584.069 121.448 584.076 121.266C584.083 121.083 584.121 120.905 584.186 120.741C584.251 120.577 584.342 120.43 584.454 120.31C584.567 120.19 584.698 120.099 584.84 120.043C584.981 119.986 585.131 119.965 585.28 119.981C585.428 119.997 585.573 120.049 585.704 120.135C585.836 120.22 585.952 120.338 586.046 120.479C586.14 120.621 586.209 120.785 586.25 120.96C586.48 121.987 586.878 122.947 587.419 123.782C587.96 124.616 588.634 125.308 589.4 125.816C591.238 126.656 593.262 126.656 595.1 125.816C595.364 125.717 595.648 125.743 595.897 125.887C596.146 126.031 596.343 126.284 596.448 126.595C596.553 126.907 596.56 127.255 596.467 127.572C596.373 127.89 596.186 128.153 595.943 128.311C594.706 128.91 593.391 129.231 592.061 129.26Z" fill="#231F20"/>
<path d="M579.818 101.755C579.93 98.9154 579.385 96.0944 578.243 93.6176C577.616 91.5347 576.725 89.5851 575.603 87.8399C575.028 86.9963 574.31 86.3165 573.498 85.8479C572.685 85.3794 571.799 85.1335 570.901 85.1274C570.11 85.2079 569.342 85.491 568.647 85.9583C567.951 86.4257 567.344 87.0668 566.864 87.8399C565.911 89.4493 565.273 91.3057 565.001 93.265C564.31 97.4439 564.526 101.771 565.627 105.816C566.729 109.861 568.677 113.483 571.278 116.322L570.879 115.562" fill="white"/>
<path d="M571.278 117.678C571.017 117.677 570.765 117.562 570.569 117.352C567.809 114.351 565.742 110.517 564.575 106.233C563.407 101.949 563.179 97.365 563.914 92.9395C564.232 90.8166 564.946 88.8117 565.999 87.0804C566.568 86.138 567.297 85.3569 568.135 84.7905C568.973 84.224 569.902 83.8856 570.857 83.7982C571.925 83.7933 572.981 84.0835 573.945 84.6471C574.909 85.2107 575.756 86.0332 576.424 87.0533C577.619 88.8792 578.577 90.9195 579.263 93.1023C580.49 95.8272 581.059 98.9218 580.905 102.027C580.861 102.377 580.706 102.693 580.474 102.906C580.241 103.119 579.95 103.212 579.662 103.166C579.517 103.146 579.377 103.09 579.249 103.002C579.122 102.915 579.01 102.796 578.921 102.654C578.832 102.513 578.768 102.35 578.731 102.177C578.694 102.004 578.687 101.824 578.709 101.647C578.799 99.0506 578.292 96.4756 577.245 94.2144C576.636 92.2683 575.799 90.4408 574.761 88.7893C574.297 88.0981 573.72 87.5334 573.066 87.1316C572.413 86.7298 571.698 86.4998 570.968 86.4565C570.33 86.5375 569.713 86.7794 569.156 87.1669C568.598 87.5545 568.113 88.0792 567.729 88.7079C566.904 90.1438 566.344 91.7821 566.088 93.5091C565.476 97.1909 565.612 101 566.481 104.603C567.351 108.206 568.93 111.494 571.079 114.179C571.223 114.206 571.362 114.271 571.484 114.369C571.607 114.467 571.71 114.597 571.788 114.748L572.21 115.508C572.323 115.713 572.389 115.952 572.399 116.199C572.409 116.447 572.364 116.692 572.268 116.91C572.172 117.128 572.029 117.31 571.854 117.436C571.68 117.562 571.481 117.626 571.278 117.624V117.678Z" fill="#231F20"/>
<path d="M576.091 137.127C576.091 137.127 568.683 132.651 565.911 125.436C565.911 125.436 564.203 142.552 575.493 149.849L576.091 137.127Z" fill="#231F20"/>
<path d="M575.493 151.178C575.314 151.176 575.139 151.12 574.983 151.015C563.16 143.42 564.78 125.436 564.802 125.273C564.835 124.98 564.943 124.706 565.11 124.492C565.277 124.278 565.495 124.134 565.733 124.079C565.97 124.038 566.211 124.089 566.422 124.226C566.633 124.362 566.804 124.577 566.909 124.839C569.482 131.566 576.513 135.879 576.579 135.906C576.775 136.026 576.938 136.214 577.048 136.445C577.158 136.676 577.211 136.941 577.201 137.208L576.602 149.903C576.591 150.126 576.535 150.343 576.438 150.532C576.341 150.722 576.207 150.879 576.047 150.988C575.882 151.116 575.689 151.182 575.493 151.178ZM566.998 130.047C567.086 133.463 567.806 136.809 569.105 139.835C570.403 142.861 572.246 145.487 574.495 147.516L574.938 137.913C571.926 135.897 569.236 133.232 566.998 130.047Z" fill="#231F20"/>
<path d="M538.607 138.347C538.607 138.347 569.282 142.823 580.461 164.144C591.64 185.464 597.052 263.694 602.708 269.58C608.364 275.466 623.957 305.386 623.713 306.796C623.469 308.207 533.55 334.681 533.55 334.681C533.55 334.681 529.846 309.4 522.038 276.389C514.231 243.377 512.833 138.375 538.607 138.347Z" fill="#E18DFF"/>
<path d="M573.563 368.425C573.358 368.419 573.158 368.344 572.986 368.208C572.861 368.119 572.752 368 572.665 367.858C572.578 367.716 572.515 367.555 572.48 367.383C572.445 367.211 572.438 367.032 572.46 366.857C572.483 366.682 572.533 366.514 572.609 366.364C582.901 345.369 575.537 336.282 575.226 335.902C575.122 335.776 575.04 335.626 574.984 335.46C574.927 335.295 574.898 335.118 574.898 334.939C574.898 334.76 574.927 334.583 574.984 334.417C575.04 334.252 575.122 334.102 575.226 333.976C575.328 333.85 575.448 333.749 575.582 333.681C575.715 333.612 575.858 333.577 576.003 333.577C576.147 333.577 576.29 333.612 576.424 333.681C576.557 333.749 576.678 333.85 576.779 333.976C577.156 334.41 585.829 344.826 574.561 367.801C574.453 368.002 574.305 368.166 574.13 368.275C573.954 368.384 573.759 368.436 573.563 368.425Z" fill="white"/>
<path d="M551.046 171.958C551.689 173.097 582.476 244.058 582.476 244.058L623.132 187.094L644.47 208.794C644.47 208.794 608.094 283.172 584.893 290.361C561.693 297.549 515.092 193.794 516.467 182.944C517.842 172.094 541.93 155.954 551.046 171.958Z" fill="#E18DFF"/>
<path d="M554.32 89.7204C554.903 87.6052 554.82 85.6615 554.136 85.3792C553.451 85.0968 552.423 86.5827 551.84 88.6979C551.257 90.8131 551.339 92.7567 552.024 93.039C552.709 93.3214 553.737 91.8356 554.32 89.7204Z" fill="#231F20"/>
<path d="M592.932 231.77H592.821C592.64 231.75 592.467 231.675 592.315 231.552C592.164 231.429 592.041 231.261 591.956 231.065L564.076 166.994C564.006 166.836 563.963 166.663 563.949 166.484C563.935 166.305 563.95 166.125 563.993 165.953C564.037 165.782 564.107 165.622 564.202 165.484C564.296 165.346 564.411 165.233 564.542 165.15C564.801 164.987 565.102 164.955 565.38 165.062C565.658 165.169 565.891 165.405 566.028 165.72C566.36 166.452 588.74 217.855 593.154 228.108L610.033 204.509C610.136 204.382 610.259 204.281 610.394 204.212C610.529 204.143 610.674 204.108 610.821 204.108C610.967 204.108 611.112 204.143 611.247 204.212C611.382 204.281 611.505 204.382 611.608 204.509C611.714 204.631 611.799 204.778 611.857 204.941C611.914 205.104 611.944 205.28 611.944 205.458C611.944 205.636 611.914 205.812 611.857 205.976C611.799 206.139 611.714 206.286 611.608 206.408L593.775 231.363C593.665 231.498 593.534 231.604 593.388 231.674C593.243 231.744 593.088 231.777 592.932 231.77Z" fill="#231F20"/>
<path d="M516.993 178.16C516.776 178.212 516.545 178.179 516.333 178.067C516.12 177.954 515.937 177.767 515.809 177.532C515.721 177.38 515.658 177.211 515.622 177.035C515.587 176.859 515.581 176.679 515.604 176.506C515.627 176.333 515.679 176.17 515.757 176.027C515.835 175.884 515.937 175.763 516.058 175.672C516.686 175.227 531.56 164.195 543.21 162.847C543.356 162.829 543.505 162.846 543.65 162.897C543.794 162.948 543.932 163.033 544.054 163.145C544.175 163.258 544.28 163.396 544.36 163.553C544.44 163.709 544.496 163.881 544.522 164.058C544.55 164.234 544.548 164.413 544.518 164.582C544.487 164.752 544.428 164.91 544.345 165.048C544.261 165.185 544.154 165.299 544.03 165.382C543.906 165.466 543.767 165.517 543.621 165.534C532.54 166.785 517.499 177.881 517.365 177.994C517.251 178.074 517.125 178.13 516.993 178.16Z" fill="#231F20"/>
<path d="M586.703 286.062C571.576 286.062 556.117 269.597 540.701 236.993C540.588 236.687 540.572 236.34 540.656 236.02C540.739 235.701 540.917 235.43 541.155 235.261C541.392 235.093 541.672 235.038 541.941 235.107C542.209 235.176 542.447 235.365 542.609 235.636C558.734 269.706 574.615 285.656 589.897 283.079C605.179 280.502 622.081 245.103 622.258 244.642C622.331 244.485 622.429 244.348 622.546 244.239C622.662 244.129 622.796 244.048 622.938 244.002C623.08 243.956 623.229 243.945 623.375 243.97C623.521 243.995 623.661 244.055 623.788 244.147C623.914 244.239 624.025 244.36 624.112 244.505C624.2 244.65 624.264 244.814 624.299 244.989C624.334 245.164 624.34 245.346 624.317 245.524C624.295 245.701 624.243 245.872 624.166 246.025C623.456 247.517 606.422 283.024 590.208 285.764C589.047 285.971 587.876 286.071 586.703 286.062Z" fill="#231F20"/>
<path d="M222.188 381.974C220.314 382.639 218.409 383.174 216.483 383.574C191.376 388.999 163.281 387.779 143.2 368.899L146.143 355.689L137.585 364.695L126.039 352.38C145.735 333.636 148.294 304.042 161.221 280.172C171.748 260.723 195.497 259.286 211.955 267.613C223.433 273.494 232.623 284.369 237.673 298.048C243.243 313.401 243.062 330.815 241.93 347.497C240.639 366.241 235.862 376.928 222.188 381.974Z" fill="#2B4C8D"/>
<path d="M191.557 387.67C174.872 387.67 156.942 383.439 142.521 369.849C142.345 369.687 142.213 369.467 142.141 369.217C142.068 368.966 142.059 368.695 142.113 368.438L144.106 359.541L138.333 365.699C138.128 365.922 137.862 366.045 137.586 366.045C137.309 366.045 137.043 365.922 136.838 365.699L125.292 353.411C125.166 353.28 125.066 353.118 124.999 352.934C124.933 352.751 124.901 352.553 124.908 352.353C124.907 352.153 124.945 351.955 125.02 351.776C125.095 351.597 125.203 351.441 125.338 351.322C137.495 339.74 142.906 324.197 148.656 307.759C151.815 297.923 155.701 288.445 160.27 279.44C168.398 264.412 189.429 254.701 212.34 266.365C224.105 272.398 233.511 283.571 238.647 297.614C244.375 313.401 244.126 331.032 242.994 347.714C241.59 368.465 235.84 378.447 222.483 383.276C220.562 383.947 218.612 384.49 216.642 384.903C208.366 386.722 199.971 387.648 191.557 387.67ZM144.49 368.411C165.975 388.077 195.338 386.829 216.279 382.272C218.165 381.868 220.032 381.342 221.871 380.699C234.164 376.25 239.462 366.946 240.775 347.525C241.884 331.249 242.156 313.97 236.632 298.699C231.721 285.291 222.737 274.624 211.503 268.861C194.999 260.506 172.02 262.703 162.172 280.905C157.684 289.76 153.858 299.073 150.739 308.735C145.305 324.332 139.668 340.445 127.783 352.38L137.586 362.823L145.396 354.686C145.578 354.482 145.811 354.356 146.059 354.327C146.306 354.298 146.555 354.367 146.767 354.525C146.978 354.682 147.14 354.919 147.228 355.198C147.316 355.477 147.325 355.783 147.252 356.069L144.49 368.411Z" fill="#231F20"/>
<path d="M79.1415 577.575C75.9494 577.575 52.1782 580.667 41.0397 587.313C29.9013 593.959 27.4562 594.447 29.7202 603.399C31.9841 612.35 51.567 614.547 66.4862 611.156C76.1019 608.805 85.3773 604.775 94.0155 599.194L79.1415 577.575Z" fill="white"/>
<path d="M52.6762 613.896C41.5378 613.896 30.603 611.048 28.7692 603.751C26.5053 594.529 29.1315 592.901 38.0739 587.693L40.5869 586.201C51.9065 579.447 75.7229 576.219 79.0735 576.355C79.2239 576.354 79.3726 576.393 79.5094 576.468C79.6462 576.542 79.7678 576.652 79.8659 576.789L94.7625 598.489C94.8556 598.628 94.9221 598.79 94.9574 598.964C94.9926 599.137 94.9956 599.318 94.9663 599.493C94.9443 599.67 94.8877 599.838 94.8012 599.984C94.7146 600.13 94.6006 600.25 94.4682 600.333C85.741 605.99 76.3658 610.076 66.6446 612.458C62.0351 613.45 57.3593 613.931 52.6762 613.896ZM78.666 578.823C74.1382 578.986 51.9291 582.214 41.5151 588.425L38.9795 589.917C30.0823 595.152 28.9277 595.831 30.7388 603.046C32.7537 611.021 51.5216 613.299 66.3503 609.963C75.4404 607.714 84.2254 603.962 92.4533 598.814L78.666 578.823Z" fill="#231F20"/>
<path d="M75.9493 577.521C73.8583 578.136 72.0375 579.672 70.85 581.824C69.6625 583.976 69.1956 586.585 69.5424 589.131C70.5838 598.625 87.3368 599.031 88.3103 599.059C89.2838 599.086 75.9493 577.521 75.9493 577.521Z" fill="white"/>
<path d="M88.2878 600.279C85.1636 600.279 69.6105 599.357 68.5011 589.429C68.1416 586.575 68.6822 583.663 70.0174 581.261C71.3526 578.859 73.3867 577.139 75.723 576.436C75.9186 576.385 76.1222 576.401 76.3105 576.483C76.4987 576.565 76.6639 576.708 76.7871 576.897C89.9178 598.191 89.6235 598.896 89.2613 599.737C89.1506 599.918 89.0032 600.064 88.833 600.158C88.6627 600.253 88.4751 600.295 88.2878 600.279ZM75.5646 578.959C73.8587 579.615 72.4104 580.993 71.4898 582.834C70.5692 584.676 70.2391 586.856 70.5613 588.968C71.3084 595.858 82.3337 597.377 86.6351 597.729C84.8693 594.339 80.0924 586.31 75.5646 578.959Z" fill="#231F20"/>
<path d="M200.171 599.248C200.669 599.547 205.219 606.654 225.074 609.502C244.928 612.35 252.241 617.45 256.769 604.945C261.296 592.44 258.15 584.384 248.369 580.803C238.589 577.223 211.603 574.266 206.306 580.234C201.008 586.201 200.171 599.248 200.171 599.248Z" fill="white"/>
<path d="M247.011 614.222C243.362 614.026 239.73 613.51 236.144 612.676C232.907 612.052 229.217 611.319 224.961 610.722C216.652 609.529 205.559 606.789 199.763 600.469L199.582 600.279C199.419 600.174 199.287 600.01 199.206 599.811C199.124 599.611 199.098 599.386 199.129 599.167C199.129 598.597 200.057 585.604 205.581 579.338C211.445 572.72 239.155 576.138 248.596 579.61C250.707 580.166 252.694 581.258 254.424 582.811C256.154 584.365 257.587 586.344 258.625 588.615C260.368 593.064 260.029 598.733 257.652 605.433C255.274 612.133 252.06 614.222 247.011 614.222ZM201.257 598.733C206.668 604.538 217.263 607.115 225.21 608.254C229.511 608.878 233.201 609.61 236.529 610.234C248.302 612.513 252.716 613.381 255.863 604.457C257.991 598.435 258.331 593.444 256.859 589.673C255.941 587.723 254.687 586.03 253.18 584.707C251.673 583.383 249.949 582.459 248.12 581.997C238.182 578.362 211.898 575.812 207.076 581.156C202.684 586.011 201.484 596.265 201.257 598.733Z" fill="#231F20"/>
<path d="M193.831 594.149C193.831 594.149 202.887 603.154 208.841 602.097C214.795 601.039 223.172 597.133 219.821 589.32C216.471 581.508 194.918 576.897 194.918 576.897L193.831 594.149Z" fill="white"/>
<path d="M207.845 603.426C201.574 603.426 193.515 595.451 193.152 595.098C193.027 594.968 192.93 594.804 192.867 594.621C192.804 594.437 192.778 594.238 192.79 594.04L193.922 576.789C193.931 576.62 193.97 576.455 194.037 576.305C194.103 576.155 194.195 576.024 194.307 575.921C194.423 575.817 194.554 575.742 194.694 575.7C194.834 575.658 194.979 575.65 195.122 575.676C197.386 576.165 217.263 580.64 220.727 588.751C221.263 589.82 221.567 591.034 221.61 592.28C221.654 593.526 221.436 594.766 220.976 595.885C218.712 601.31 211.241 602.938 209 603.317C208.618 603.394 208.232 603.43 207.845 603.426ZM194.896 593.552C196.684 595.234 203.951 601.69 208.706 600.849C212.599 600.144 217.761 598.136 219.142 594.719C219.446 593.95 219.582 593.101 219.538 592.252C219.495 591.404 219.273 590.582 218.893 589.863C216.493 584.275 202.412 579.881 195.892 578.335L194.896 593.552Z" fill="#231F20"/>
<path d="M126.515 518.415C126.515 518.415 136.001 562.846 170.684 571.336C205.367 579.827 223.298 577.548 235.591 549.5C247.884 521.453 239.734 504.309 239.734 504.309L130.296 501.597L126.515 518.415Z" fill="#231F20"/>
<path d="M199.323 577.033C189.604 576.703 179.936 575.231 170.458 572.638C135.48 564.094 125.496 519.201 125.406 518.767C125.36 518.535 125.36 518.294 125.406 518.062L129.209 501.353C129.271 501.059 129.414 500.799 129.616 500.617C129.818 500.434 130.066 500.34 130.318 500.349L239.756 503.062C239.954 503.063 240.148 503.126 240.318 503.245C240.489 503.364 240.631 503.535 240.73 503.74C241.069 504.472 249.016 521.887 236.587 550.26C227.893 569.98 216.257 577.033 199.323 577.033ZM127.67 518.415C128.643 522.483 138.989 562.168 170.911 569.953C204.213 578.091 222.234 577.033 234.595 548.849C245.077 524.898 240.277 509.002 239.122 505.611L131.269 503.089L127.67 518.415Z" fill="#231F20"/>
<path d="M247.997 518.822C247.997 518.822 265.927 449.408 263.573 405.871C261.218 362.335 237.515 359.161 229.297 358.348C221.079 357.534 177.567 349.532 161.244 372.534C144.921 395.537 116.214 503.252 116.214 503.252L247.997 518.822Z" fill="#E18DFF"/>
<path d="M183.339 358.456L186.169 381.703C188.096 385.193 191.019 387.722 194.391 388.816C197.762 389.91 201.351 389.493 204.484 387.643C216.71 381.54 216.936 370.337 216.936 370.337L211.14 327.425C201.994 316.266 195.614 302.283 192.712 287.035C192.712 287.035 181.913 309.603 166.269 314.676C166.836 324.905 168.124 335.059 170.118 345.029C172.835 356.34 183.022 358.32 183.339 358.456Z" fill="white"/>
<path d="M197.738 390.708C195.228 390.639 192.769 389.849 190.567 388.404C188.365 386.96 186.484 384.904 185.083 382.408C184.997 382.253 184.943 382.077 184.924 381.892L182.208 359.568C179.168 358.819 176.348 357.119 174.034 354.642C171.72 352.164 169.994 348.998 169.031 345.463C167.005 335.398 165.702 325.143 165.138 314.811C165.124 314.501 165.199 314.194 165.352 313.942C165.504 313.69 165.724 313.508 165.975 313.428C180.985 308.572 191.625 286.655 191.739 286.302C191.851 286.067 192.02 285.877 192.223 285.757C192.427 285.638 192.655 285.594 192.88 285.632C193.104 285.67 193.314 285.788 193.482 285.97C193.65 286.153 193.768 286.391 193.821 286.655C196.671 301.583 202.88 315.289 211.774 326.285C211.964 326.504 212.091 326.789 212.137 327.099L217.932 370.012C217.932 370.771 217.57 382.435 204.801 388.782C202.578 389.983 200.176 390.638 197.738 390.708ZM187.12 381.214C188.926 384.37 191.628 386.632 194.722 387.58C197.816 388.528 201.092 388.098 203.941 386.368C215.261 380.699 215.691 370.418 215.691 370.31L209.963 328.076C201.506 317.562 195.456 304.613 192.395 290.48C189.045 296.583 179.921 311.177 167.492 315.734C168.055 325.508 169.305 335.208 171.227 344.731C173.242 353.058 179.649 356.042 183.272 357.073C183.46 357.117 183.642 357.19 183.815 357.29C183.961 357.393 184.085 357.535 184.179 357.704C184.273 357.873 184.334 358.065 184.358 358.266L187.12 381.214Z" fill="#231F20"/>
<path d="M203.466 328.076C203.622 325.896 204.369 323.839 205.594 322.217C206.787 320.776 208.172 319.585 209.692 318.69C210.483 318.107 211.372 317.736 212.295 317.605C212.948 317.609 213.594 317.765 214.197 318.066C215.675 318.605 216.944 319.76 217.774 321.321C218.299 322.679 218.547 324.166 218.498 325.661C218.57 327.274 218.448 328.891 218.136 330.463C217.806 332.03 217.22 333.504 216.412 334.798C215.603 336.092 214.588 337.18 213.426 338C212.263 338.821 210.976 339.356 209.639 339.575C208.303 339.795 206.943 339.694 205.639 339.278" fill="white"/>
<path d="M208.243 341.042C207.264 341.037 206.29 340.882 205.345 340.58C205.057 340.485 204.813 340.258 204.665 339.948C204.516 339.638 204.476 339.271 204.552 338.926C204.586 338.751 204.649 338.587 204.739 338.443C204.828 338.3 204.941 338.18 205.07 338.09C205.2 338.001 205.343 337.945 205.492 337.926C205.64 337.906 205.791 337.923 205.933 337.976C208.279 338.682 210.761 338.273 212.861 336.837C214.934 335.345 216.437 332.94 217.049 330.137C217.32 328.678 217.434 327.183 217.389 325.689C217.436 324.418 217.226 323.152 216.778 322C216.089 320.703 215.038 319.741 213.812 319.287C213.346 319.048 212.847 318.919 212.34 318.907C211.591 319.028 210.872 319.343 210.235 319.829C208.825 320.654 207.54 321.754 206.431 323.085C205.381 324.485 204.738 326.255 204.598 328.13C204.564 328.485 204.418 328.811 204.192 329.042C203.965 329.274 203.673 329.394 203.375 329.378C203.077 329.343 202.801 329.171 202.607 328.898C202.413 328.624 202.315 328.271 202.334 327.913C202.515 325.441 203.366 323.107 204.756 321.267C206.026 319.699 207.511 318.405 209.148 317.442C210.088 316.747 211.15 316.32 212.25 316.195C213.027 316.198 213.795 316.382 214.514 316.737C216.255 317.381 217.743 318.759 218.702 320.616C219.315 322.166 219.617 323.866 219.585 325.58C219.631 327.312 219.494 329.043 219.177 330.734C218.561 333.669 217.143 336.272 215.149 338.13C213.156 339.988 210.7 340.994 208.175 340.987L208.243 341.042Z" fill="#231F20"/>
<path d="M185.966 321.43C185.966 321.43 180.487 334.396 182.275 336.24C184.064 338.085 188.388 336.051 188.388 336.051" fill="white"/>
<path d="M184.539 338.356C183.467 338.43 182.408 338.046 181.551 337.271C179.491 335.155 182.275 327.18 184.947 320.833C185.082 320.514 185.318 320.272 185.602 320.16C185.887 320.048 186.196 320.075 186.463 320.236C186.598 320.314 186.717 320.423 186.815 320.558C186.914 320.692 186.988 320.849 187.035 321.018C187.081 321.188 187.099 321.367 187.086 321.545C187.073 321.723 187.031 321.896 186.962 322.054C184.471 327.967 182.66 334.152 183.09 335.318C183.905 336.105 186.441 335.508 187.98 334.803C188.26 334.67 188.571 334.675 188.847 334.817C189.123 334.96 189.341 335.228 189.452 335.562C189.563 335.897 189.559 336.27 189.44 336.601C189.321 336.932 189.097 337.192 188.818 337.325C187.447 337.941 186.002 338.289 184.539 338.356Z" fill="#231F20"/>
<path d="M194.596 321.179C195.518 321.088 196.18 319.757 196.074 318.204C195.969 316.651 195.135 315.465 194.213 315.555C193.291 315.645 192.629 316.977 192.735 318.53C192.84 320.083 193.674 321.269 194.596 321.179Z" fill="#231F20"/>
<path d="M177.314 324.079C178.237 323.997 178.906 322.67 178.81 321.117C178.713 319.563 177.887 318.37 176.964 318.452C176.041 318.535 175.372 319.861 175.468 321.415C175.565 322.969 176.391 324.161 177.314 324.079Z" fill="#231F20"/>
<path d="M187.392 348.718C184.142 348.623 180.938 347.785 177.951 346.25C177.815 346.174 177.693 346.067 177.592 345.934C177.491 345.801 177.413 345.646 177.363 345.477C177.312 345.308 177.29 345.129 177.298 344.949C177.306 344.77 177.343 344.594 177.408 344.432C177.469 344.27 177.556 344.125 177.665 344.004C177.773 343.883 177.901 343.789 178.04 343.729C178.18 343.668 178.328 343.642 178.476 343.65C178.624 343.659 178.769 343.704 178.902 343.781C178.902 343.781 187.03 348.148 192.689 344.595C194.199 343.512 195.472 342.016 196.405 340.229C197.338 338.441 197.903 336.414 198.055 334.314C198.109 333.955 198.28 333.636 198.53 333.427C198.781 333.218 199.09 333.138 199.391 333.202C199.691 333.267 199.957 333.472 200.131 333.772C200.305 334.072 200.373 334.443 200.319 334.803C200.109 337.315 199.404 339.731 198.263 341.853C197.121 343.975 195.576 345.742 193.753 347.009C191.78 348.189 189.597 348.776 187.392 348.718Z" fill="#231F20"/>
<path d="M183.339 358.456C183.339 358.456 195.814 359.704 202.334 353.601C202.334 353.601 196.832 374.46 185.264 374.406L183.339 358.456Z" fill="#231F20"/>
<path d="M185.196 375.762C184.92 375.761 184.653 375.643 184.442 375.43C184.231 375.217 184.089 374.922 184.041 374.596L182.094 358.673C182.065 358.469 182.076 358.26 182.126 358.062C182.176 357.864 182.263 357.683 182.382 357.533C182.501 357.383 182.647 357.268 182.809 357.197C182.972 357.127 183.145 357.103 183.317 357.127C183.43 357.127 195.429 358.239 201.428 352.516C201.621 352.342 201.855 352.248 202.096 352.248C202.337 352.248 202.571 352.342 202.764 352.516C202.962 352.68 203.113 352.915 203.194 353.188C203.275 353.46 203.283 353.757 203.217 354.035C203.058 354.848 197.421 375.762 185.196 375.762ZM184.539 359.921L186.124 372.995C193.301 372.209 197.919 362.335 199.957 356.72C195.066 359.089 189.81 360.18 184.539 359.921Z" fill="#231F20"/>
<path d="M252.344 369.523C262.282 371.883 292.913 489.255 278.877 501.705C256.985 521.127 190.131 494.599 190.131 494.599L196.923 460.068C196.923 460.068 245.167 462.78 246.05 450.954C246.933 439.127 219.087 383.466 222.981 375.355C226.875 367.245 252.344 369.523 252.344 369.523Z" fill="#E18DFF"/>
<path d="M201.813 471.813C193.786 472.209 185.746 471.554 177.838 469.86C171.998 468.02 165.991 467.046 159.953 466.958C151.986 467.228 144.123 469.184 136.725 472.735C136.419 472.842 136.145 473.048 135.933 473.332C135.208 474.526 136.861 475.692 138.196 475.774C141.383 475.935 144.571 475.533 147.66 474.58C139.969 477.789 132.674 482.223 125.971 487.763C125.224 488.387 124.364 489.39 124.726 490.475C125.088 491.561 126.605 491.371 127.601 490.855L145.011 481.795C140.506 483.842 136.314 486.765 132.605 490.448C132.084 490.964 131.495 491.696 131.631 492.51C131.857 493.893 133.601 493.676 134.665 493.052C139.981 490.065 145.065 486.515 149.856 482.446L139.011 491.967C138.876 493.025 139.781 493.92 140.664 493.975C141.546 493.929 142.4 493.591 143.132 492.998L155.153 485.05L147.637 491.099C146.46 492.049 145.101 493.595 145.645 495.168C146.188 496.741 148.565 496.524 150.173 495.738C156.34 492.693 162.772 490.482 169.348 489.146C171.662 488.313 174.046 487.794 176.457 487.6C180.097 488.18 183.688 489.142 187.188 490.475L203.216 495.277" fill="white"/>
<path d="M147.569 497.501C147.082 497.512 146.598 497.411 146.143 497.203C145.818 497.042 145.523 496.806 145.274 496.508C145.026 496.21 144.828 495.856 144.694 495.467C144.47 494.749 144.47 493.959 144.694 493.242L143.698 493.893C142.797 494.608 141.745 495.003 140.664 495.033C140.258 495.001 139.861 494.868 139.499 494.644C139.136 494.42 138.816 494.109 138.559 493.73C138.288 493.314 138.116 492.817 138.061 492.293C137.11 492.89 136.137 493.432 135.186 493.975C134.666 494.313 134.091 494.512 133.501 494.559C132.911 494.606 132.32 494.499 131.767 494.246C131.49 494.081 131.25 493.84 131.065 493.544C130.88 493.247 130.756 492.902 130.703 492.537C130.634 492.105 130.654 491.66 130.76 491.24C130.867 490.819 131.057 490.436 131.314 490.123L128.077 491.805C127.114 492.342 126.025 492.458 124.998 492.13C124.737 492.015 124.498 491.834 124.299 491.6C124.1 491.367 123.945 491.085 123.844 490.774C123.345 489.39 123.844 487.871 125.451 486.624C129.937 482.935 134.687 479.731 139.646 477.048H138.061C137.433 477.026 136.82 476.818 136.275 476.445C135.731 476.071 135.271 475.542 134.937 474.905C134.787 474.543 134.724 474.138 134.756 473.735C134.788 473.333 134.913 472.949 135.118 472.627C135.447 472.16 135.878 471.812 136.363 471.623C143.869 467.987 151.859 465.993 159.953 465.737C165.296 465.753 170.617 466.545 175.801 468.097L178.064 468.667C185.908 470.328 193.876 470.983 201.836 470.62C202.102 470.62 202.358 470.744 202.548 470.968C202.739 471.191 202.848 471.494 202.854 471.813C202.857 471.977 202.833 472.14 202.784 472.293C202.734 472.446 202.66 472.585 202.565 472.704C202.471 472.822 202.358 472.917 202.232 472.983C202.107 473.049 201.972 473.085 201.836 473.088C193.732 473.471 185.617 472.798 177.634 471.081L175.37 470.538C170.322 469.012 165.137 468.229 159.93 468.205C152.087 468.467 144.345 470.395 137.065 473.902H136.861C137.222 474.227 137.655 474.416 138.106 474.444C141.157 474.603 144.209 474.209 147.162 473.278C147.42 473.201 147.692 473.246 147.924 473.402C148.155 473.558 148.328 473.815 148.407 474.119C148.486 474.428 148.462 474.762 148.34 475.051C148.217 475.339 148.006 475.56 147.751 475.665C140.187 478.805 133.013 483.158 126.424 488.604C125.723 489.173 125.541 489.635 125.541 489.716C125.541 489.797 126.266 489.852 127.058 489.445L140.506 482.446C141.819 481.687 143.155 480.982 144.513 480.358C144.769 480.249 145.05 480.262 145.298 480.393C145.546 480.524 145.743 480.763 145.849 481.063C145.947 481.366 145.942 481.702 145.837 482.001C145.731 482.299 145.532 482.537 145.283 482.663L141.389 484.698C138.437 486.451 135.664 488.609 133.126 491.126C132.537 491.723 132.514 491.994 132.514 491.994C133.058 492.085 133.612 491.972 134.099 491.669C139.348 488.7 144.37 485.188 149.109 481.171C149.331 480.979 149.608 480.899 149.88 480.95C150.151 481 150.395 481.178 150.558 481.443C150.713 481.712 150.776 482.042 150.734 482.365C150.692 482.688 150.548 482.979 150.331 483.179L140.325 492.266C140.461 492.424 140.635 492.528 140.823 492.564C141.517 492.501 142.183 492.21 142.747 491.723L154.769 483.775C155.002 483.623 155.274 483.584 155.531 483.664C155.788 483.745 156.009 483.94 156.15 484.209C156.293 484.483 156.341 484.814 156.281 485.129C156.222 485.444 156.061 485.718 155.833 485.891L148.316 491.94C147.388 492.7 146.46 493.785 146.709 494.653C146.737 494.743 146.783 494.825 146.842 494.891C146.901 494.956 146.971 495.005 147.049 495.033C147.996 495.248 148.977 495.077 149.833 494.544C156.068 491.446 162.578 489.207 169.235 487.871C170.005 487.709 170.775 487.465 171.499 487.22C173.132 486.605 174.836 486.303 176.548 486.325C179.172 486.616 181.757 487.29 184.245 488.333C185.377 488.712 186.509 489.119 187.528 489.418L203.556 494.246C203.688 494.284 203.811 494.353 203.92 494.449C204.029 494.545 204.121 494.666 204.191 494.804C204.26 494.943 204.306 495.097 204.325 495.258C204.345 495.418 204.337 495.581 204.303 495.738C204.274 495.897 204.219 496.048 204.139 496.18C204.06 496.313 203.959 496.424 203.842 496.508C203.726 496.592 203.596 496.646 203.461 496.668C203.326 496.689 203.189 496.677 203.058 496.633L187.03 491.832C185.943 491.506 184.766 491.099 183.656 490.692C181.318 489.729 178.895 489.092 176.434 488.794C174.898 488.787 173.37 489.071 171.907 489.635C171.092 489.879 170.299 490.123 169.462 490.313C162.961 491.623 156.605 493.807 150.513 496.823C149.572 497.255 148.576 497.484 147.569 497.501Z" fill="#231F20"/>
<path d="M166.269 382.462C163.553 385.636 155.991 436.333 153.161 460.285L166.269 382.462Z" fill="white"/>
<path d="M153.161 461.533H153.003C152.868 461.513 152.739 461.461 152.622 461.38C152.504 461.299 152.401 461.192 152.319 461.063C152.237 460.934 152.177 460.787 152.143 460.63C152.109 460.473 152.101 460.31 152.12 460.149C154.225 442.545 162.217 385.473 165.545 381.486C165.636 381.346 165.751 381.231 165.882 381.148C166.014 381.066 166.158 381.018 166.306 381.008C166.454 380.997 166.602 381.025 166.74 381.089C166.879 381.153 167.004 381.251 167.108 381.378C167.212 381.504 167.292 381.656 167.343 381.823C167.394 381.989 167.415 382.167 167.404 382.344C167.394 382.521 167.351 382.694 167.281 382.85C167.21 383.006 167.112 383.142 166.994 383.249C164.73 386.205 157.372 433.404 154.18 460.366C154.163 460.678 154.049 460.971 153.86 461.187C153.672 461.403 153.422 461.527 153.161 461.533Z" fill="#231F20"/>
<path d="M226.49 507.239H226.354L202.99 501.814C202.732 501.763 202.498 501.604 202.328 501.366C202.158 501.128 202.064 500.825 202.062 500.512L201.858 466.849C201.857 466.508 201.964 466.178 202.157 465.927C202.35 465.675 202.615 465.52 202.9 465.493L245.099 461.289L227.848 384.307C227.772 383.954 227.815 383.58 227.967 383.265C228.12 382.95 228.37 382.72 228.663 382.625C228.807 382.58 228.957 382.57 229.105 382.595C229.252 382.619 229.394 382.679 229.523 382.77C229.651 382.86 229.763 382.98 229.853 383.123C229.942 383.266 230.007 383.428 230.044 383.601L247.657 462.265C247.693 462.458 247.695 462.659 247.662 462.853C247.629 463.047 247.562 463.231 247.466 463.392C247.37 463.553 247.247 463.688 247.104 463.789C246.962 463.889 246.803 463.952 246.639 463.974L204.145 468.206L204.326 499.481L226.784 504.662C227.084 504.698 227.36 504.875 227.551 505.155C227.742 505.435 227.833 505.794 227.803 506.154C227.773 506.514 227.625 506.844 227.391 507.073C227.158 507.302 226.858 507.411 226.558 507.375L226.49 507.239Z" fill="#231F20"/>
<path d="M96.5177 515.973L76.1877 450.791L159.183 452.744L177.815 527.095L96.5177 515.973Z" fill="white"/>
<path d="M177.815 528.451H177.68L96.382 517.33C96.174 517.307 95.9759 517.213 95.8112 517.059C95.6466 516.905 95.5225 516.698 95.4538 516.462L75.0785 451.361C75.0091 451.156 74.9851 450.934 75.009 450.715C75.0328 450.497 75.1035 450.289 75.2143 450.113C75.305 449.913 75.4449 449.751 75.6149 449.649C75.785 449.547 75.9771 449.51 76.1652 449.543L159.16 451.496C159.401 451.502 159.635 451.6 159.826 451.776C160.017 451.951 160.157 452.195 160.224 452.473L178.834 526.796C178.892 527.012 178.903 527.242 178.868 527.465C178.832 527.688 178.751 527.896 178.63 528.071C178.408 528.316 178.117 528.452 177.815 528.451ZM97.3102 514.698L176.208 525.549L158.436 454.073L77.9084 452.174L97.3102 514.698Z" fill="#231F20"/>
<path d="M100.932 516.57C100.932 516.57 78.4063 538.487 86.3753 558.587C94.3443 578.687 238.058 601.635 238.058 601.635L244.556 575.378C244.556 575.378 131.744 506.317 100.932 516.57Z" fill="#231F20"/>
<path d="M238.126 602.992H237.99C232.082 602.042 93.507 579.691 85.3569 559.157C77.2067 538.623 99.28 516.435 100.231 515.512C100.352 515.399 100.49 515.316 100.638 515.268C131.518 504.961 240.503 571.336 245.122 574.157C245.362 574.298 245.552 574.536 245.66 574.829C245.768 575.122 245.786 575.451 245.71 575.758L239.213 602.015C239.148 602.299 239.006 602.549 238.809 602.726C238.612 602.903 238.372 602.996 238.126 602.992ZM101.476 517.791C99.3932 519.907 80.263 540.034 87.3944 557.991C93.6881 573.805 196.923 593.552 237.311 600.144L243.265 576.083C232.897 569.817 130.454 508.677 101.476 517.791Z" fill="#231F20"/>
<path d="M252.095 506.479C252.095 506.479 140.325 560.73 112.615 574.917L128.734 604.755C128.734 604.755 231.946 602.341 261.535 571.255C291.125 540.169 289.155 488.495 252.095 506.479Z" fill="#231F20"/>
<path d="M128.733 606.138C128.544 606.138 128.358 606.081 128.192 605.972C128.025 605.863 127.885 605.705 127.783 605.514L111.663 575.676C111.57 575.517 111.509 575.333 111.485 575.14C111.462 574.947 111.476 574.75 111.528 574.564C111.569 574.37 111.648 574.19 111.758 574.039C111.868 573.889 112.006 573.771 112.162 573.696C139.555 559.591 250.487 505.883 251.664 505.259C264.84 498.857 275.232 500.702 280.167 510.277C288.815 527.095 277.903 555.929 262.282 572.34C249.831 585.414 223.547 595.071 184.177 601.066C154.95 605.514 129.005 606.165 128.756 606.165L128.733 606.138ZM114.29 575.541L129.322 603.399C138.015 603.127 233.032 599.411 260.788 570.279C279.262 550.857 284.74 524.301 278.243 511.688C273.873 503.197 264.659 501.814 252.525 507.754C251.415 508.27 143.607 560.513 114.29 575.541Z" fill="#231F20"/>
<path d="M96.1102 489.933C95.9935 490.705 95.7215 491.431 95.3178 492.049L93.0539 495.928C93.1196 495.519 93.2629 495.134 93.4729 494.802C93.6828 494.47 93.9537 494.2 94.2646 494.014C94.5754 493.828 94.9179 493.73 95.2654 493.728C95.613 493.726 95.9563 493.819 96.2687 494.002C96.8893 494.397 97.405 494.993 97.7572 495.722C98.1094 496.451 98.2839 497.283 98.2609 498.125C98.2153 499.806 97.8841 501.458 97.2874 502.98C95.748 507.782 92.2615 514.807 87.1904 511.118C83.7718 508.65 82.821 499.915 82.3229 495.602C81.3721 487.031 83.5454 476.072 92.7143 477.754C92.4473 481.959 91.1387 485.973 88.9562 489.282C90.5183 487.573 96.5404 484.888 96.1102 489.933Z" fill="white"/>
<path d="M90.043 513.424C88.8782 513.393 87.7426 512.981 86.7603 512.23C82.9343 509.517 81.9381 500.702 81.4174 495.955C80.7835 490.53 81.4174 483.26 84.7228 479.273C85.8039 478.043 87.1217 477.152 88.5592 476.678C89.9968 476.205 91.5096 476.165 92.9634 476.56C93.2235 476.607 93.459 476.77 93.6228 477.017C93.7866 477.263 93.8665 477.575 93.8464 477.889C93.6568 480.723 93.011 483.487 91.9447 486.027C93.1309 485.522 94.426 485.522 95.6122 486.027C96.1921 486.376 96.6583 486.948 96.9371 487.65C97.2159 488.352 97.2914 489.146 97.1517 489.906C97.0431 490.891 96.7233 491.825 96.2235 492.618L96.7668 492.835C97.5725 493.322 98.2467 494.072 98.7115 494.998C99.1762 495.925 99.4125 496.99 99.393 498.071C99.3537 499.944 98.9995 501.79 98.3516 503.496C97.3781 506.507 95.25 511.633 91.8088 513.152C91.237 513.36 90.6401 513.452 90.043 513.424ZM91.0165 478.866C90.1255 478.826 89.2369 479.002 88.4043 479.385C87.5717 479.767 86.8123 480.347 86.1717 481.09C83.3418 484.426 82.9116 490.72 83.455 495.494C83.9077 499.644 84.8586 507.971 87.8243 510.114C88.3002 510.511 88.8458 510.771 89.419 510.874C89.9921 510.978 90.5774 510.922 91.1296 510.711C93.054 509.924 95.0236 506.859 96.4272 502.573C96.9578 501.201 97.2578 499.717 97.3102 498.206C97.3343 497.604 97.2205 497.005 96.9811 496.474C96.7417 495.943 96.3858 495.501 95.9518 495.195C95.7693 495.102 95.5729 495.054 95.3745 495.054C95.1761 495.054 94.9797 495.102 94.7972 495.195L94.0048 496.633C93.8706 496.859 93.6786 497.026 93.458 497.109C93.2374 497.192 93.0002 497.187 92.7823 497.094C92.5642 496.999 92.3789 496.819 92.2558 496.583C92.1327 496.347 92.079 496.069 92.1031 495.792C92.1526 495.302 92.2894 494.83 92.5042 494.409C92.719 493.988 93.0069 493.627 93.3483 493.351L94.4576 491.371C94.7541 490.912 94.9697 490.386 95.0915 489.824C95.0915 488.685 94.8425 488.495 94.7293 488.441C93.846 488.308 92.9493 488.395 92.0958 488.699C91.2424 489.002 90.4508 489.515 89.7713 490.204C89.5819 490.42 89.3307 490.54 89.0695 490.54C88.8083 490.54 88.557 490.42 88.3677 490.204C88.1715 489.991 88.0489 489.697 88.0237 489.381C87.9986 489.065 88.0728 488.749 88.2318 488.495C90.0842 485.707 91.2732 482.37 91.673 478.839L91.0165 478.866Z" fill="#231F20"/>
<path d="M127.466 569.302C127.231 569.3 127.002 569.213 126.808 569.054C126.614 568.894 126.465 568.669 126.379 568.407C126.267 568.061 126.274 567.677 126.396 567.337C126.519 566.997 126.749 566.728 127.036 566.589C127.647 566.318 186.939 538.813 199.775 529.373C199.906 529.249 200.057 529.16 200.218 529.111C200.38 529.062 200.548 529.055 200.712 529.089C200.876 529.124 201.032 529.2 201.17 529.312C201.307 529.425 201.423 529.571 201.511 529.741C201.598 529.911 201.654 530.101 201.675 530.299C201.696 530.497 201.682 530.698 201.633 530.889C201.585 531.08 201.503 531.256 201.394 531.406C201.284 531.557 201.149 531.677 200.998 531.76C187.98 541.336 130.341 568.081 127.896 569.221C127.757 569.274 127.612 569.301 127.466 569.302Z" fill="white"/>
</svg>
